<?xml version="1.0" encoding="utf-8" standalone="no"?>
<!DOCTYPE svg PUBLIC "-//W3C//DTD SVG 1.1//EN"
  "http://www.w3.org/Graphics/SVG/1.1/DTD/svg11.dtd">
<!-- Created with matplotlib (https://matplotlib.org/) -->
<svg height="673.810313pt" version="1.1" viewBox="0 0 951.600312 673.810313" width="951.600312pt" xmlns="http://www.w3.org/2000/svg" xmlns:xlink="http://www.w3.org/1999/xlink">
 <defs>
  <style type="text/css">
*{stroke-linecap:butt;stroke-linejoin:round;}
  </style>
 </defs>
 <g id="figure_1">
  <g id="patch_1">
   <path d="M 0 673.810313 
L 951.600312 673.810313 
L 951.600312 0 
L 0 0 
z
" style="fill:#ffffff;"/>
  </g>
  <g id="axes_1">
   <g id="patch_2">
    <path d="M 107.400312 591.925938 
L 944.400313 591.925938 
L 944.400313 102.685938 
L 107.400312 102.685938 
z
" style="fill:#ffffff;"/>
   </g>
   <g id="patch_3">
    <path clip-path="url(#pa7ae06583a)" d="M 145.445767 591.925938 
L 145.445767 591.925938 
L 154.957131 591.925938 
L 154.957131 591.925938 
L 164.468494 591.925938 
L 164.468494 587.728254 
L 173.979858 587.728254 
L 173.979858 591.925938 
L 183.491222 591.925938 
L 183.491222 583.530571 
L 193.002585 583.530571 
L 193.002585 579.332887 
L 202.513949 579.332887 
L 202.513949 591.925938 
L 212.025313 591.925938 
L 212.025313 579.332887 
L 221.536676 579.332887 
L 221.536676 591.925938 
L 231.04804 591.925938 
L 231.04804 583.530571 
L 240.559403 583.530571 
L 240.559403 587.728254 
L 250.070767 587.728254 
L 250.070767 591.925938 
L 259.582131 591.925938 
L 259.582131 587.728254 
L 269.093494 587.728254 
L 269.093494 579.332887 
L 278.604858 579.332887 
L 278.604858 583.530571 
L 288.116222 583.530571 
L 288.116222 587.728254 
L 297.627585 587.728254 
L 297.627585 591.925938 
L 307.138949 591.925938 
L 307.138949 583.530571 
L 316.650313 583.530571 
L 316.650313 591.925938 
L 326.161676 591.925938 
L 326.161676 583.530571 
L 335.67304 583.530571 
L 335.67304 570.937521 
L 345.184403 570.937521 
L 345.184403 587.728254 
L 354.695767 587.728254 
L 354.695767 579.332887 
L 364.207131 579.332887 
L 364.207131 570.937521 
L 373.718494 570.937521 
L 373.718494 558.34447 
L 383.229858 558.34447 
L 383.229858 566.739837 
L 392.741222 566.739837 
L 392.741222 562.542154 
L 402.252585 562.542154 
L 402.252585 549.949104 
L 411.763949 549.949104 
L 411.763949 512.169953 
L 421.275313 512.169953 
L 421.275313 562.542154 
L 430.786676 562.542154 
L 430.786676 545.75142 
L 440.29804 545.75142 
L 440.29804 545.75142 
L 449.809403 545.75142 
L 449.809403 520.56532 
L 459.320767 520.56532 
L 459.320767 465.995436 
L 468.832131 465.995436 
L 468.832131 453.402385 
L 478.343494 453.402385 
L 478.343494 503.774586 
L 487.854858 503.774586 
L 487.854858 457.600069 
L 497.366222 457.600069 
L 497.366222 369.448717 
L 506.877585 369.448717 
L 506.877585 256.111266 
L 516.388949 256.111266 
L 516.388949 125.98308 
L 525.900313 125.98308 
L 525.900313 130.180764 
L 535.411676 130.180764 
L 535.411676 382.041768 
L 544.92304 382.041768 
L 544.92304 386.239451 
L 554.434403 386.239451 
L 554.434403 428.216285 
L 563.945767 428.216285 
L 563.945767 457.600069 
L 573.457131 457.600069 
L 573.457131 491.181536 
L 582.968494 491.181536 
L 582.968494 520.56532 
L 592.479858 520.56532 
L 592.479858 503.774586 
L 601.991222 503.774586 
L 601.991222 562.542154 
L 611.502585 562.542154 
L 611.502585 554.146787 
L 621.013949 554.146787 
L 621.013949 554.146787 
L 630.525313 554.146787 
L 630.525313 528.960687 
L 640.036676 528.960687 
L 640.036676 545.75142 
L 649.54804 545.75142 
L 649.54804 566.739837 
L 659.059403 566.739837 
L 659.059403 562.542154 
L 668.570767 562.542154 
L 668.570767 587.728254 
L 678.082131 587.728254 
L 678.082131 566.739837 
L 687.593494 566.739837 
L 687.593494 583.530571 
L 697.104858 583.530571 
L 697.104858 583.530571 
L 706.616222 583.530571 
L 706.616222 583.530571 
L 716.127585 583.530571 
L 716.127585 579.332887 
L 725.638949 579.332887 
L 725.638949 579.332887 
L 735.150312 579.332887 
L 735.150312 575.135204 
L 744.661676 575.135204 
L 744.661676 591.925938 
L 754.17304 591.925938 
L 754.17304 579.332887 
L 763.684403 579.332887 
L 763.684403 591.925938 
L 773.195767 591.925938 
L 773.195767 591.925938 
L 782.707131 591.925938 
L 782.707131 591.925938 
L 792.218494 591.925938 
L 792.218494 591.925938 
L 801.729858 591.925938 
L 801.729858 591.925938 
L 811.241222 591.925938 
L 811.241222 591.925938 
L 820.752585 591.925938 
L 820.752585 587.728254 
L 830.263949 587.728254 
L 830.263949 591.925938 
L 839.775312 591.925938 
L 839.775312 591.925938 
L 849.286676 591.925938 
L 849.286676 587.728254 
L 858.79804 587.728254 
L 858.79804 591.925938 
L 868.309403 591.925938 
L 868.309403 591.925938 
L 877.820767 591.925938 
L 877.820767 591.925938 
L 887.332131 591.925938 
L 887.332131 583.530571 
L 896.843494 583.530571 
L 896.843494 591.925938 
L 906.354858 591.925938 
L 906.354858 591.925938 
L 896.843494 591.925938 
L 896.843494 591.925938 
L 887.332131 591.925938 
L 887.332131 591.925938 
L 877.820767 591.925938 
L 877.820767 591.925938 
L 868.309403 591.925938 
L 868.309403 591.925938 
L 858.79804 591.925938 
L 858.79804 591.925938 
L 849.286676 591.925938 
L 849.286676 591.925938 
L 839.775312 591.925938 
L 839.775312 591.925938 
L 830.263949 591.925938 
L 830.263949 591.925938 
L 820.752585 591.925938 
L 820.752585 591.925938 
L 811.241222 591.925938 
L 811.241222 591.925938 
L 801.729858 591.925938 
L 801.729858 591.925938 
L 792.218494 591.925938 
L 792.218494 591.925938 
L 782.707131 591.925938 
L 782.707131 591.925938 
L 773.195767 591.925938 
L 773.195767 591.925938 
L 763.684403 591.925938 
L 763.684403 591.925938 
L 754.17304 591.925938 
L 754.17304 591.925938 
L 744.661676 591.925938 
L 744.661676 591.925938 
L 735.150312 591.925938 
L 735.150312 591.925938 
L 725.638949 591.925938 
L 725.638949 591.925938 
L 716.127585 591.925938 
L 716.127585 591.925938 
L 706.616222 591.925938 
L 706.616222 591.925938 
L 697.104858 591.925938 
L 697.104858 591.925938 
L 687.593494 591.925938 
L 687.593494 591.925938 
L 678.082131 591.925938 
L 678.082131 591.925938 
L 668.570767 591.925938 
L 668.570767 591.925938 
L 659.059403 591.925938 
L 659.059403 591.925938 
L 649.54804 591.925938 
L 649.54804 591.925938 
L 640.036676 591.925938 
L 640.036676 591.925938 
L 630.525313 591.925938 
L 630.525313 591.925938 
L 621.013949 591.925938 
L 621.013949 591.925938 
L 611.502585 591.925938 
L 611.502585 591.925938 
L 601.991222 591.925938 
L 601.991222 591.925938 
L 592.479858 591.925938 
L 592.479858 591.925938 
L 582.968494 591.925938 
L 582.968494 591.925938 
L 573.457131 591.925938 
L 573.457131 591.925938 
L 563.945767 591.925938 
L 563.945767 591.925938 
L 554.434403 591.925938 
L 554.434403 591.925938 
L 544.92304 591.925938 
L 544.92304 591.925938 
L 535.411676 591.925938 
L 535.411676 591.925938 
L 525.900313 591.925938 
L 525.900313 591.925938 
L 516.388949 591.925938 
L 516.388949 591.925938 
L 506.877585 591.925938 
L 506.877585 591.925938 
L 497.366222 591.925938 
L 497.366222 591.925938 
L 487.854858 591.925938 
L 487.854858 591.925938 
L 478.343494 591.925938 
L 478.343494 591.925938 
L 468.832131 591.925938 
L 468.832131 591.925938 
L 459.320767 591.925938 
L 459.320767 591.925938 
L 449.809403 591.925938 
L 449.809403 591.925938 
L 440.29804 591.925938 
L 440.29804 591.925938 
L 430.786676 591.925938 
L 430.786676 591.925938 
L 421.275313 591.925938 
L 421.275313 591.925938 
L 411.763949 591.925938 
L 411.763949 591.925938 
L 402.252585 591.925938 
L 402.252585 591.925938 
L 392.741222 591.925938 
L 392.741222 591.925938 
L 383.229858 591.925938 
L 383.229858 591.925938 
L 373.718494 591.925938 
L 373.718494 591.925938 
L 364.207131 591.925938 
L 364.207131 591.925938 
L 354.695767 591.925938 
L 354.695767 591.925938 
L 345.184403 591.925938 
L 345.184403 591.925938 
L 335.67304 591.925938 
L 335.67304 591.925938 
L 326.161676 591.925938 
L 326.161676 591.925938 
L 316.650313 591.925938 
L 316.650313 591.925938 
L 307.138949 591.925938 
L 307.138949 591.925938 
L 297.627585 591.925938 
L 297.627585 591.925938 
L 288.116222 591.925938 
L 288.116222 591.925938 
L 278.604858 591.925938 
L 278.604858 591.925938 
L 269.093494 591.925938 
L 269.093494 591.925938 
L 259.582131 591.925938 
L 259.582131 591.925938 
L 250.070767 591.925938 
L 250.070767 591.925938 
L 240.559403 591.925938 
L 240.559403 591.925938 
L 231.04804 591.925938 
L 231.04804 591.925938 
L 221.536676 591.925938 
L 221.536676 591.925938 
L 212.025313 591.925938 
L 212.025313 591.925938 
L 202.513949 591.925938 
L 202.513949 591.925938 
L 193.002585 591.925938 
L 193.002585 591.925938 
L 183.491222 591.925938 
L 183.491222 591.925938 
L 173.979858 591.925938 
L 173.979858 591.925938 
L 164.468494 591.925938 
L 164.468494 591.925938 
L 154.957131 591.925938 
L 154.957131 591.925938 
z
" style="fill:#0870a8;"/>
   </g>
   <g id="patch_4">
    <path clip-path="url(#pa7ae06583a)" d="M 145.445767 591.925938 
L 145.445767 591.925938 
L 154.957131 591.925938 
L 154.957131 591.925938 
L 164.468494 591.925938 
L 164.468494 591.925938 
L 173.979858 591.925938 
L 173.979858 591.925938 
L 183.491222 591.925938 
L 183.491222 587.728254 
L 193.002585 587.728254 
L 193.002585 591.925938 
L 202.513949 591.925938 
L 202.513949 587.728254 
L 212.025313 587.728254 
L 212.025313 591.925938 
L 221.536676 591.925938 
L 221.536676 587.728254 
L 231.04804 587.728254 
L 231.04804 587.728254 
L 240.559403 587.728254 
L 240.559403 591.925938 
L 250.070767 591.925938 
L 250.070767 591.925938 
L 259.582131 591.925938 
L 259.582131 591.925938 
L 269.093494 591.925938 
L 269.093494 591.925938 
L 278.604858 591.925938 
L 278.604858 591.925938 
L 288.116222 591.925938 
L 288.116222 591.925938 
L 297.627585 591.925938 
L 297.627585 591.925938 
L 307.138949 591.925938 
L 307.138949 587.728254 
L 316.650313 587.728254 
L 316.650313 591.925938 
L 326.161676 591.925938 
L 326.161676 587.728254 
L 335.67304 587.728254 
L 335.67304 587.728254 
L 345.184403 587.728254 
L 345.184403 587.728254 
L 354.695767 587.728254 
L 354.695767 587.728254 
L 364.207131 587.728254 
L 364.207131 583.530571 
L 373.718494 583.530571 
L 373.718494 583.530571 
L 383.229858 583.530571 
L 383.229858 583.530571 
L 392.741222 583.530571 
L 392.741222 583.530571 
L 402.252585 583.530571 
L 402.252585 583.530571 
L 411.763949 583.530571 
L 411.763949 575.135204 
L 421.275313 575.135204 
L 421.275313 579.332887 
L 430.786676 579.332887 
L 430.786676 583.530571 
L 440.29804 583.530571 
L 440.29804 579.332887 
L 449.809403 579.332887 
L 449.809403 570.937521 
L 459.320767 570.937521 
L 459.320767 562.542154 
L 468.832131 562.542154 
L 468.832131 549.949104 
L 478.343494 549.949104 
L 478.343494 541.553737 
L 487.854858 541.553737 
L 487.854858 512.169953 
L 497.366222 512.169953 
L 497.366222 524.763003 
L 506.877585 524.763003 
L 506.877585 478.588486 
L 516.388949 478.588486 
L 516.388949 348.4603 
L 525.900313 348.4603 
L 525.900313 432.413968 
L 535.411676 432.413968 
L 535.411676 507.97227 
L 544.92304 507.97227 
L 544.92304 570.937521 
L 554.434403 570.937521 
L 554.434403 562.542154 
L 563.945767 562.542154 
L 563.945767 566.739837 
L 573.457131 566.739837 
L 573.457131 570.937521 
L 582.968494 570.937521 
L 582.968494 583.530571 
L 592.479858 583.530571 
L 592.479858 583.530571 
L 601.991222 583.530571 
L 601.991222 591.925938 
L 611.502585 591.925938 
L 611.502585 579.332887 
L 621.013949 579.332887 
L 621.013949 591.925938 
L 630.525313 591.925938 
L 630.525313 591.925938 
L 640.036676 591.925938 
L 640.036676 583.530571 
L 649.54804 583.530571 
L 649.54804 591.925938 
L 659.059403 591.925938 
L 659.059403 583.530571 
L 668.570767 583.530571 
L 668.570767 591.925938 
L 678.082131 591.925938 
L 678.082131 587.728254 
L 687.593494 587.728254 
L 687.593494 591.925938 
L 697.104858 591.925938 
L 697.104858 587.728254 
L 706.616222 587.728254 
L 706.616222 587.728254 
L 716.127585 587.728254 
L 716.127585 583.530571 
L 725.638949 583.530571 
L 725.638949 591.925938 
L 735.150312 591.925938 
L 735.150312 591.925938 
L 744.661676 591.925938 
L 744.661676 591.925938 
L 754.17304 591.925938 
L 754.17304 591.925938 
L 763.684403 591.925938 
L 763.684403 591.925938 
L 773.195767 591.925938 
L 773.195767 587.728254 
L 782.707131 587.728254 
L 782.707131 587.728254 
L 792.218494 587.728254 
L 792.218494 591.925938 
L 801.729858 591.925938 
L 801.729858 591.925938 
L 811.241222 591.925938 
L 811.241222 591.925938 
L 820.752585 591.925938 
L 820.752585 591.925938 
L 830.263949 591.925938 
L 830.263949 591.925938 
L 839.775312 591.925938 
L 839.775312 591.925938 
L 849.286676 591.925938 
L 849.286676 591.925938 
L 858.79804 591.925938 
L 858.79804 591.925938 
L 868.309403 591.925938 
L 868.309403 591.925938 
L 877.820767 591.925938 
L 877.820767 591.925938 
L 887.332131 591.925938 
L 887.332131 591.925938 
L 896.843494 591.925938 
L 896.843494 591.925938 
L 906.354858 591.925938 
L 906.354858 591.925938 
L 896.843494 591.925938 
L 896.843494 591.925938 
L 887.332131 591.925938 
L 887.332131 591.925938 
L 877.820767 591.925938 
L 877.820767 591.925938 
L 868.309403 591.925938 
L 868.309403 591.925938 
L 858.79804 591.925938 
L 858.79804 591.925938 
L 849.286676 591.925938 
L 849.286676 591.925938 
L 839.775312 591.925938 
L 839.775312 591.925938 
L 830.263949 591.925938 
L 830.263949 591.925938 
L 820.752585 591.925938 
L 820.752585 591.925938 
L 811.241222 591.925938 
L 811.241222 591.925938 
L 801.729858 591.925938 
L 801.729858 591.925938 
L 792.218494 591.925938 
L 792.218494 591.925938 
L 782.707131 591.925938 
L 782.707131 591.925938 
L 773.195767 591.925938 
L 773.195767 591.925938 
L 763.684403 591.925938 
L 763.684403 591.925938 
L 754.17304 591.925938 
L 754.17304 591.925938 
L 744.661676 591.925938 
L 744.661676 591.925938 
L 735.150312 591.925938 
L 735.150312 591.925938 
L 725.638949 591.925938 
L 725.638949 591.925938 
L 716.127585 591.925938 
L 716.127585 591.925938 
L 706.616222 591.925938 
L 706.616222 591.925938 
L 697.104858 591.925938 
L 697.104858 591.925938 
L 687.593494 591.925938 
L 687.593494 591.925938 
L 678.082131 591.925938 
L 678.082131 591.925938 
L 668.570767 591.925938 
L 668.570767 591.925938 
L 659.059403 591.925938 
L 659.059403 591.925938 
L 649.54804 591.925938 
L 649.54804 591.925938 
L 640.036676 591.925938 
L 640.036676 591.925938 
L 630.525313 591.925938 
L 630.525313 591.925938 
L 621.013949 591.925938 
L 621.013949 591.925938 
L 611.502585 591.925938 
L 611.502585 591.925938 
L 601.991222 591.925938 
L 601.991222 591.925938 
L 592.479858 591.925938 
L 592.479858 591.925938 
L 582.968494 591.925938 
L 582.968494 591.925938 
L 573.457131 591.925938 
L 573.457131 591.925938 
L 563.945767 591.925938 
L 563.945767 591.925938 
L 554.434403 591.925938 
L 554.434403 591.925938 
L 544.92304 591.925938 
L 544.92304 591.925938 
L 535.411676 591.925938 
L 535.411676 591.925938 
L 525.900313 591.925938 
L 525.900313 591.925938 
L 516.388949 591.925938 
L 516.388949 591.925938 
L 506.877585 591.925938 
L 506.877585 591.925938 
L 497.366222 591.925938 
L 497.366222 591.925938 
L 487.854858 591.925938 
L 487.854858 591.925938 
L 478.343494 591.925938 
L 478.343494 591.925938 
L 468.832131 591.925938 
L 468.832131 591.925938 
L 459.320767 591.925938 
L 459.320767 591.925938 
L 449.809403 591.925938 
L 449.809403 591.925938 
L 440.29804 591.925938 
L 440.29804 591.925938 
L 430.786676 591.925938 
L 430.786676 591.925938 
L 421.275313 591.925938 
L 421.275313 591.925938 
L 411.763949 591.925938 
L 411.763949 591.925938 
L 402.252585 591.925938 
L 402.252585 591.925938 
L 392.741222 591.925938 
L 392.741222 591.925938 
L 383.229858 591.925938 
L 383.229858 591.925938 
L 373.718494 591.925938 
L 373.718494 591.925938 
L 364.207131 591.925938 
L 364.207131 591.925938 
L 354.695767 591.925938 
L 354.695767 591.925938 
L 345.184403 591.925938 
L 345.184403 591.925938 
L 335.67304 591.925938 
L 335.67304 591.925938 
L 326.161676 591.925938 
L 326.161676 591.925938 
L 316.650313 591.925938 
L 316.650313 591.925938 
L 307.138949 591.925938 
L 307.138949 591.925938 
L 297.627585 591.925938 
L 297.627585 591.925938 
L 288.116222 591.925938 
L 288.116222 591.925938 
L 278.604858 591.925938 
L 278.604858 591.925938 
L 269.093494 591.925938 
L 269.093494 591.925938 
L 259.582131 591.925938 
L 259.582131 591.925938 
L 250.070767 591.925938 
L 250.070767 591.925938 
L 240.559403 591.925938 
L 240.559403 591.925938 
L 231.04804 591.925938 
L 231.04804 591.925938 
L 221.536676 591.925938 
L 221.536676 591.925938 
L 212.025313 591.925938 
L 212.025313 591.925938 
L 202.513949 591.925938 
L 202.513949 591.925938 
L 193.002585 591.925938 
L 193.002585 591.925938 
L 183.491222 591.925938 
L 183.491222 591.925938 
L 173.979858 591.925938 
L 173.979858 591.925938 
L 164.468494 591.925938 
L 164.468494 591.925938 
L 154.957131 591.925938 
L 154.957131 591.925938 
z
" style="fill:#39cc6e;"/>
   </g>
   <g id="patch_5">
    <path clip-path="url(#pa7ae06583a)" d="M 145.445767 591.925938 
L 145.445767 591.925938 
L 154.957131 591.925938 
L 154.957131 591.925938 
L 164.468494 591.925938 
L 164.468494 591.925938 
L 173.979858 591.925938 
L 173.979858 591.925938 
L 183.491222 591.925938 
L 183.491222 591.925938 
L 193.002585 591.925938 
L 193.002585 591.925938 
L 202.513949 591.925938 
L 202.513949 591.925938 
L 212.025313 591.925938 
L 212.025313 591.925938 
L 221.536676 591.925938 
L 221.536676 591.925938 
L 231.04804 591.925938 
L 231.04804 591.925938 
L 240.559403 591.925938 
L 240.559403 591.925938 
L 250.070767 591.925938 
L 250.070767 591.925938 
L 259.582131 591.925938 
L 259.582131 591.925938 
L 269.093494 591.925938 
L 269.093494 591.925938 
L 278.604858 591.925938 
L 278.604858 587.728254 
L 288.116222 587.728254 
L 288.116222 587.728254 
L 297.627585 587.728254 
L 297.627585 591.925938 
L 307.138949 591.925938 
L 307.138949 591.925938 
L 316.650313 591.925938 
L 316.650313 591.925938 
L 326.161676 591.925938 
L 326.161676 583.530571 
L 335.67304 583.530571 
L 335.67304 587.728254 
L 345.184403 587.728254 
L 345.184403 591.925938 
L 354.695767 591.925938 
L 354.695767 591.925938 
L 364.207131 591.925938 
L 364.207131 579.332887 
L 373.718494 579.332887 
L 373.718494 587.728254 
L 383.229858 587.728254 
L 383.229858 591.925938 
L 392.741222 591.925938 
L 392.741222 583.530571 
L 402.252585 583.530571 
L 402.252585 583.530571 
L 411.763949 583.530571 
L 411.763949 579.332887 
L 421.275313 579.332887 
L 421.275313 591.925938 
L 430.786676 591.925938 
L 430.786676 591.925938 
L 440.29804 591.925938 
L 440.29804 583.530571 
L 449.809403 583.530571 
L 449.809403 587.728254 
L 459.320767 587.728254 
L 459.320767 570.937521 
L 468.832131 570.937521 
L 468.832131 570.937521 
L 478.343494 570.937521 
L 478.343494 562.542154 
L 487.854858 562.542154 
L 487.854858 558.34447 
L 497.366222 558.34447 
L 497.366222 558.34447 
L 506.877585 558.34447 
L 506.877585 507.97227 
L 516.388949 507.97227 
L 516.388949 465.995436 
L 525.900313 465.995436 
L 525.900313 486.983853 
L 535.411676 486.983853 
L 535.411676 562.542154 
L 544.92304 562.542154 
L 544.92304 554.146787 
L 554.434403 554.146787 
L 554.434403 583.530571 
L 563.945767 583.530571 
L 563.945767 575.135204 
L 573.457131 575.135204 
L 573.457131 558.34447 
L 582.968494 558.34447 
L 582.968494 579.332887 
L 592.479858 579.332887 
L 592.479858 583.530571 
L 601.991222 583.530571 
L 601.991222 591.925938 
L 611.502585 591.925938 
L 611.502585 583.530571 
L 621.013949 583.530571 
L 621.013949 587.728254 
L 630.525313 587.728254 
L 630.525313 587.728254 
L 640.036676 587.728254 
L 640.036676 587.728254 
L 649.54804 587.728254 
L 649.54804 591.925938 
L 659.059403 591.925938 
L 659.059403 587.728254 
L 668.570767 587.728254 
L 668.570767 587.728254 
L 678.082131 587.728254 
L 678.082131 587.728254 
L 687.593494 587.728254 
L 687.593494 591.925938 
L 697.104858 591.925938 
L 697.104858 591.925938 
L 706.616222 591.925938 
L 706.616222 587.728254 
L 716.127585 587.728254 
L 716.127585 591.925938 
L 725.638949 591.925938 
L 725.638949 591.925938 
L 735.150312 591.925938 
L 735.150312 591.925938 
L 744.661676 591.925938 
L 744.661676 591.925938 
L 754.17304 591.925938 
L 754.17304 591.925938 
L 763.684403 591.925938 
L 763.684403 587.728254 
L 773.195767 587.728254 
L 773.195767 591.925938 
L 782.707131 591.925938 
L 782.707131 591.925938 
L 792.218494 591.925938 
L 792.218494 591.925938 
L 801.729858 591.925938 
L 801.729858 591.925938 
L 811.241222 591.925938 
L 811.241222 591.925938 
L 820.752585 591.925938 
L 820.752585 591.925938 
L 830.263949 591.925938 
L 830.263949 591.925938 
L 839.775312 591.925938 
L 839.775312 591.925938 
L 849.286676 591.925938 
L 849.286676 591.925938 
L 858.79804 591.925938 
L 858.79804 591.925938 
L 868.309403 591.925938 
L 868.309403 591.925938 
L 877.820767 591.925938 
L 877.820767 591.925938 
L 887.332131 591.925938 
L 887.332131 591.925938 
L 896.843494 591.925938 
L 896.843494 591.925938 
L 906.354858 591.925938 
L 906.354858 591.925938 
L 896.843494 591.925938 
L 896.843494 591.925938 
L 887.332131 591.925938 
L 887.332131 591.925938 
L 877.820767 591.925938 
L 877.820767 591.925938 
L 868.309403 591.925938 
L 868.309403 591.925938 
L 858.79804 591.925938 
L 858.79804 591.925938 
L 849.286676 591.925938 
L 849.286676 591.925938 
L 839.775312 591.925938 
L 839.775312 591.925938 
L 830.263949 591.925938 
L 830.263949 591.925938 
L 820.752585 591.925938 
L 820.752585 591.925938 
L 811.241222 591.925938 
L 811.241222 591.925938 
L 801.729858 591.925938 
L 801.729858 591.925938 
L 792.218494 591.925938 
L 792.218494 591.925938 
L 782.707131 591.925938 
L 782.707131 591.925938 
L 773.195767 591.925938 
L 773.195767 591.925938 
L 763.684403 591.925938 
L 763.684403 591.925938 
L 754.17304 591.925938 
L 754.17304 591.925938 
L 744.661676 591.925938 
L 744.661676 591.925938 
L 735.150312 591.925938 
L 735.150312 591.925938 
L 725.638949 591.925938 
L 725.638949 591.925938 
L 716.127585 591.925938 
L 716.127585 591.925938 
L 706.616222 591.925938 
L 706.616222 591.925938 
L 697.104858 591.925938 
L 697.104858 591.925938 
L 687.593494 591.925938 
L 687.593494 591.925938 
L 678.082131 591.925938 
L 678.082131 591.925938 
L 668.570767 591.925938 
L 668.570767 591.925938 
L 659.059403 591.925938 
L 659.059403 591.925938 
L 649.54804 591.925938 
L 649.54804 591.925938 
L 640.036676 591.925938 
L 640.036676 591.925938 
L 630.525313 591.925938 
L 630.525313 591.925938 
L 621.013949 591.925938 
L 621.013949 591.925938 
L 611.502585 591.925938 
L 611.502585 591.925938 
L 601.991222 591.925938 
L 601.991222 591.925938 
L 592.479858 591.925938 
L 592.479858 591.925938 
L 582.968494 591.925938 
L 582.968494 591.925938 
L 573.457131 591.925938 
L 573.457131 591.925938 
L 563.945767 591.925938 
L 563.945767 591.925938 
L 554.434403 591.925938 
L 554.434403 591.925938 
L 544.92304 591.925938 
L 544.92304 591.925938 
L 535.411676 591.925938 
L 535.411676 591.925938 
L 525.900313 591.925938 
L 525.900313 591.925938 
L 516.388949 591.925938 
L 516.388949 591.925938 
L 506.877585 591.925938 
L 506.877585 591.925938 
L 497.366222 591.925938 
L 497.366222 591.925938 
L 487.854858 591.925938 
L 487.854858 591.925938 
L 478.343494 591.925938 
L 478.343494 591.925938 
L 468.832131 591.925938 
L 468.832131 591.925938 
L 459.320767 591.925938 
L 459.320767 591.925938 
L 449.809403 591.925938 
L 449.809403 591.925938 
L 440.29804 591.925938 
L 440.29804 591.925938 
L 430.786676 591.925938 
L 430.786676 591.925938 
L 421.275313 591.925938 
L 421.275313 591.925938 
L 411.763949 591.925938 
L 411.763949 591.925938 
L 402.252585 591.925938 
L 402.252585 591.925938 
L 392.741222 591.925938 
L 392.741222 591.925938 
L 383.229858 591.925938 
L 383.229858 591.925938 
L 373.718494 591.925938 
L 373.718494 591.925938 
L 364.207131 591.925938 
L 364.207131 591.925938 
L 354.695767 591.925938 
L 354.695767 591.925938 
L 345.184403 591.925938 
L 345.184403 591.925938 
L 335.67304 591.925938 
L 335.67304 591.925938 
L 326.161676 591.925938 
L 326.161676 591.925938 
L 316.650313 591.925938 
L 316.650313 591.925938 
L 307.138949 591.925938 
L 307.138949 591.925938 
L 297.627585 591.925938 
L 297.627585 591.925938 
L 288.116222 591.925938 
L 288.116222 591.925938 
L 278.604858 591.925938 
L 278.604858 591.925938 
L 269.093494 591.925938 
L 269.093494 591.925938 
L 259.582131 591.925938 
L 259.582131 591.925938 
L 250.070767 591.925938 
L 250.070767 591.925938 
L 240.559403 591.925938 
L 240.559403 591.925938 
L 231.04804 591.925938 
L 231.04804 591.925938 
L 221.536676 591.925938 
L 221.536676 591.925938 
L 212.025313 591.925938 
L 212.025313 591.925938 
L 202.513949 591.925938 
L 202.513949 591.925938 
L 193.002585 591.925938 
L 193.002585 591.925938 
L 183.491222 591.925938 
L 183.491222 591.925938 
L 173.979858 591.925938 
L 173.979858 591.925938 
L 164.468494 591.925938 
L 164.468494 591.925938 
L 154.957131 591.925938 
L 154.957131 591.925938 
z
" style="fill:#f8ed73;"/>
   </g>
   <g id="matplotlib.axis_1">
    <g id="xtick_1">
     <g id="line2d_1">
      <defs>
       <path d="M 0 0 
L 0 3.5 
" id="m712a89f21d" style="stroke:#000000;stroke-width:0.8;"/>
      </defs>
      <g>
       <use style="stroke:#000000;stroke-width:0.8;" x="145.445767" xlink:href="#m712a89f21d" y="591.925938"/>
      </g>
     </g>
     <g id="text_1">
      <!-- −0.10 -->
      <defs>
       <path d="M 10.59375 35.5 
L 73.1875 35.5 
L 73.1875 27.203125 
L 10.59375 27.203125 
z
" id="DejaVuSans-8722"/>
       <path d="M 31.78125 66.40625 
Q 24.171875 66.40625 20.328125 58.90625 
Q 16.5 51.421875 16.5 36.375 
Q 16.5 21.390625 20.328125 13.890625 
Q 24.171875 6.390625 31.78125 6.390625 
Q 39.453125 6.390625 43.28125 13.890625 
Q 47.125 21.390625 47.125 36.375 
Q 47.125 51.421875 43.28125 58.90625 
Q 39.453125 66.40625 31.78125 66.40625 
z
M 31.78125 74.21875 
Q 44.046875 74.21875 50.515625 64.515625 
Q 56.984375 54.828125 56.984375 36.375 
Q 56.984375 17.96875 50.515625 8.265625 
Q 44.046875 -1.421875 31.78125 -1.421875 
Q 19.53125 -1.421875 13.0625 8.265625 
Q 6.59375 17.96875 6.59375 36.375 
Q 6.59375 54.828125 13.0625 64.515625 
Q 19.53125 74.21875 31.78125 74.21875 
z
" id="DejaVuSans-48"/>
       <path d="M 10.6875 12.40625 
L 21 12.40625 
L 21 0 
L 10.6875 0 
z
" id="DejaVuSans-46"/>
       <path d="M 12.40625 8.296875 
L 28.515625 8.296875 
L 28.515625 63.921875 
L 10.984375 60.40625 
L 10.984375 69.390625 
L 28.421875 72.90625 
L 38.28125 72.90625 
L 38.28125 8.296875 
L 54.390625 8.296875 
L 54.390625 0 
L 12.40625 0 
z
" id="DejaVuSans-49"/>
      </defs>
      <g transform="translate(99.477798 621.72125)scale(0.3 -0.3)">
       <use xlink:href="#DejaVuSans-8722"/>
       <use x="83.789062" xlink:href="#DejaVuSans-48"/>
       <use x="147.412109" xlink:href="#DejaVuSans-46"/>
       <use x="179.199219" xlink:href="#DejaVuSans-49"/>
       <use x="242.822266" xlink:href="#DejaVuSans-48"/>
      </g>
     </g>
    </g>
    <g id="xtick_2">
     <g id="line2d_2">
      <g>
       <use style="stroke:#000000;stroke-width:0.8;" x="335.67304" xlink:href="#m712a89f21d" y="591.925938"/>
      </g>
     </g>
     <g id="text_2">
      <!-- −0.05 -->
      <defs>
       <path d="M 10.796875 72.90625 
L 49.515625 72.90625 
L 49.515625 64.59375 
L 19.828125 64.59375 
L 19.828125 46.734375 
Q 21.96875 47.46875 24.109375 47.828125 
Q 26.265625 48.1875 28.421875 48.1875 
Q 40.625 48.1875 47.75 41.5 
Q 54.890625 34.8125 54.890625 23.390625 
Q 54.890625 11.625 47.5625 5.09375 
Q 40.234375 -1.421875 26.90625 -1.421875 
Q 22.3125 -1.421875 17.546875 -0.640625 
Q 12.796875 0.140625 7.71875 1.703125 
L 7.71875 11.625 
Q 12.109375 9.234375 16.796875 8.0625 
Q 21.484375 6.890625 26.703125 6.890625 
Q 35.15625 6.890625 40.078125 11.328125 
Q 45.015625 15.765625 45.015625 23.390625 
Q 45.015625 31 40.078125 35.4375 
Q 35.15625 39.890625 26.703125 39.890625 
Q 22.75 39.890625 18.8125 39.015625 
Q 14.890625 38.140625 10.796875 36.28125 
z
" id="DejaVuSans-53"/>
      </defs>
      <g transform="translate(289.705071 621.72125)scale(0.3 -0.3)">
       <use xlink:href="#DejaVuSans-8722"/>
       <use x="83.789062" xlink:href="#DejaVuSans-48"/>
       <use x="147.412109" xlink:href="#DejaVuSans-46"/>
       <use x="179.199219" xlink:href="#DejaVuSans-48"/>
       <use x="242.822266" xlink:href="#DejaVuSans-53"/>
      </g>
     </g>
    </g>
    <g id="xtick_3">
     <g id="line2d_3">
      <g>
       <use style="stroke:#000000;stroke-width:0.8;" x="525.900313" xlink:href="#m712a89f21d" y="591.925938"/>
      </g>
     </g>
     <g id="text_3">
      <!-- 0.00 -->
      <g transform="translate(492.501875 621.72125)scale(0.3 -0.3)">
       <use xlink:href="#DejaVuSans-48"/>
       <use x="63.623047" xlink:href="#DejaVuSans-46"/>
       <use x="95.410156" xlink:href="#DejaVuSans-48"/>
       <use x="159.033203" xlink:href="#DejaVuSans-48"/>
      </g>
     </g>
    </g>
    <g id="xtick_4">
     <g id="line2d_4">
      <g>
       <use style="stroke:#000000;stroke-width:0.8;" x="716.127585" xlink:href="#m712a89f21d" y="591.925938"/>
      </g>
     </g>
     <g id="text_4">
      <!-- 0.05 -->
      <g transform="translate(682.729148 621.72125)scale(0.3 -0.3)">
       <use xlink:href="#DejaVuSans-48"/>
       <use x="63.623047" xlink:href="#DejaVuSans-46"/>
       <use x="95.410156" xlink:href="#DejaVuSans-48"/>
       <use x="159.033203" xlink:href="#DejaVuSans-53"/>
      </g>
     </g>
    </g>
    <g id="xtick_5">
     <g id="line2d_5">
      <g>
       <use style="stroke:#000000;stroke-width:0.8;" x="906.354858" xlink:href="#m712a89f21d" y="591.925938"/>
      </g>
     </g>
     <g id="text_5">
      <!-- 0.10 -->
      <g transform="translate(872.95642 621.72125)scale(0.3 -0.3)">
       <use xlink:href="#DejaVuSans-48"/>
       <use x="63.623047" xlink:href="#DejaVuSans-46"/>
       <use x="95.410156" xlink:href="#DejaVuSans-49"/>
       <use x="159.033203" xlink:href="#DejaVuSans-48"/>
      </g>
     </g>
    </g>
    <g id="text_6">
     <!-- $\Delta E = E^{SCAN} - E^{GGA}$ (eV/atom) -->
     <defs>
      <path d="M 34.1875 63.1875 
L 14.15625 8.203125 
L 54.25 8.203125 
z
M 0.78125 0 
L 28.609375 72.90625 
L 39.796875 72.90625 
L 67.578125 0 
z
" id="DejaVuSans-916"/>
      <path d="M 16.890625 72.90625 
L 62.984375 72.90625 
L 61.375 64.59375 
L 25.09375 64.59375 
L 20.90625 43.015625 
L 55.71875 43.015625 
L 54.109375 34.71875 
L 19.28125 34.71875 
L 14.203125 8.296875 
L 51.3125 8.296875 
L 49.703125 0 
L 2.6875 0 
z
" id="DejaVuSans-Oblique-69"/>
      <path d="M 10.59375 45.40625 
L 73.1875 45.40625 
L 73.1875 37.203125 
L 10.59375 37.203125 
z
M 10.59375 25.484375 
L 73.1875 25.484375 
L 73.1875 17.1875 
L 10.59375 17.1875 
z
" id="DejaVuSans-61"/>
      <path d="M 60.296875 70.515625 
L 58.40625 60.890625 
Q 53.46875 63.53125 48.609375 64.875 
Q 43.75 66.21875 39.203125 66.21875 
Q 30.375 66.21875 25.140625 62.359375 
Q 19.921875 58.5 19.921875 52.09375 
Q 19.921875 48.578125 21.84375 46.703125 
Q 23.78125 44.828125 31.78125 42.671875 
L 37.703125 41.21875 
Q 47.703125 38.625 51.609375 34.640625 
Q 55.515625 30.671875 55.515625 23.484375 
Q 55.515625 12.453125 46.84375 5.515625 
Q 38.1875 -1.421875 24.03125 -1.421875 
Q 18.21875 -1.421875 12.359375 -0.265625 
Q 6.5 0.875 0.59375 3.21875 
L 2.59375 13.375 
Q 8.015625 10.015625 13.453125 8.296875 
Q 18.890625 6.59375 24.3125 6.59375 
Q 33.546875 6.59375 39.109375 10.6875 
Q 44.671875 14.796875 44.671875 21.390625 
Q 44.671875 25.78125 42.453125 28.046875 
Q 40.234375 30.328125 32.90625 32.171875 
L 27 33.6875 
Q 16.890625 36.328125 13.203125 39.765625 
Q 9.515625 43.21875 9.515625 49.421875 
Q 9.515625 60.296875 17.890625 67.25 
Q 26.265625 74.21875 39.703125 74.21875 
Q 44.921875 74.21875 50.046875 73.28125 
Q 55.171875 72.359375 60.296875 70.515625 
z
" id="DejaVuSans-Oblique-83"/>
      <path d="M 69.484375 67.28125 
L 67.484375 56.890625 
Q 62.796875 61.625 57.546875 63.921875 
Q 52.296875 66.21875 46.1875 66.21875 
Q 37.84375 66.21875 31.515625 62.203125 
Q 25.203125 58.203125 20.609375 50 
Q 17.671875 44.734375 16.125 38.84375 
Q 14.59375 32.953125 14.59375 27 
Q 14.59375 17.046875 19.75 11.8125 
Q 24.90625 6.59375 34.71875 6.59375 
Q 41.5 6.59375 47.75 8.765625 
Q 54 10.9375 59.90625 15.28125 
L 57.625 3.609375 
Q 51.8125 1.125 45.875 -0.140625 
Q 39.9375 -1.421875 33.984375 -1.421875 
Q 19.96875 -1.421875 12.078125 6.1875 
Q 4.203125 13.8125 4.203125 27.390625 
Q 4.203125 36.078125 7.203125 44.46875 
Q 10.203125 52.875 15.828125 59.8125 
Q 21.78125 67.1875 29.421875 70.703125 
Q 37.0625 74.21875 47.21875 74.21875 
Q 53.46875 74.21875 59.0625 72.484375 
Q 64.65625 70.75 69.484375 67.28125 
z
" id="DejaVuSans-Oblique-67"/>
      <path d="M 36.8125 72.90625 
L 48 72.90625 
L 61.53125 0 
L 51.21875 0 
L 48.1875 18.703125 
L 15.375 18.703125 
L 5.078125 0 
L -5.328125 0 
z
M 40.375 63.1875 
L 19.921875 26.90625 
L 46.6875 26.90625 
z
" id="DejaVuSans-Oblique-65"/>
      <path d="M 16.890625 72.90625 
L 30.171875 72.90625 
L 50.296875 10.40625 
L 62.5 72.90625 
L 72.125 72.90625 
L 57.90625 0 
L 44.578125 0 
L 24.515625 62.890625 
L 12.3125 0 
L 2.6875 0 
z
" id="DejaVuSans-Oblique-78"/>
      <path d="M 54.59375 10.890625 
L 58.40625 29.984375 
L 42.1875 29.984375 
L 43.703125 38.09375 
L 69.578125 38.09375 
L 63.28125 6 
Q 56.78125 2.4375 49.109375 0.5 
Q 41.453125 -1.421875 33.6875 -1.421875 
Q 19.96875 -1.421875 12.234375 6.1875 
Q 4.5 13.8125 4.5 27.390625 
Q 4.5 38.671875 9.203125 48.84375 
Q 13.921875 59.03125 22.21875 65.828125 
Q 27.4375 70.0625 33.640625 72.140625 
Q 39.84375 74.21875 47.40625 74.21875 
Q 54.25 74.21875 60.515625 72.484375 
Q 66.796875 70.75 72.515625 67.28125 
L 70.515625 56.78125 
Q 66.109375 61.375 60.203125 63.796875 
Q 54.296875 66.21875 47.609375 66.21875 
Q 39.84375 66.21875 33.9375 63.25 
Q 28.03125 60.296875 23.390625 54.109375 
Q 19.4375 48.828125 17.15625 41.671875 
Q 14.890625 34.515625 14.890625 27.09375 
Q 14.890625 16.890625 20.109375 11.734375 
Q 25.34375 6.59375 35.6875 6.59375 
Q 40.875 6.59375 45.703125 7.6875 
Q 50.53125 8.796875 54.59375 10.890625 
z
" id="DejaVuSans-Oblique-71"/>
      <path id="DejaVuSans-32"/>
      <path d="M 31 75.875 
Q 24.46875 64.65625 21.28125 53.65625 
Q 18.109375 42.671875 18.109375 31.390625 
Q 18.109375 20.125 21.3125 9.0625 
Q 24.515625 -2 31 -13.1875 
L 23.1875 -13.1875 
Q 15.875 -1.703125 12.234375 9.375 
Q 8.59375 20.453125 8.59375 31.390625 
Q 8.59375 42.28125 12.203125 53.3125 
Q 15.828125 64.359375 23.1875 75.875 
z
" id="DejaVuSans-40"/>
      <path d="M 56.203125 29.59375 
L 56.203125 25.203125 
L 14.890625 25.203125 
Q 15.484375 15.921875 20.484375 11.0625 
Q 25.484375 6.203125 34.421875 6.203125 
Q 39.59375 6.203125 44.453125 7.46875 
Q 49.3125 8.734375 54.109375 11.28125 
L 54.109375 2.78125 
Q 49.265625 0.734375 44.1875 -0.34375 
Q 39.109375 -1.421875 33.890625 -1.421875 
Q 20.796875 -1.421875 13.15625 6.1875 
Q 5.515625 13.8125 5.515625 26.8125 
Q 5.515625 40.234375 12.765625 48.109375 
Q 20.015625 56 32.328125 56 
Q 43.359375 56 49.78125 48.890625 
Q 56.203125 41.796875 56.203125 29.59375 
z
M 47.21875 32.234375 
Q 47.125 39.59375 43.09375 43.984375 
Q 39.0625 48.390625 32.421875 48.390625 
Q 24.90625 48.390625 20.390625 44.140625 
Q 15.875 39.890625 15.1875 32.171875 
z
" id="DejaVuSans-101"/>
      <path d="M 28.609375 0 
L 0.78125 72.90625 
L 11.078125 72.90625 
L 34.1875 11.53125 
L 57.328125 72.90625 
L 67.578125 72.90625 
L 39.796875 0 
z
" id="DejaVuSans-86"/>
      <path d="M 25.390625 72.90625 
L 33.6875 72.90625 
L 8.296875 -9.28125 
L 0 -9.28125 
z
" id="DejaVuSans-47"/>
      <path d="M 34.28125 27.484375 
Q 23.390625 27.484375 19.1875 25 
Q 14.984375 22.515625 14.984375 16.5 
Q 14.984375 11.71875 18.140625 8.90625 
Q 21.296875 6.109375 26.703125 6.109375 
Q 34.1875 6.109375 38.703125 11.40625 
Q 43.21875 16.703125 43.21875 25.484375 
L 43.21875 27.484375 
z
M 52.203125 31.203125 
L 52.203125 0 
L 43.21875 0 
L 43.21875 8.296875 
Q 40.140625 3.328125 35.546875 0.953125 
Q 30.953125 -1.421875 24.3125 -1.421875 
Q 15.921875 -1.421875 10.953125 3.296875 
Q 6 8.015625 6 15.921875 
Q 6 25.140625 12.171875 29.828125 
Q 18.359375 34.515625 30.609375 34.515625 
L 43.21875 34.515625 
L 43.21875 35.40625 
Q 43.21875 41.609375 39.140625 45 
Q 35.0625 48.390625 27.6875 48.390625 
Q 23 48.390625 18.546875 47.265625 
Q 14.109375 46.140625 10.015625 43.890625 
L 10.015625 52.203125 
Q 14.9375 54.109375 19.578125 55.046875 
Q 24.21875 56 28.609375 56 
Q 40.484375 56 46.34375 49.84375 
Q 52.203125 43.703125 52.203125 31.203125 
z
" id="DejaVuSans-97"/>
      <path d="M 18.3125 70.21875 
L 18.3125 54.6875 
L 36.8125 54.6875 
L 36.8125 47.703125 
L 18.3125 47.703125 
L 18.3125 18.015625 
Q 18.3125 11.328125 20.140625 9.421875 
Q 21.96875 7.515625 27.59375 7.515625 
L 36.8125 7.515625 
L 36.8125 0 
L 27.59375 0 
Q 17.1875 0 13.234375 3.875 
Q 9.28125 7.765625 9.28125 18.015625 
L 9.28125 47.703125 
L 2.6875 47.703125 
L 2.6875 54.6875 
L 9.28125 54.6875 
L 9.28125 70.21875 
z
" id="DejaVuSans-116"/>
      <path d="M 30.609375 48.390625 
Q 23.390625 48.390625 19.1875 42.75 
Q 14.984375 37.109375 14.984375 27.296875 
Q 14.984375 17.484375 19.15625 11.84375 
Q 23.34375 6.203125 30.609375 6.203125 
Q 37.796875 6.203125 41.984375 11.859375 
Q 46.1875 17.53125 46.1875 27.296875 
Q 46.1875 37.015625 41.984375 42.703125 
Q 37.796875 48.390625 30.609375 48.390625 
z
M 30.609375 56 
Q 42.328125 56 49.015625 48.375 
Q 55.71875 40.765625 55.71875 27.296875 
Q 55.71875 13.875 49.015625 6.21875 
Q 42.328125 -1.421875 30.609375 -1.421875 
Q 18.84375 -1.421875 12.171875 6.21875 
Q 5.515625 13.875 5.515625 27.296875 
Q 5.515625 40.765625 12.171875 48.375 
Q 18.84375 56 30.609375 56 
z
" id="DejaVuSans-111"/>
      <path d="M 52 44.1875 
Q 55.375 50.25 60.0625 53.125 
Q 64.75 56 71.09375 56 
Q 79.640625 56 84.28125 50.015625 
Q 88.921875 44.046875 88.921875 33.015625 
L 88.921875 0 
L 79.890625 0 
L 79.890625 32.71875 
Q 79.890625 40.578125 77.09375 44.375 
Q 74.3125 48.1875 68.609375 48.1875 
Q 61.625 48.1875 57.5625 43.546875 
Q 53.515625 38.921875 53.515625 30.90625 
L 53.515625 0 
L 44.484375 0 
L 44.484375 32.71875 
Q 44.484375 40.625 41.703125 44.40625 
Q 38.921875 48.1875 33.109375 48.1875 
Q 26.21875 48.1875 22.15625 43.53125 
Q 18.109375 38.875 18.109375 30.90625 
L 18.109375 0 
L 9.078125 0 
L 9.078125 54.6875 
L 18.109375 54.6875 
L 18.109375 46.1875 
Q 21.1875 51.21875 25.484375 53.609375 
Q 29.78125 56 35.6875 56 
Q 41.65625 56 45.828125 52.96875 
Q 50 49.953125 52 44.1875 
z
" id="DejaVuSans-109"/>
      <path d="M 8.015625 75.875 
L 15.828125 75.875 
Q 23.140625 64.359375 26.78125 53.3125 
Q 30.421875 42.28125 30.421875 31.390625 
Q 30.421875 20.453125 26.78125 9.375 
Q 23.140625 -1.703125 15.828125 -13.1875 
L 8.015625 -13.1875 
Q 14.5 -2 17.703125 9.0625 
Q 20.90625 20.125 20.90625 31.390625 
Q 20.90625 42.671875 17.703125 53.65625 
Q 14.5 64.65625 8.015625 75.875 
z
" id="DejaVuSans-41"/>
     </defs>
     <g transform="translate(293.910313 659.747344)scale(0.33 -0.33)">
      <use transform="translate(0 0.765625)" xlink:href="#DejaVuSans-916"/>
      <use transform="translate(68.408203 0.765625)" xlink:href="#DejaVuSans-Oblique-69"/>
      <use transform="translate(151.074219 0.765625)" xlink:href="#DejaVuSans-61"/>
      <use transform="translate(254.345703 0.765625)" xlink:href="#DejaVuSans-Oblique-69"/>
      <use transform="translate(324.546068 39.046875)scale(0.7)" xlink:href="#DejaVuSans-Oblique-83"/>
      <use transform="translate(368.979661 39.046875)scale(0.7)" xlink:href="#DejaVuSans-Oblique-67"/>
      <use transform="translate(417.856615 39.046875)scale(0.7)" xlink:href="#DejaVuSans-Oblique-65"/>
      <use transform="translate(465.742357 39.046875)scale(0.7)" xlink:href="#DejaVuSans-Oblique-78"/>
      <use transform="translate(540.322435 0.765625)" xlink:href="#DejaVuSans-8722"/>
      <use transform="translate(643.593919 0.765625)" xlink:href="#DejaVuSans-Oblique-69"/>
      <use transform="translate(713.794284 39.046875)scale(0.7)" xlink:href="#DejaVuSans-Oblique-71"/>
      <use transform="translate(768.037448 39.046875)scale(0.7)" xlink:href="#DejaVuSans-Oblique-71"/>
      <use transform="translate(822.280612 39.046875)scale(0.7)" xlink:href="#DejaVuSans-Oblique-65"/>
      <use transform="translate(872.900729 0.765625)" xlink:href="#DejaVuSans-32"/>
      <use transform="translate(904.687839 0.765625)" xlink:href="#DejaVuSans-40"/>
      <use transform="translate(943.70151 0.765625)" xlink:href="#DejaVuSans-101"/>
      <use transform="translate(1005.224948 0.765625)" xlink:href="#DejaVuSans-86"/>
      <use transform="translate(1073.633151 0.765625)" xlink:href="#DejaVuSans-47"/>
      <use transform="translate(1107.324557 0.765625)" xlink:href="#DejaVuSans-97"/>
      <use transform="translate(1168.603854 0.765625)" xlink:href="#DejaVuSans-116"/>
      <use transform="translate(1207.812839 0.765625)" xlink:href="#DejaVuSans-111"/>
      <use transform="translate(1268.994479 0.765625)" xlink:href="#DejaVuSans-109"/>
      <use transform="translate(1366.406589 0.765625)" xlink:href="#DejaVuSans-41"/>
     </g>
    </g>
   </g>
   <g id="matplotlib.axis_2">
    <g id="ytick_1">
     <g id="line2d_6">
      <defs>
       <path d="M 0 0 
L -3.5 0 
" id="mff0cc98e4d" style="stroke:#000000;stroke-width:0.8;"/>
      </defs>
      <g>
       <use style="stroke:#000000;stroke-width:0.8;" x="107.400312" xlink:href="#mff0cc98e4d" y="591.925938"/>
      </g>
     </g>
     <g id="text_7">
      <!-- 0 -->
      <g transform="translate(81.312813 603.323594)scale(0.3 -0.3)">
       <use xlink:href="#DejaVuSans-48"/>
      </g>
     </g>
    </g>
    <g id="ytick_2">
     <g id="line2d_7">
      <g>
       <use style="stroke:#000000;stroke-width:0.8;" x="107.400312" xlink:href="#mff0cc98e4d" y="507.97227"/>
      </g>
     </g>
     <g id="text_8">
      <!-- 20 -->
      <defs>
       <path d="M 19.1875 8.296875 
L 53.609375 8.296875 
L 53.609375 0 
L 7.328125 0 
L 7.328125 8.296875 
Q 12.9375 14.109375 22.625 23.890625 
Q 32.328125 33.6875 34.8125 36.53125 
Q 39.546875 41.84375 41.421875 45.53125 
Q 43.3125 49.21875 43.3125 52.78125 
Q 43.3125 58.59375 39.234375 62.25 
Q 35.15625 65.921875 28.609375 65.921875 
Q 23.96875 65.921875 18.8125 64.3125 
Q 13.671875 62.703125 7.8125 59.421875 
L 7.8125 69.390625 
Q 13.765625 71.78125 18.9375 73 
Q 24.125 74.21875 28.421875 74.21875 
Q 39.75 74.21875 46.484375 68.546875 
Q 53.21875 62.890625 53.21875 53.421875 
Q 53.21875 48.921875 51.53125 44.890625 
Q 49.859375 40.875 45.40625 35.40625 
Q 44.1875 33.984375 37.640625 27.21875 
Q 31.109375 20.453125 19.1875 8.296875 
z
" id="DejaVuSans-50"/>
      </defs>
      <g transform="translate(62.225313 519.369926)scale(0.3 -0.3)">
       <use xlink:href="#DejaVuSans-50"/>
       <use x="63.623047" xlink:href="#DejaVuSans-48"/>
      </g>
     </g>
    </g>
    <g id="ytick_3">
     <g id="line2d_8">
      <g>
       <use style="stroke:#000000;stroke-width:0.8;" x="107.400312" xlink:href="#mff0cc98e4d" y="424.018602"/>
      </g>
     </g>
     <g id="text_9">
      <!-- 40 -->
      <defs>
       <path d="M 37.796875 64.3125 
L 12.890625 25.390625 
L 37.796875 25.390625 
z
M 35.203125 72.90625 
L 47.609375 72.90625 
L 47.609375 25.390625 
L 58.015625 25.390625 
L 58.015625 17.1875 
L 47.609375 17.1875 
L 47.609375 0 
L 37.796875 0 
L 37.796875 17.1875 
L 4.890625 17.1875 
L 4.890625 26.703125 
z
" id="DejaVuSans-52"/>
      </defs>
      <g transform="translate(62.225313 435.416258)scale(0.3 -0.3)">
       <use xlink:href="#DejaVuSans-52"/>
       <use x="63.623047" xlink:href="#DejaVuSans-48"/>
      </g>
     </g>
    </g>
    <g id="ytick_4">
     <g id="line2d_9">
      <g>
       <use style="stroke:#000000;stroke-width:0.8;" x="107.400312" xlink:href="#mff0cc98e4d" y="340.064934"/>
      </g>
     </g>
     <g id="text_10">
      <!-- 60 -->
      <defs>
       <path d="M 33.015625 40.375 
Q 26.375 40.375 22.484375 35.828125 
Q 18.609375 31.296875 18.609375 23.390625 
Q 18.609375 15.53125 22.484375 10.953125 
Q 26.375 6.390625 33.015625 6.390625 
Q 39.65625 6.390625 43.53125 10.953125 
Q 47.40625 15.53125 47.40625 23.390625 
Q 47.40625 31.296875 43.53125 35.828125 
Q 39.65625 40.375 33.015625 40.375 
z
M 52.59375 71.296875 
L 52.59375 62.3125 
Q 48.875 64.0625 45.09375 64.984375 
Q 41.3125 65.921875 37.59375 65.921875 
Q 27.828125 65.921875 22.671875 59.328125 
Q 17.53125 52.734375 16.796875 39.40625 
Q 19.671875 43.65625 24.015625 45.921875 
Q 28.375 48.1875 33.59375 48.1875 
Q 44.578125 48.1875 50.953125 41.515625 
Q 57.328125 34.859375 57.328125 23.390625 
Q 57.328125 12.15625 50.6875 5.359375 
Q 44.046875 -1.421875 33.015625 -1.421875 
Q 20.359375 -1.421875 13.671875 8.265625 
Q 6.984375 17.96875 6.984375 36.375 
Q 6.984375 53.65625 15.1875 63.9375 
Q 23.390625 74.21875 37.203125 74.21875 
Q 40.921875 74.21875 44.703125 73.484375 
Q 48.484375 72.75 52.59375 71.296875 
z
" id="DejaVuSans-54"/>
      </defs>
      <g transform="translate(62.225313 351.46259)scale(0.3 -0.3)">
       <use xlink:href="#DejaVuSans-54"/>
       <use x="63.623047" xlink:href="#DejaVuSans-48"/>
      </g>
     </g>
    </g>
    <g id="ytick_5">
     <g id="line2d_10">
      <g>
       <use style="stroke:#000000;stroke-width:0.8;" x="107.400312" xlink:href="#mff0cc98e4d" y="256.111266"/>
      </g>
     </g>
     <g id="text_11">
      <!-- 80 -->
      <defs>
       <path d="M 31.78125 34.625 
Q 24.75 34.625 20.71875 30.859375 
Q 16.703125 27.09375 16.703125 20.515625 
Q 16.703125 13.921875 20.71875 10.15625 
Q 24.75 6.390625 31.78125 6.390625 
Q 38.8125 6.390625 42.859375 10.171875 
Q 46.921875 13.96875 46.921875 20.515625 
Q 46.921875 27.09375 42.890625 30.859375 
Q 38.875 34.625 31.78125 34.625 
z
M 21.921875 38.8125 
Q 15.578125 40.375 12.03125 44.71875 
Q 8.5 49.078125 8.5 55.328125 
Q 8.5 64.0625 14.71875 69.140625 
Q 20.953125 74.21875 31.78125 74.21875 
Q 42.671875 74.21875 48.875 69.140625 
Q 55.078125 64.0625 55.078125 55.328125 
Q 55.078125 49.078125 51.53125 44.71875 
Q 48 40.375 41.703125 38.8125 
Q 48.828125 37.15625 52.796875 32.3125 
Q 56.78125 27.484375 56.78125 20.515625 
Q 56.78125 9.90625 50.3125 4.234375 
Q 43.84375 -1.421875 31.78125 -1.421875 
Q 19.734375 -1.421875 13.25 4.234375 
Q 6.78125 9.90625 6.78125 20.515625 
Q 6.78125 27.484375 10.78125 32.3125 
Q 14.796875 37.15625 21.921875 38.8125 
z
M 18.3125 54.390625 
Q 18.3125 48.734375 21.84375 45.5625 
Q 25.390625 42.390625 31.78125 42.390625 
Q 38.140625 42.390625 41.71875 45.5625 
Q 45.3125 48.734375 45.3125 54.390625 
Q 45.3125 60.0625 41.71875 63.234375 
Q 38.140625 66.40625 31.78125 66.40625 
Q 25.390625 66.40625 21.84375 63.234375 
Q 18.3125 60.0625 18.3125 54.390625 
z
" id="DejaVuSans-56"/>
      </defs>
      <g transform="translate(62.225313 267.508922)scale(0.3 -0.3)">
       <use xlink:href="#DejaVuSans-56"/>
       <use x="63.623047" xlink:href="#DejaVuSans-48"/>
      </g>
     </g>
    </g>
    <g id="ytick_6">
     <g id="line2d_11">
      <g>
       <use style="stroke:#000000;stroke-width:0.8;" x="107.400312" xlink:href="#mff0cc98e4d" y="172.157598"/>
      </g>
     </g>
     <g id="text_12">
      <!-- 100 -->
      <g transform="translate(43.137813 183.555254)scale(0.3 -0.3)">
       <use xlink:href="#DejaVuSans-49"/>
       <use x="63.623047" xlink:href="#DejaVuSans-48"/>
       <use x="127.246094" xlink:href="#DejaVuSans-48"/>
      </g>
     </g>
    </g>
    <g id="text_13">
     <!-- Count -->
     <defs>
      <path d="M 64.40625 67.28125 
L 64.40625 56.890625 
Q 59.421875 61.53125 53.78125 63.8125 
Q 48.140625 66.109375 41.796875 66.109375 
Q 29.296875 66.109375 22.65625 58.46875 
Q 16.015625 50.828125 16.015625 36.375 
Q 16.015625 21.96875 22.65625 14.328125 
Q 29.296875 6.6875 41.796875 6.6875 
Q 48.140625 6.6875 53.78125 8.984375 
Q 59.421875 11.28125 64.40625 15.921875 
L 64.40625 5.609375 
Q 59.234375 2.09375 53.4375 0.328125 
Q 47.65625 -1.421875 41.21875 -1.421875 
Q 24.65625 -1.421875 15.125 8.703125 
Q 5.609375 18.84375 5.609375 36.375 
Q 5.609375 53.953125 15.125 64.078125 
Q 24.65625 74.21875 41.21875 74.21875 
Q 47.75 74.21875 53.53125 72.484375 
Q 59.328125 70.75 64.40625 67.28125 
z
" id="DejaVuSans-67"/>
      <path d="M 8.5 21.578125 
L 8.5 54.6875 
L 17.484375 54.6875 
L 17.484375 21.921875 
Q 17.484375 14.15625 20.5 10.265625 
Q 23.53125 6.390625 29.59375 6.390625 
Q 36.859375 6.390625 41.078125 11.03125 
Q 45.3125 15.671875 45.3125 23.6875 
L 45.3125 54.6875 
L 54.296875 54.6875 
L 54.296875 0 
L 45.3125 0 
L 45.3125 8.40625 
Q 42.046875 3.421875 37.71875 1 
Q 33.40625 -1.421875 27.6875 -1.421875 
Q 18.265625 -1.421875 13.375 4.4375 
Q 8.5 10.296875 8.5 21.578125 
z
M 31.109375 56 
z
" id="DejaVuSans-117"/>
      <path d="M 54.890625 33.015625 
L 54.890625 0 
L 45.90625 0 
L 45.90625 32.71875 
Q 45.90625 40.484375 42.875 44.328125 
Q 39.84375 48.1875 33.796875 48.1875 
Q 26.515625 48.1875 22.3125 43.546875 
Q 18.109375 38.921875 18.109375 30.90625 
L 18.109375 0 
L 9.078125 0 
L 9.078125 54.6875 
L 18.109375 54.6875 
L 18.109375 46.1875 
Q 21.34375 51.125 25.703125 53.5625 
Q 30.078125 56 35.796875 56 
Q 45.21875 56 50.046875 50.171875 
Q 54.890625 44.34375 54.890625 33.015625 
z
" id="DejaVuSans-110"/>
     </defs>
     <g transform="translate(32.274844 396.305781)rotate(-90)scale(0.33 -0.33)">
      <use xlink:href="#DejaVuSans-67"/>
      <use x="69.824219" xlink:href="#DejaVuSans-111"/>
      <use x="131.005859" xlink:href="#DejaVuSans-117"/>
      <use x="194.384766" xlink:href="#DejaVuSans-110"/>
      <use x="257.763672" xlink:href="#DejaVuSans-116"/>
     </g>
    </g>
   </g>
   <g id="line2d_12">
    <path clip-path="url(#pa7ae06583a)" d="M 525.900313 591.925938 
L 525.900313 102.685938 
" style="fill:none;stroke:#000000;stroke-dasharray:7.4,3.2;stroke-dashoffset:0;stroke-width:2;"/>
   </g>
   <g id="patch_6">
    <path d="M 107.400312 591.925938 
L 107.400312 102.685938 
" style="fill:none;stroke:#000000;stroke-linecap:square;stroke-linejoin:miter;stroke-width:0.8;"/>
   </g>
   <g id="patch_7">
    <path d="M 944.400313 591.925938 
L 944.400313 102.685938 
" style="fill:none;stroke:#000000;stroke-linecap:square;stroke-linejoin:miter;stroke-width:0.8;"/>
   </g>
   <g id="patch_8">
    <path d="M 107.400313 591.925938 
L 944.400313 591.925938 
" style="fill:none;stroke:#000000;stroke-linecap:square;stroke-linejoin:miter;stroke-width:0.8;"/>
   </g>
   <g id="patch_9">
    <path d="M 107.400313 102.685938 
L 944.400313 102.685938 
" style="fill:none;stroke:#000000;stroke-linecap:square;stroke-linejoin:miter;stroke-width:0.8;"/>
   </g>
   <g id="text_14">
    <!-- Energy Comparisons for SCAN and GGA  -->
    <defs>
     <path d="M 9.8125 72.90625 
L 55.90625 72.90625 
L 55.90625 64.59375 
L 19.671875 64.59375 
L 19.671875 43.015625 
L 54.390625 43.015625 
L 54.390625 34.71875 
L 19.671875 34.71875 
L 19.671875 8.296875 
L 56.78125 8.296875 
L 56.78125 0 
L 9.8125 0 
z
" id="DejaVuSans-69"/>
     <path d="M 41.109375 46.296875 
Q 39.59375 47.171875 37.8125 47.578125 
Q 36.03125 48 33.890625 48 
Q 26.265625 48 22.1875 43.046875 
Q 18.109375 38.09375 18.109375 28.8125 
L 18.109375 0 
L 9.078125 0 
L 9.078125 54.6875 
L 18.109375 54.6875 
L 18.109375 46.1875 
Q 20.953125 51.171875 25.484375 53.578125 
Q 30.03125 56 36.53125 56 
Q 37.453125 56 38.578125 55.875 
Q 39.703125 55.765625 41.0625 55.515625 
z
" id="DejaVuSans-114"/>
     <path d="M 45.40625 27.984375 
Q 45.40625 37.75 41.375 43.109375 
Q 37.359375 48.484375 30.078125 48.484375 
Q 22.859375 48.484375 18.828125 43.109375 
Q 14.796875 37.75 14.796875 27.984375 
Q 14.796875 18.265625 18.828125 12.890625 
Q 22.859375 7.515625 30.078125 7.515625 
Q 37.359375 7.515625 41.375 12.890625 
Q 45.40625 18.265625 45.40625 27.984375 
z
M 54.390625 6.78125 
Q 54.390625 -7.171875 48.1875 -13.984375 
Q 42 -20.796875 29.203125 -20.796875 
Q 24.46875 -20.796875 20.265625 -20.09375 
Q 16.0625 -19.390625 12.109375 -17.921875 
L 12.109375 -9.1875 
Q 16.0625 -11.328125 19.921875 -12.34375 
Q 23.78125 -13.375 27.78125 -13.375 
Q 36.625 -13.375 41.015625 -8.765625 
Q 45.40625 -4.15625 45.40625 5.171875 
L 45.40625 9.625 
Q 42.625 4.78125 38.28125 2.390625 
Q 33.9375 0 27.875 0 
Q 17.828125 0 11.671875 7.65625 
Q 5.515625 15.328125 5.515625 27.984375 
Q 5.515625 40.671875 11.671875 48.328125 
Q 17.828125 56 27.875 56 
Q 33.9375 56 38.28125 53.609375 
Q 42.625 51.21875 45.40625 46.390625 
L 45.40625 54.6875 
L 54.390625 54.6875 
z
" id="DejaVuSans-103"/>
     <path d="M 32.171875 -5.078125 
Q 28.375 -14.84375 24.75 -17.8125 
Q 21.140625 -20.796875 15.09375 -20.796875 
L 7.90625 -20.796875 
L 7.90625 -13.28125 
L 13.1875 -13.28125 
Q 16.890625 -13.28125 18.9375 -11.515625 
Q 21 -9.765625 23.484375 -3.21875 
L 25.09375 0.875 
L 2.984375 54.6875 
L 12.5 54.6875 
L 29.59375 11.921875 
L 46.6875 54.6875 
L 56.203125 54.6875 
z
" id="DejaVuSans-121"/>
     <path d="M 18.109375 8.203125 
L 18.109375 -20.796875 
L 9.078125 -20.796875 
L 9.078125 54.6875 
L 18.109375 54.6875 
L 18.109375 46.390625 
Q 20.953125 51.265625 25.265625 53.625 
Q 29.59375 56 35.59375 56 
Q 45.5625 56 51.78125 48.09375 
Q 58.015625 40.1875 58.015625 27.296875 
Q 58.015625 14.40625 51.78125 6.484375 
Q 45.5625 -1.421875 35.59375 -1.421875 
Q 29.59375 -1.421875 25.265625 0.953125 
Q 20.953125 3.328125 18.109375 8.203125 
z
M 48.6875 27.296875 
Q 48.6875 37.203125 44.609375 42.84375 
Q 40.53125 48.484375 33.40625 48.484375 
Q 26.265625 48.484375 22.1875 42.84375 
Q 18.109375 37.203125 18.109375 27.296875 
Q 18.109375 17.390625 22.1875 11.75 
Q 26.265625 6.109375 33.40625 6.109375 
Q 40.53125 6.109375 44.609375 11.75 
Q 48.6875 17.390625 48.6875 27.296875 
z
" id="DejaVuSans-112"/>
     <path d="M 9.421875 54.6875 
L 18.40625 54.6875 
L 18.40625 0 
L 9.421875 0 
z
M 9.421875 75.984375 
L 18.40625 75.984375 
L 18.40625 64.59375 
L 9.421875 64.59375 
z
" id="DejaVuSans-105"/>
     <path d="M 44.28125 53.078125 
L 44.28125 44.578125 
Q 40.484375 46.53125 36.375 47.5 
Q 32.28125 48.484375 27.875 48.484375 
Q 21.1875 48.484375 17.84375 46.4375 
Q 14.5 44.390625 14.5 40.28125 
Q 14.5 37.15625 16.890625 35.375 
Q 19.28125 33.59375 26.515625 31.984375 
L 29.59375 31.296875 
Q 39.15625 29.25 43.1875 25.515625 
Q 47.21875 21.78125 47.21875 15.09375 
Q 47.21875 7.46875 41.1875 3.015625 
Q 35.15625 -1.421875 24.609375 -1.421875 
Q 20.21875 -1.421875 15.453125 -0.5625 
Q 10.6875 0.296875 5.421875 2 
L 5.421875 11.28125 
Q 10.40625 8.6875 15.234375 7.390625 
Q 20.0625 6.109375 24.8125 6.109375 
Q 31.15625 6.109375 34.5625 8.28125 
Q 37.984375 10.453125 37.984375 14.40625 
Q 37.984375 18.0625 35.515625 20.015625 
Q 33.0625 21.96875 24.703125 23.78125 
L 21.578125 24.515625 
Q 13.234375 26.265625 9.515625 29.90625 
Q 5.8125 33.546875 5.8125 39.890625 
Q 5.8125 47.609375 11.28125 51.796875 
Q 16.75 56 26.8125 56 
Q 31.78125 56 36.171875 55.265625 
Q 40.578125 54.546875 44.28125 53.078125 
z
" id="DejaVuSans-115"/>
     <path d="M 37.109375 75.984375 
L 37.109375 68.5 
L 28.515625 68.5 
Q 23.6875 68.5 21.796875 66.546875 
Q 19.921875 64.59375 19.921875 59.515625 
L 19.921875 54.6875 
L 34.71875 54.6875 
L 34.71875 47.703125 
L 19.921875 47.703125 
L 19.921875 0 
L 10.890625 0 
L 10.890625 47.703125 
L 2.296875 47.703125 
L 2.296875 54.6875 
L 10.890625 54.6875 
L 10.890625 58.5 
Q 10.890625 67.625 15.140625 71.796875 
Q 19.390625 75.984375 28.609375 75.984375 
z
" id="DejaVuSans-102"/>
     <path d="M 53.515625 70.515625 
L 53.515625 60.890625 
Q 47.90625 63.578125 42.921875 64.890625 
Q 37.9375 66.21875 33.296875 66.21875 
Q 25.25 66.21875 20.875 63.09375 
Q 16.5 59.96875 16.5 54.203125 
Q 16.5 49.359375 19.40625 46.890625 
Q 22.3125 44.4375 30.421875 42.921875 
L 36.375 41.703125 
Q 47.40625 39.59375 52.65625 34.296875 
Q 57.90625 29 57.90625 20.125 
Q 57.90625 9.515625 50.796875 4.046875 
Q 43.703125 -1.421875 29.984375 -1.421875 
Q 24.8125 -1.421875 18.96875 -0.25 
Q 13.140625 0.921875 6.890625 3.21875 
L 6.890625 13.375 
Q 12.890625 10.015625 18.65625 8.296875 
Q 24.421875 6.59375 29.984375 6.59375 
Q 38.421875 6.59375 43.015625 9.90625 
Q 47.609375 13.234375 47.609375 19.390625 
Q 47.609375 24.75 44.3125 27.78125 
Q 41.015625 30.8125 33.5 32.328125 
L 27.484375 33.5 
Q 16.453125 35.6875 11.515625 40.375 
Q 6.59375 45.0625 6.59375 53.421875 
Q 6.59375 63.09375 13.40625 68.65625 
Q 20.21875 74.21875 32.171875 74.21875 
Q 37.3125 74.21875 42.625 73.28125 
Q 47.953125 72.359375 53.515625 70.515625 
z
" id="DejaVuSans-83"/>
     <path d="M 34.1875 63.1875 
L 20.796875 26.90625 
L 47.609375 26.90625 
z
M 28.609375 72.90625 
L 39.796875 72.90625 
L 67.578125 0 
L 57.328125 0 
L 50.6875 18.703125 
L 17.828125 18.703125 
L 11.1875 0 
L 0.78125 0 
z
" id="DejaVuSans-65"/>
     <path d="M 9.8125 72.90625 
L 23.09375 72.90625 
L 55.421875 11.921875 
L 55.421875 72.90625 
L 64.984375 72.90625 
L 64.984375 0 
L 51.703125 0 
L 19.390625 60.984375 
L 19.390625 0 
L 9.8125 0 
z
" id="DejaVuSans-78"/>
     <path d="M 45.40625 46.390625 
L 45.40625 75.984375 
L 54.390625 75.984375 
L 54.390625 0 
L 45.40625 0 
L 45.40625 8.203125 
Q 42.578125 3.328125 38.25 0.953125 
Q 33.9375 -1.421875 27.875 -1.421875 
Q 17.96875 -1.421875 11.734375 6.484375 
Q 5.515625 14.40625 5.515625 27.296875 
Q 5.515625 40.1875 11.734375 48.09375 
Q 17.96875 56 27.875 56 
Q 33.9375 56 38.25 53.625 
Q 42.578125 51.265625 45.40625 46.390625 
z
M 14.796875 27.296875 
Q 14.796875 17.390625 18.875 11.75 
Q 22.953125 6.109375 30.078125 6.109375 
Q 37.203125 6.109375 41.296875 11.75 
Q 45.40625 17.390625 45.40625 27.296875 
Q 45.40625 37.203125 41.296875 42.84375 
Q 37.203125 48.484375 30.078125 48.484375 
Q 22.953125 48.484375 18.875 42.84375 
Q 14.796875 37.203125 14.796875 27.296875 
z
" id="DejaVuSans-100"/>
     <path d="M 59.515625 10.40625 
L 59.515625 29.984375 
L 43.40625 29.984375 
L 43.40625 38.09375 
L 69.28125 38.09375 
L 69.28125 6.78125 
Q 63.578125 2.734375 56.6875 0.65625 
Q 49.8125 -1.421875 42 -1.421875 
Q 24.90625 -1.421875 15.25 8.5625 
Q 5.609375 18.5625 5.609375 36.375 
Q 5.609375 54.25 15.25 64.234375 
Q 24.90625 74.21875 42 74.21875 
Q 49.125 74.21875 55.546875 72.453125 
Q 61.96875 70.703125 67.390625 67.28125 
L 67.390625 56.78125 
Q 61.921875 61.421875 55.765625 63.765625 
Q 49.609375 66.109375 42.828125 66.109375 
Q 29.4375 66.109375 22.71875 58.640625 
Q 16.015625 51.171875 16.015625 36.375 
Q 16.015625 21.625 22.71875 14.15625 
Q 29.4375 6.6875 42.828125 6.6875 
Q 48.046875 6.6875 52.140625 7.59375 
Q 56.25 8.5 59.515625 10.40625 
z
" id="DejaVuSans-71"/>
    </defs>
    <g transform="translate(147.677656 35.694141)scale(0.375 -0.375)">
     <use xlink:href="#DejaVuSans-69"/>
     <use x="63.183594" xlink:href="#DejaVuSans-110"/>
     <use x="126.5625" xlink:href="#DejaVuSans-101"/>
     <use x="188.085938" xlink:href="#DejaVuSans-114"/>
     <use x="227.449219" xlink:href="#DejaVuSans-103"/>
     <use x="290.925781" xlink:href="#DejaVuSans-121"/>
     <use x="350.105469" xlink:href="#DejaVuSans-32"/>
     <use x="381.892578" xlink:href="#DejaVuSans-67"/>
     <use x="451.716797" xlink:href="#DejaVuSans-111"/>
     <use x="512.898438" xlink:href="#DejaVuSans-109"/>
     <use x="610.310547" xlink:href="#DejaVuSans-112"/>
     <use x="673.787109" xlink:href="#DejaVuSans-97"/>
     <use x="735.066406" xlink:href="#DejaVuSans-114"/>
     <use x="776.179688" xlink:href="#DejaVuSans-105"/>
     <use x="803.962891" xlink:href="#DejaVuSans-115"/>
     <use x="856.0625" xlink:href="#DejaVuSans-111"/>
     <use x="917.244141" xlink:href="#DejaVuSans-110"/>
     <use x="980.623047" xlink:href="#DejaVuSans-115"/>
     <use x="1032.722656" xlink:href="#DejaVuSans-32"/>
     <use x="1064.509766" xlink:href="#DejaVuSans-102"/>
     <use x="1099.714844" xlink:href="#DejaVuSans-111"/>
     <use x="1160.896484" xlink:href="#DejaVuSans-114"/>
     <use x="1202.009766" xlink:href="#DejaVuSans-32"/>
     <use x="1233.796875" xlink:href="#DejaVuSans-83"/>
     <use x="1297.273438" xlink:href="#DejaVuSans-67"/>
     <use x="1367.097656" xlink:href="#DejaVuSans-65"/>
     <use x="1435.505859" xlink:href="#DejaVuSans-78"/>
     <use x="1510.310547" xlink:href="#DejaVuSans-32"/>
     <use x="1542.097656" xlink:href="#DejaVuSans-97"/>
     <use x="1603.376953" xlink:href="#DejaVuSans-110"/>
     <use x="1666.755859" xlink:href="#DejaVuSans-100"/>
     <use x="1730.232422" xlink:href="#DejaVuSans-32"/>
     <use x="1762.019531" xlink:href="#DejaVuSans-71"/>
     <use x="1839.509766" xlink:href="#DejaVuSans-71"/>
     <use x="1917" xlink:href="#DejaVuSans-65"/>
     <use x="1985.408203" xlink:href="#DejaVuSans-32"/>
    </g>
    <!--  Functionals by Compound Dimensionality -->
    <defs>
     <path d="M 9.8125 72.90625 
L 51.703125 72.90625 
L 51.703125 64.59375 
L 19.671875 64.59375 
L 19.671875 43.109375 
L 48.578125 43.109375 
L 48.578125 34.8125 
L 19.671875 34.8125 
L 19.671875 0 
L 9.8125 0 
z
" id="DejaVuSans-70"/>
     <path d="M 48.78125 52.59375 
L 48.78125 44.1875 
Q 44.96875 46.296875 41.140625 47.34375 
Q 37.3125 48.390625 33.40625 48.390625 
Q 24.65625 48.390625 19.8125 42.84375 
Q 14.984375 37.3125 14.984375 27.296875 
Q 14.984375 17.28125 19.8125 11.734375 
Q 24.65625 6.203125 33.40625 6.203125 
Q 37.3125 6.203125 41.140625 7.25 
Q 44.96875 8.296875 48.78125 10.40625 
L 48.78125 2.09375 
Q 45.015625 0.34375 40.984375 -0.53125 
Q 36.96875 -1.421875 32.421875 -1.421875 
Q 20.0625 -1.421875 12.78125 6.34375 
Q 5.515625 14.109375 5.515625 27.296875 
Q 5.515625 40.671875 12.859375 48.328125 
Q 20.21875 56 33.015625 56 
Q 37.15625 56 41.109375 55.140625 
Q 45.0625 54.296875 48.78125 52.59375 
z
" id="DejaVuSans-99"/>
     <path d="M 9.421875 75.984375 
L 18.40625 75.984375 
L 18.40625 0 
L 9.421875 0 
z
" id="DejaVuSans-108"/>
     <path d="M 48.6875 27.296875 
Q 48.6875 37.203125 44.609375 42.84375 
Q 40.53125 48.484375 33.40625 48.484375 
Q 26.265625 48.484375 22.1875 42.84375 
Q 18.109375 37.203125 18.109375 27.296875 
Q 18.109375 17.390625 22.1875 11.75 
Q 26.265625 6.109375 33.40625 6.109375 
Q 40.53125 6.109375 44.609375 11.75 
Q 48.6875 17.390625 48.6875 27.296875 
z
M 18.109375 46.390625 
Q 20.953125 51.265625 25.265625 53.625 
Q 29.59375 56 35.59375 56 
Q 45.5625 56 51.78125 48.09375 
Q 58.015625 40.1875 58.015625 27.296875 
Q 58.015625 14.40625 51.78125 6.484375 
Q 45.5625 -1.421875 35.59375 -1.421875 
Q 29.59375 -1.421875 25.265625 0.953125 
Q 20.953125 3.328125 18.109375 8.203125 
L 18.109375 0 
L 9.078125 0 
L 9.078125 75.984375 
L 18.109375 75.984375 
z
" id="DejaVuSans-98"/>
     <path d="M 19.671875 64.796875 
L 19.671875 8.109375 
L 31.59375 8.109375 
Q 46.6875 8.109375 53.6875 14.9375 
Q 60.6875 21.78125 60.6875 36.53125 
Q 60.6875 51.171875 53.6875 57.984375 
Q 46.6875 64.796875 31.59375 64.796875 
z
M 9.8125 72.90625 
L 30.078125 72.90625 
Q 51.265625 72.90625 61.171875 64.09375 
Q 71.09375 55.28125 71.09375 36.53125 
Q 71.09375 17.671875 61.125 8.828125 
Q 51.171875 0 30.078125 0 
L 9.8125 0 
z
" id="DejaVuSans-68"/>
    </defs>
    <g transform="translate(130.960859 77.685938)scale(0.375 -0.375)">
     <use xlink:href="#DejaVuSans-32"/>
     <use x="31.787109" xlink:href="#DejaVuSans-70"/>
     <use x="83.806641" xlink:href="#DejaVuSans-117"/>
     <use x="147.185547" xlink:href="#DejaVuSans-110"/>
     <use x="210.564453" xlink:href="#DejaVuSans-99"/>
     <use x="265.544922" xlink:href="#DejaVuSans-116"/>
     <use x="304.753906" xlink:href="#DejaVuSans-105"/>
     <use x="332.537109" xlink:href="#DejaVuSans-111"/>
     <use x="393.71875" xlink:href="#DejaVuSans-110"/>
     <use x="457.097656" xlink:href="#DejaVuSans-97"/>
     <use x="518.376953" xlink:href="#DejaVuSans-108"/>
     <use x="546.160156" xlink:href="#DejaVuSans-115"/>
     <use x="598.259766" xlink:href="#DejaVuSans-32"/>
     <use x="630.046875" xlink:href="#DejaVuSans-98"/>
     <use x="693.523438" xlink:href="#DejaVuSans-121"/>
     <use x="752.703125" xlink:href="#DejaVuSans-32"/>
     <use x="784.490234" xlink:href="#DejaVuSans-67"/>
     <use x="854.314453" xlink:href="#DejaVuSans-111"/>
     <use x="915.496094" xlink:href="#DejaVuSans-109"/>
     <use x="1012.908203" xlink:href="#DejaVuSans-112"/>
     <use x="1076.384766" xlink:href="#DejaVuSans-111"/>
     <use x="1137.566406" xlink:href="#DejaVuSans-117"/>
     <use x="1200.945312" xlink:href="#DejaVuSans-110"/>
     <use x="1264.324219" xlink:href="#DejaVuSans-100"/>
     <use x="1327.800781" xlink:href="#DejaVuSans-32"/>
     <use x="1359.587891" xlink:href="#DejaVuSans-68"/>
     <use x="1436.589844" xlink:href="#DejaVuSans-105"/>
     <use x="1464.373047" xlink:href="#DejaVuSans-109"/>
     <use x="1561.785156" xlink:href="#DejaVuSans-101"/>
     <use x="1623.308594" xlink:href="#DejaVuSans-110"/>
     <use x="1686.6875" xlink:href="#DejaVuSans-115"/>
     <use x="1738.787109" xlink:href="#DejaVuSans-105"/>
     <use x="1766.570312" xlink:href="#DejaVuSans-111"/>
     <use x="1827.751953" xlink:href="#DejaVuSans-110"/>
     <use x="1891.130859" xlink:href="#DejaVuSans-97"/>
     <use x="1952.410156" xlink:href="#DejaVuSans-108"/>
     <use x="1980.193359" xlink:href="#DejaVuSans-105"/>
     <use x="2007.976562" xlink:href="#DejaVuSans-116"/>
     <use x="2047.185547" xlink:href="#DejaVuSans-121"/>
    </g>
   </g>
   <g id="legend_1">
    <g id="patch_10">
     <path d="M 661.274609 235.373594 
L 926.550313 235.373594 
Q 931.650313 235.373594 931.650313 230.273594 
L 931.650313 120.535938 
Q 931.650313 115.435938 926.550313 115.435938 
L 661.274609 115.435938 
Q 656.174609 115.435938 656.174609 120.535938 
L 656.174609 230.273594 
Q 656.174609 235.373594 661.274609 235.373594 
z
" style="fill:#ffffff;opacity:0.8;stroke:#000000;stroke-linejoin:miter;"/>
    </g>
    <g id="patch_11">
     <path d="M 666.374609 145.011953 
L 717.374609 145.011953 
L 717.374609 127.161953 
L 666.374609 127.161953 
z
" style="fill:#39cc6e;"/>
    </g>
    <g id="text_15">
     <!-- 1-Dimensional -->
     <defs>
      <path d="M 4.890625 31.390625 
L 31.203125 31.390625 
L 31.203125 23.390625 
L 4.890625 23.390625 
z
" id="DejaVuSans-45"/>
     </defs>
     <g transform="translate(737.774609 145.011953)scale(0.255 -0.255)">
      <use xlink:href="#DejaVuSans-49"/>
      <use x="63.623047" xlink:href="#DejaVuSans-45"/>
      <use x="99.707031" xlink:href="#DejaVuSans-68"/>
      <use x="176.708984" xlink:href="#DejaVuSans-105"/>
      <use x="204.492188" xlink:href="#DejaVuSans-109"/>
      <use x="301.904297" xlink:href="#DejaVuSans-101"/>
      <use x="363.427734" xlink:href="#DejaVuSans-110"/>
      <use x="426.806641" xlink:href="#DejaVuSans-115"/>
      <use x="478.90625" xlink:href="#DejaVuSans-105"/>
      <use x="506.689453" xlink:href="#DejaVuSans-111"/>
      <use x="567.871094" xlink:href="#DejaVuSans-110"/>
      <use x="631.25" xlink:href="#DejaVuSans-97"/>
      <use x="692.529297" xlink:href="#DejaVuSans-108"/>
     </g>
    </g>
    <g id="patch_12">
     <path d="M 666.374609 182.441172 
L 717.374609 182.441172 
L 717.374609 164.591172 
L 666.374609 164.591172 
z
" style="fill:#f8ed73;"/>
    </g>
    <g id="text_16">
     <!-- 2-Dimensional -->
     <g transform="translate(737.774609 182.441172)scale(0.255 -0.255)">
      <use xlink:href="#DejaVuSans-50"/>
      <use x="63.623047" xlink:href="#DejaVuSans-45"/>
      <use x="99.707031" xlink:href="#DejaVuSans-68"/>
      <use x="176.708984" xlink:href="#DejaVuSans-105"/>
      <use x="204.492188" xlink:href="#DejaVuSans-109"/>
      <use x="301.904297" xlink:href="#DejaVuSans-101"/>
      <use x="363.427734" xlink:href="#DejaVuSans-110"/>
      <use x="426.806641" xlink:href="#DejaVuSans-115"/>
      <use x="478.90625" xlink:href="#DejaVuSans-105"/>
      <use x="506.689453" xlink:href="#DejaVuSans-111"/>
      <use x="567.871094" xlink:href="#DejaVuSans-110"/>
      <use x="631.25" xlink:href="#DejaVuSans-97"/>
      <use x="692.529297" xlink:href="#DejaVuSans-108"/>
     </g>
    </g>
    <g id="patch_13">
     <path d="M 666.374609 219.870391 
L 717.374609 219.870391 
L 717.374609 202.020391 
L 666.374609 202.020391 
z
" style="fill:#0870a8;"/>
    </g>
    <g id="text_17">
     <!-- 3-Dimensional -->
     <defs>
      <path d="M 40.578125 39.3125 
Q 47.65625 37.796875 51.625 33 
Q 55.609375 28.21875 55.609375 21.1875 
Q 55.609375 10.40625 48.1875 4.484375 
Q 40.765625 -1.421875 27.09375 -1.421875 
Q 22.515625 -1.421875 17.65625 -0.515625 
Q 12.796875 0.390625 7.625 2.203125 
L 7.625 11.71875 
Q 11.71875 9.328125 16.59375 8.109375 
Q 21.484375 6.890625 26.8125 6.890625 
Q 36.078125 6.890625 40.9375 10.546875 
Q 45.796875 14.203125 45.796875 21.1875 
Q 45.796875 27.640625 41.28125 31.265625 
Q 36.765625 34.90625 28.71875 34.90625 
L 20.21875 34.90625 
L 20.21875 43.015625 
L 29.109375 43.015625 
Q 36.375 43.015625 40.234375 45.921875 
Q 44.09375 48.828125 44.09375 54.296875 
Q 44.09375 59.90625 40.109375 62.90625 
Q 36.140625 65.921875 28.71875 65.921875 
Q 24.65625 65.921875 20.015625 65.03125 
Q 15.375 64.15625 9.8125 62.3125 
L 9.8125 71.09375 
Q 15.4375 72.65625 20.34375 73.4375 
Q 25.25 74.21875 29.59375 74.21875 
Q 40.828125 74.21875 47.359375 69.109375 
Q 53.90625 64.015625 53.90625 55.328125 
Q 53.90625 49.265625 50.4375 45.09375 
Q 46.96875 40.921875 40.578125 39.3125 
z
" id="DejaVuSans-51"/>
     </defs>
     <g transform="translate(737.774609 219.870391)scale(0.255 -0.255)">
      <use xlink:href="#DejaVuSans-51"/>
      <use x="63.623047" xlink:href="#DejaVuSans-45"/>
      <use x="99.707031" xlink:href="#DejaVuSans-68"/>
      <use x="176.708984" xlink:href="#DejaVuSans-105"/>
      <use x="204.492188" xlink:href="#DejaVuSans-109"/>
      <use x="301.904297" xlink:href="#DejaVuSans-101"/>
      <use x="363.427734" xlink:href="#DejaVuSans-110"/>
      <use x="426.806641" xlink:href="#DejaVuSans-115"/>
      <use x="478.90625" xlink:href="#DejaVuSans-105"/>
      <use x="506.689453" xlink:href="#DejaVuSans-111"/>
      <use x="567.871094" xlink:href="#DejaVuSans-110"/>
      <use x="631.25" xlink:href="#DejaVuSans-97"/>
      <use x="692.529297" xlink:href="#DejaVuSans-108"/>
     </g>
    </g>
   </g>
  </g>
 </g>
 <defs>
  <clipPath id="pa7ae06583a">
   <rect height="489.24" width="837" x="107.400312" y="102.685938"/>
  </clipPath>
 </defs>
</svg>
