<?xml version="1.0" encoding="utf-8" standalone="no"?>
<!DOCTYPE svg PUBLIC "-//W3C//DTD SVG 1.1//EN"
  "http://www.w3.org/Graphics/SVG/1.1/DTD/svg11.dtd">
<!-- Created with matplotlib (https://matplotlib.org/) -->
<svg height="673.810313pt" version="1.1" viewBox="0 0 968.547969 673.810313" width="968.547969pt" xmlns="http://www.w3.org/2000/svg" xmlns:xlink="http://www.w3.org/1999/xlink">
 <defs>
  <style type="text/css">
*{stroke-linecap:butt;stroke-linejoin:round;}
  </style>
 </defs>
 <g id="figure_1">
  <g id="patch_1">
   <path d="M -0 673.810313 
L 968.547969 673.810313 
L 968.547969 0 
L -0 0 
z
" style="fill:#ffffff;"/>
  </g>
  <g id="axes_1">
   <g id="patch_2">
    <path d="M 88.312813 591.925938 
L 925.312813 591.925938 
L 925.312813 102.685938 
L 88.312813 102.685938 
z
" style="fill:#ffffff;"/>
   </g>
   <g id="patch_3">
    <path clip-path="url(#pcbfa221f50)" d="M 126.358267 591.925938 
L 126.358267 591.925938 
L 135.869631 591.925938 
L 135.869631 591.925938 
L 145.380994 591.925938 
L 145.380994 586.631132 
L 154.892358 586.631132 
L 154.892358 591.925938 
L 164.403722 591.925938 
L 164.403722 586.631132 
L 173.915085 586.631132 
L 173.915085 586.631132 
L 183.426449 586.631132 
L 183.426449 586.631132 
L 192.937813 586.631132 
L 192.937813 591.925938 
L 202.449176 591.925938 
L 202.449176 586.631132 
L 211.96054 586.631132 
L 211.96054 581.336327 
L 221.471903 581.336327 
L 221.471903 591.925938 
L 230.983267 591.925938 
L 230.983267 591.925938 
L 240.494631 591.925938 
L 240.494631 586.631132 
L 250.005994 586.631132 
L 250.005994 576.041522 
L 259.517358 576.041522 
L 259.517358 586.631132 
L 269.028722 586.631132 
L 269.028722 586.631132 
L 278.540085 586.631132 
L 278.540085 591.925938 
L 288.051449 591.925938 
L 288.051449 586.631132 
L 297.562813 586.631132 
L 297.562813 591.925938 
L 307.074176 591.925938 
L 307.074176 581.336327 
L 316.58554 581.336327 
L 316.58554 554.862301 
L 326.096903 554.862301 
L 326.096903 586.631132 
L 335.608267 586.631132 
L 335.608267 576.041522 
L 345.119631 576.041522 
L 345.119631 560.157106 
L 354.630994 560.157106 
L 354.630994 549.567496 
L 364.142358 549.567496 
L 364.142358 576.041522 
L 373.653722 576.041522 
L 373.653722 581.336327 
L 383.165085 581.336327 
L 383.165085 538.977886 
L 392.676449 538.977886 
L 392.676449 528.388275 
L 402.187812 528.388275 
L 402.187812 560.157106 
L 411.699176 560.157106 
L 411.699176 549.567496 
L 421.21054 549.567496 
L 421.21054 544.272691 
L 430.721903 544.272691 
L 430.721903 523.09347 
L 440.233267 523.09347 
L 440.233267 464.850613 
L 449.744631 464.850613 
L 449.744631 438.376587 
L 459.255994 438.376587 
L 459.255994 486.029834 
L 468.767358 486.029834 
L 468.767358 406.607756 
L 478.278722 406.607756 
L 478.278722 427.786976 
L 487.790085 427.786976 
L 487.790085 268.942821 
L 497.301449 268.942821 
L 497.301449 125.98308 
L 506.812813 125.98308 
L 506.812813 210.699963 
L 516.324176 210.699963 
L 516.324176 406.607756 
L 525.83554 406.607756 
L 525.83554 438.376587 
L 535.346903 438.376587 
L 535.346903 480.735028 
L 544.858267 480.735028 
L 544.858267 501.914249 
L 554.369631 501.914249 
L 554.369631 486.029834 
L 563.880994 486.029834 
L 563.880994 528.388275 
L 573.392358 528.388275 
L 573.392358 538.977886 
L 582.903722 538.977886 
L 582.903722 581.336327 
L 592.415085 581.336327 
L 592.415085 560.157106 
L 601.926449 560.157106 
L 601.926449 570.746717 
L 611.437812 570.746717 
L 611.437812 554.862301 
L 620.949176 554.862301 
L 620.949176 560.157106 
L 630.46054 560.157106 
L 630.46054 581.336327 
L 639.971903 581.336327 
L 639.971903 560.157106 
L 649.483267 560.157106 
L 649.483267 586.631132 
L 658.994631 586.631132 
L 658.994631 570.746717 
L 668.505994 570.746717 
L 668.505994 586.631132 
L 678.017358 586.631132 
L 678.017358 581.336327 
L 687.528722 581.336327 
L 687.528722 581.336327 
L 697.040085 581.336327 
L 697.040085 591.925938 
L 706.551449 591.925938 
L 706.551449 586.631132 
L 716.062812 586.631132 
L 716.062812 581.336327 
L 725.574176 581.336327 
L 725.574176 591.925938 
L 735.08554 591.925938 
L 735.08554 591.925938 
L 744.596903 591.925938 
L 744.596903 591.925938 
L 754.108267 591.925938 
L 754.108267 586.631132 
L 763.619631 586.631132 
L 763.619631 586.631132 
L 773.130994 586.631132 
L 773.130994 591.925938 
L 782.642358 591.925938 
L 782.642358 591.925938 
L 792.153722 591.925938 
L 792.153722 591.925938 
L 801.665085 591.925938 
L 801.665085 586.631132 
L 811.176449 586.631132 
L 811.176449 591.925938 
L 820.687812 591.925938 
L 820.687812 591.925938 
L 830.199176 591.925938 
L 830.199176 591.925938 
L 839.71054 591.925938 
L 839.71054 591.925938 
L 849.221903 591.925938 
L 849.221903 591.925938 
L 858.733267 591.925938 
L 858.733267 591.925938 
L 868.244631 591.925938 
L 868.244631 591.925938 
L 877.755994 591.925938 
L 877.755994 591.925938 
L 887.267358 591.925938 
L 887.267358 591.925938 
L 877.755994 591.925938 
L 877.755994 591.925938 
L 868.244631 591.925938 
L 868.244631 591.925938 
L 858.733267 591.925938 
L 858.733267 591.925938 
L 849.221903 591.925938 
L 849.221903 591.925938 
L 839.71054 591.925938 
L 839.71054 591.925938 
L 830.199176 591.925938 
L 830.199176 591.925938 
L 820.687812 591.925938 
L 820.687812 591.925938 
L 811.176449 591.925938 
L 811.176449 591.925938 
L 801.665085 591.925938 
L 801.665085 591.925938 
L 792.153722 591.925938 
L 792.153722 591.925938 
L 782.642358 591.925938 
L 782.642358 591.925938 
L 773.130994 591.925938 
L 773.130994 591.925938 
L 763.619631 591.925938 
L 763.619631 591.925938 
L 754.108267 591.925938 
L 754.108267 591.925938 
L 744.596903 591.925938 
L 744.596903 591.925938 
L 735.08554 591.925938 
L 735.08554 591.925938 
L 725.574176 591.925938 
L 725.574176 591.925938 
L 716.062812 591.925938 
L 716.062812 591.925938 
L 706.551449 591.925938 
L 706.551449 591.925938 
L 697.040085 591.925938 
L 697.040085 591.925938 
L 687.528722 591.925938 
L 687.528722 591.925938 
L 678.017358 591.925938 
L 678.017358 591.925938 
L 668.505994 591.925938 
L 668.505994 591.925938 
L 658.994631 591.925938 
L 658.994631 591.925938 
L 649.483267 591.925938 
L 649.483267 591.925938 
L 639.971903 591.925938 
L 639.971903 591.925938 
L 630.46054 591.925938 
L 630.46054 591.925938 
L 620.949176 591.925938 
L 620.949176 591.925938 
L 611.437812 591.925938 
L 611.437812 591.925938 
L 601.926449 591.925938 
L 601.926449 591.925938 
L 592.415085 591.925938 
L 592.415085 591.925938 
L 582.903722 591.925938 
L 582.903722 591.925938 
L 573.392358 591.925938 
L 573.392358 591.925938 
L 563.880994 591.925938 
L 563.880994 591.925938 
L 554.369631 591.925938 
L 554.369631 591.925938 
L 544.858267 591.925938 
L 544.858267 591.925938 
L 535.346903 591.925938 
L 535.346903 591.925938 
L 525.83554 591.925938 
L 525.83554 591.925938 
L 516.324176 591.925938 
L 516.324176 591.925938 
L 506.812813 591.925938 
L 506.812813 591.925938 
L 497.301449 591.925938 
L 497.301449 591.925938 
L 487.790085 591.925938 
L 487.790085 591.925938 
L 478.278722 591.925938 
L 478.278722 591.925938 
L 468.767358 591.925938 
L 468.767358 591.925938 
L 459.255994 591.925938 
L 459.255994 591.925938 
L 449.744631 591.925938 
L 449.744631 591.925938 
L 440.233267 591.925938 
L 440.233267 591.925938 
L 430.721903 591.925938 
L 430.721903 591.925938 
L 421.21054 591.925938 
L 421.21054 591.925938 
L 411.699176 591.925938 
L 411.699176 591.925938 
L 402.187812 591.925938 
L 402.187812 591.925938 
L 392.676449 591.925938 
L 392.676449 591.925938 
L 383.165085 591.925938 
L 383.165085 591.925938 
L 373.653722 591.925938 
L 373.653722 591.925938 
L 364.142358 591.925938 
L 364.142358 591.925938 
L 354.630994 591.925938 
L 354.630994 591.925938 
L 345.119631 591.925938 
L 345.119631 591.925938 
L 335.608267 591.925938 
L 335.608267 591.925938 
L 326.096903 591.925938 
L 326.096903 591.925938 
L 316.58554 591.925938 
L 316.58554 591.925938 
L 307.074176 591.925938 
L 307.074176 591.925938 
L 297.562813 591.925938 
L 297.562813 591.925938 
L 288.051449 591.925938 
L 288.051449 591.925938 
L 278.540085 591.925938 
L 278.540085 591.925938 
L 269.028722 591.925938 
L 269.028722 591.925938 
L 259.517358 591.925938 
L 259.517358 591.925938 
L 250.005994 591.925938 
L 250.005994 591.925938 
L 240.494631 591.925938 
L 240.494631 591.925938 
L 230.983267 591.925938 
L 230.983267 591.925938 
L 221.471903 591.925938 
L 221.471903 591.925938 
L 211.96054 591.925938 
L 211.96054 591.925938 
L 202.449176 591.925938 
L 202.449176 591.925938 
L 192.937813 591.925938 
L 192.937813 591.925938 
L 183.426449 591.925938 
L 183.426449 591.925938 
L 173.915085 591.925938 
L 173.915085 591.925938 
L 164.403722 591.925938 
L 164.403722 591.925938 
L 154.892358 591.925938 
L 154.892358 591.925938 
L 145.380994 591.925938 
L 145.380994 591.925938 
L 135.869631 591.925938 
L 135.869631 591.925938 
z
" style="fill:#0870a8;"/>
   </g>
   <g id="patch_4">
    <path clip-path="url(#pcbfa221f50)" d="M 126.358267 591.925938 
L 126.358267 591.925938 
L 135.869631 591.925938 
L 135.869631 591.925938 
L 145.380994 591.925938 
L 145.380994 591.925938 
L 154.892358 591.925938 
L 154.892358 591.925938 
L 164.403722 591.925938 
L 164.403722 581.336327 
L 173.915085 581.336327 
L 173.915085 581.336327 
L 183.426449 581.336327 
L 183.426449 591.925938 
L 192.937813 591.925938 
L 192.937813 576.041522 
L 202.449176 576.041522 
L 202.449176 591.925938 
L 211.96054 591.925938 
L 211.96054 591.925938 
L 221.471903 591.925938 
L 221.471903 586.631132 
L 230.983267 586.631132 
L 230.983267 591.925938 
L 240.494631 591.925938 
L 240.494631 591.925938 
L 250.005994 591.925938 
L 250.005994 591.925938 
L 259.517358 591.925938 
L 259.517358 581.336327 
L 269.028722 581.336327 
L 269.028722 586.631132 
L 278.540085 586.631132 
L 278.540085 591.925938 
L 288.051449 591.925938 
L 288.051449 581.336327 
L 297.562813 581.336327 
L 297.562813 591.925938 
L 307.074176 591.925938 
L 307.074176 576.041522 
L 316.58554 576.041522 
L 316.58554 591.925938 
L 326.096903 591.925938 
L 326.096903 586.631132 
L 335.608267 586.631132 
L 335.608267 586.631132 
L 345.119631 586.631132 
L 345.119631 576.041522 
L 354.630994 576.041522 
L 354.630994 581.336327 
L 364.142358 581.336327 
L 364.142358 586.631132 
L 373.653722 586.631132 
L 373.653722 544.272691 
L 383.165085 544.272691 
L 383.165085 581.336327 
L 392.676449 581.336327 
L 392.676449 533.68308 
L 402.187812 533.68308 
L 402.187812 570.746717 
L 411.699176 570.746717 
L 411.699176 570.746717 
L 421.21054 570.746717 
L 421.21054 565.451912 
L 430.721903 565.451912 
L 430.721903 538.977886 
L 440.233267 538.977886 
L 440.233267 507.209054 
L 449.744631 507.209054 
L 449.744631 507.209054 
L 459.255994 507.209054 
L 459.255994 512.50386 
L 468.767358 512.50386 
L 468.767358 496.619444 
L 478.278722 496.619444 
L 478.278722 422.492171 
L 487.790085 422.492171 
L 487.790085 369.544119 
L 497.301449 369.544119 
L 497.301449 237.173989 
L 506.812813 237.173989 
L 506.812813 263.648015 
L 516.324176 263.648015 
L 516.324176 433.081782 
L 525.83554 433.081782 
L 525.83554 448.966197 
L 535.346903 448.966197 
L 535.346903 475.440223 
L 544.858267 475.440223 
L 544.858267 464.850613 
L 554.369631 464.850613 
L 554.369631 517.798665 
L 563.880994 517.798665 
L 563.880994 544.272691 
L 573.392358 544.272691 
L 573.392358 523.09347 
L 582.903722 523.09347 
L 582.903722 570.746717 
L 592.415085 570.746717 
L 592.415085 560.157106 
L 601.926449 560.157106 
L 601.926449 565.451912 
L 611.437812 565.451912 
L 611.437812 554.862301 
L 620.949176 554.862301 
L 620.949176 549.567496 
L 630.46054 549.567496 
L 630.46054 570.746717 
L 639.971903 570.746717 
L 639.971903 576.041522 
L 649.483267 576.041522 
L 649.483267 586.631132 
L 658.994631 586.631132 
L 658.994631 581.336327 
L 668.505994 581.336327 
L 668.505994 586.631132 
L 678.017358 586.631132 
L 678.017358 586.631132 
L 687.528722 586.631132 
L 687.528722 581.336327 
L 697.040085 581.336327 
L 697.040085 565.451912 
L 706.551449 565.451912 
L 706.551449 586.631132 
L 716.062812 586.631132 
L 716.062812 581.336327 
L 725.574176 581.336327 
L 725.574176 591.925938 
L 735.08554 591.925938 
L 735.08554 576.041522 
L 744.596903 576.041522 
L 744.596903 586.631132 
L 754.108267 586.631132 
L 754.108267 591.925938 
L 763.619631 591.925938 
L 763.619631 591.925938 
L 773.130994 591.925938 
L 773.130994 591.925938 
L 782.642358 591.925938 
L 782.642358 591.925938 
L 792.153722 591.925938 
L 792.153722 591.925938 
L 801.665085 591.925938 
L 801.665085 591.925938 
L 811.176449 591.925938 
L 811.176449 591.925938 
L 820.687812 591.925938 
L 820.687812 591.925938 
L 830.199176 591.925938 
L 830.199176 586.631132 
L 839.71054 586.631132 
L 839.71054 591.925938 
L 849.221903 591.925938 
L 849.221903 591.925938 
L 858.733267 591.925938 
L 858.733267 591.925938 
L 868.244631 591.925938 
L 868.244631 581.336327 
L 877.755994 581.336327 
L 877.755994 591.925938 
L 887.267358 591.925938 
L 887.267358 591.925938 
L 877.755994 591.925938 
L 877.755994 591.925938 
L 868.244631 591.925938 
L 868.244631 591.925938 
L 858.733267 591.925938 
L 858.733267 591.925938 
L 849.221903 591.925938 
L 849.221903 591.925938 
L 839.71054 591.925938 
L 839.71054 591.925938 
L 830.199176 591.925938 
L 830.199176 591.925938 
L 820.687812 591.925938 
L 820.687812 591.925938 
L 811.176449 591.925938 
L 811.176449 591.925938 
L 801.665085 591.925938 
L 801.665085 591.925938 
L 792.153722 591.925938 
L 792.153722 591.925938 
L 782.642358 591.925938 
L 782.642358 591.925938 
L 773.130994 591.925938 
L 773.130994 591.925938 
L 763.619631 591.925938 
L 763.619631 591.925938 
L 754.108267 591.925938 
L 754.108267 591.925938 
L 744.596903 591.925938 
L 744.596903 591.925938 
L 735.08554 591.925938 
L 735.08554 591.925938 
L 725.574176 591.925938 
L 725.574176 591.925938 
L 716.062812 591.925938 
L 716.062812 591.925938 
L 706.551449 591.925938 
L 706.551449 591.925938 
L 697.040085 591.925938 
L 697.040085 591.925938 
L 687.528722 591.925938 
L 687.528722 591.925938 
L 678.017358 591.925938 
L 678.017358 591.925938 
L 668.505994 591.925938 
L 668.505994 591.925938 
L 658.994631 591.925938 
L 658.994631 591.925938 
L 649.483267 591.925938 
L 649.483267 591.925938 
L 639.971903 591.925938 
L 639.971903 591.925938 
L 630.46054 591.925938 
L 630.46054 591.925938 
L 620.949176 591.925938 
L 620.949176 591.925938 
L 611.437812 591.925938 
L 611.437812 591.925938 
L 601.926449 591.925938 
L 601.926449 591.925938 
L 592.415085 591.925938 
L 592.415085 591.925938 
L 582.903722 591.925938 
L 582.903722 591.925938 
L 573.392358 591.925938 
L 573.392358 591.925938 
L 563.880994 591.925938 
L 563.880994 591.925938 
L 554.369631 591.925938 
L 554.369631 591.925938 
L 544.858267 591.925938 
L 544.858267 591.925938 
L 535.346903 591.925938 
L 535.346903 591.925938 
L 525.83554 591.925938 
L 525.83554 591.925938 
L 516.324176 591.925938 
L 516.324176 591.925938 
L 506.812813 591.925938 
L 506.812813 591.925938 
L 497.301449 591.925938 
L 497.301449 591.925938 
L 487.790085 591.925938 
L 487.790085 591.925938 
L 478.278722 591.925938 
L 478.278722 591.925938 
L 468.767358 591.925938 
L 468.767358 591.925938 
L 459.255994 591.925938 
L 459.255994 591.925938 
L 449.744631 591.925938 
L 449.744631 591.925938 
L 440.233267 591.925938 
L 440.233267 591.925938 
L 430.721903 591.925938 
L 430.721903 591.925938 
L 421.21054 591.925938 
L 421.21054 591.925938 
L 411.699176 591.925938 
L 411.699176 591.925938 
L 402.187812 591.925938 
L 402.187812 591.925938 
L 392.676449 591.925938 
L 392.676449 591.925938 
L 383.165085 591.925938 
L 383.165085 591.925938 
L 373.653722 591.925938 
L 373.653722 591.925938 
L 364.142358 591.925938 
L 364.142358 591.925938 
L 354.630994 591.925938 
L 354.630994 591.925938 
L 345.119631 591.925938 
L 345.119631 591.925938 
L 335.608267 591.925938 
L 335.608267 591.925938 
L 326.096903 591.925938 
L 326.096903 591.925938 
L 316.58554 591.925938 
L 316.58554 591.925938 
L 307.074176 591.925938 
L 307.074176 591.925938 
L 297.562813 591.925938 
L 297.562813 591.925938 
L 288.051449 591.925938 
L 288.051449 591.925938 
L 278.540085 591.925938 
L 278.540085 591.925938 
L 269.028722 591.925938 
L 269.028722 591.925938 
L 259.517358 591.925938 
L 259.517358 591.925938 
L 250.005994 591.925938 
L 250.005994 591.925938 
L 240.494631 591.925938 
L 240.494631 591.925938 
L 230.983267 591.925938 
L 230.983267 591.925938 
L 221.471903 591.925938 
L 221.471903 591.925938 
L 211.96054 591.925938 
L 211.96054 591.925938 
L 202.449176 591.925938 
L 202.449176 591.925938 
L 192.937813 591.925938 
L 192.937813 591.925938 
L 183.426449 591.925938 
L 183.426449 591.925938 
L 173.915085 591.925938 
L 173.915085 591.925938 
L 164.403722 591.925938 
L 164.403722 591.925938 
L 154.892358 591.925938 
L 154.892358 591.925938 
L 145.380994 591.925938 
L 145.380994 591.925938 
L 135.869631 591.925938 
L 135.869631 591.925938 
z
" style="fill:#39cc6e;"/>
   </g>
   <g id="patch_5">
    <path clip-path="url(#pcbfa221f50)" d="M 126.358267 591.925938 
L 126.358267 591.925938 
L 135.869631 591.925938 
L 135.869631 591.925938 
L 145.380994 591.925938 
L 145.380994 591.925938 
L 154.892358 591.925938 
L 154.892358 591.925938 
L 164.403722 591.925938 
L 164.403722 591.925938 
L 173.915085 591.925938 
L 173.915085 591.925938 
L 183.426449 591.925938 
L 183.426449 591.925938 
L 192.937813 591.925938 
L 192.937813 591.925938 
L 202.449176 591.925938 
L 202.449176 591.925938 
L 211.96054 591.925938 
L 211.96054 591.925938 
L 221.471903 591.925938 
L 221.471903 591.925938 
L 230.983267 591.925938 
L 230.983267 591.925938 
L 240.494631 591.925938 
L 240.494631 591.925938 
L 250.005994 591.925938 
L 250.005994 591.925938 
L 259.517358 591.925938 
L 259.517358 591.925938 
L 269.028722 591.925938 
L 269.028722 591.925938 
L 278.540085 591.925938 
L 278.540085 591.925938 
L 288.051449 591.925938 
L 288.051449 591.925938 
L 297.562813 591.925938 
L 297.562813 591.925938 
L 307.074176 591.925938 
L 307.074176 591.925938 
L 316.58554 591.925938 
L 316.58554 591.925938 
L 326.096903 591.925938 
L 326.096903 591.925938 
L 335.608267 591.925938 
L 335.608267 591.925938 
L 345.119631 591.925938 
L 345.119631 591.925938 
L 354.630994 591.925938 
L 354.630994 586.631132 
L 364.142358 586.631132 
L 364.142358 591.925938 
L 373.653722 591.925938 
L 373.653722 591.925938 
L 383.165085 591.925938 
L 383.165085 586.631132 
L 392.676449 586.631132 
L 392.676449 586.631132 
L 402.187812 586.631132 
L 402.187812 591.925938 
L 411.699176 591.925938 
L 411.699176 591.925938 
L 421.21054 591.925938 
L 421.21054 586.631132 
L 430.721903 586.631132 
L 430.721903 591.925938 
L 440.233267 591.925938 
L 440.233267 586.631132 
L 449.744631 586.631132 
L 449.744631 581.336327 
L 459.255994 581.336327 
L 459.255994 576.041522 
L 468.767358 576.041522 
L 468.767358 560.157106 
L 478.278722 560.157106 
L 478.278722 533.68308 
L 487.790085 533.68308 
L 487.790085 496.619444 
L 497.301449 496.619444 
L 497.301449 411.902561 
L 506.812813 411.902561 
L 506.812813 417.197366 
L 516.324176 417.197366 
L 516.324176 544.272691 
L 525.83554 544.272691 
L 525.83554 554.862301 
L 535.346903 554.862301 
L 535.346903 570.746717 
L 544.858267 570.746717 
L 544.858267 591.925938 
L 554.369631 591.925938 
L 554.369631 581.336327 
L 563.880994 581.336327 
L 563.880994 586.631132 
L 573.392358 586.631132 
L 573.392358 581.336327 
L 582.903722 581.336327 
L 582.903722 586.631132 
L 592.415085 586.631132 
L 592.415085 581.336327 
L 601.926449 581.336327 
L 601.926449 591.925938 
L 611.437812 591.925938 
L 611.437812 581.336327 
L 620.949176 581.336327 
L 620.949176 591.925938 
L 630.46054 591.925938 
L 630.46054 591.925938 
L 639.971903 591.925938 
L 639.971903 591.925938 
L 649.483267 591.925938 
L 649.483267 591.925938 
L 658.994631 591.925938 
L 658.994631 586.631132 
L 668.505994 586.631132 
L 668.505994 591.925938 
L 678.017358 591.925938 
L 678.017358 591.925938 
L 687.528722 591.925938 
L 687.528722 591.925938 
L 697.040085 591.925938 
L 697.040085 591.925938 
L 706.551449 591.925938 
L 706.551449 591.925938 
L 716.062812 591.925938 
L 716.062812 591.925938 
L 725.574176 591.925938 
L 725.574176 591.925938 
L 735.08554 591.925938 
L 735.08554 591.925938 
L 744.596903 591.925938 
L 744.596903 591.925938 
L 754.108267 591.925938 
L 754.108267 591.925938 
L 763.619631 591.925938 
L 763.619631 591.925938 
L 773.130994 591.925938 
L 773.130994 591.925938 
L 782.642358 591.925938 
L 782.642358 591.925938 
L 792.153722 591.925938 
L 792.153722 591.925938 
L 801.665085 591.925938 
L 801.665085 591.925938 
L 811.176449 591.925938 
L 811.176449 591.925938 
L 820.687812 591.925938 
L 820.687812 591.925938 
L 830.199176 591.925938 
L 830.199176 591.925938 
L 839.71054 591.925938 
L 839.71054 591.925938 
L 849.221903 591.925938 
L 849.221903 591.925938 
L 858.733267 591.925938 
L 858.733267 591.925938 
L 868.244631 591.925938 
L 868.244631 591.925938 
L 877.755994 591.925938 
L 877.755994 591.925938 
L 887.267358 591.925938 
L 887.267358 591.925938 
L 877.755994 591.925938 
L 877.755994 591.925938 
L 868.244631 591.925938 
L 868.244631 591.925938 
L 858.733267 591.925938 
L 858.733267 591.925938 
L 849.221903 591.925938 
L 849.221903 591.925938 
L 839.71054 591.925938 
L 839.71054 591.925938 
L 830.199176 591.925938 
L 830.199176 591.925938 
L 820.687812 591.925938 
L 820.687812 591.925938 
L 811.176449 591.925938 
L 811.176449 591.925938 
L 801.665085 591.925938 
L 801.665085 591.925938 
L 792.153722 591.925938 
L 792.153722 591.925938 
L 782.642358 591.925938 
L 782.642358 591.925938 
L 773.130994 591.925938 
L 773.130994 591.925938 
L 763.619631 591.925938 
L 763.619631 591.925938 
L 754.108267 591.925938 
L 754.108267 591.925938 
L 744.596903 591.925938 
L 744.596903 591.925938 
L 735.08554 591.925938 
L 735.08554 591.925938 
L 725.574176 591.925938 
L 725.574176 591.925938 
L 716.062812 591.925938 
L 716.062812 591.925938 
L 706.551449 591.925938 
L 706.551449 591.925938 
L 697.040085 591.925938 
L 697.040085 591.925938 
L 687.528722 591.925938 
L 687.528722 591.925938 
L 678.017358 591.925938 
L 678.017358 591.925938 
L 668.505994 591.925938 
L 668.505994 591.925938 
L 658.994631 591.925938 
L 658.994631 591.925938 
L 649.483267 591.925938 
L 649.483267 591.925938 
L 639.971903 591.925938 
L 639.971903 591.925938 
L 630.46054 591.925938 
L 630.46054 591.925938 
L 620.949176 591.925938 
L 620.949176 591.925938 
L 611.437812 591.925938 
L 611.437812 591.925938 
L 601.926449 591.925938 
L 601.926449 591.925938 
L 592.415085 591.925938 
L 592.415085 591.925938 
L 582.903722 591.925938 
L 582.903722 591.925938 
L 573.392358 591.925938 
L 573.392358 591.925938 
L 563.880994 591.925938 
L 563.880994 591.925938 
L 554.369631 591.925938 
L 554.369631 591.925938 
L 544.858267 591.925938 
L 544.858267 591.925938 
L 535.346903 591.925938 
L 535.346903 591.925938 
L 525.83554 591.925938 
L 525.83554 591.925938 
L 516.324176 591.925938 
L 516.324176 591.925938 
L 506.812813 591.925938 
L 506.812813 591.925938 
L 497.301449 591.925938 
L 497.301449 591.925938 
L 487.790085 591.925938 
L 487.790085 591.925938 
L 478.278722 591.925938 
L 478.278722 591.925938 
L 468.767358 591.925938 
L 468.767358 591.925938 
L 459.255994 591.925938 
L 459.255994 591.925938 
L 449.744631 591.925938 
L 449.744631 591.925938 
L 440.233267 591.925938 
L 440.233267 591.925938 
L 430.721903 591.925938 
L 430.721903 591.925938 
L 421.21054 591.925938 
L 421.21054 591.925938 
L 411.699176 591.925938 
L 411.699176 591.925938 
L 402.187812 591.925938 
L 402.187812 591.925938 
L 392.676449 591.925938 
L 392.676449 591.925938 
L 383.165085 591.925938 
L 383.165085 591.925938 
L 373.653722 591.925938 
L 373.653722 591.925938 
L 364.142358 591.925938 
L 364.142358 591.925938 
L 354.630994 591.925938 
L 354.630994 591.925938 
L 345.119631 591.925938 
L 345.119631 591.925938 
L 335.608267 591.925938 
L 335.608267 591.925938 
L 326.096903 591.925938 
L 326.096903 591.925938 
L 316.58554 591.925938 
L 316.58554 591.925938 
L 307.074176 591.925938 
L 307.074176 591.925938 
L 297.562813 591.925938 
L 297.562813 591.925938 
L 288.051449 591.925938 
L 288.051449 591.925938 
L 278.540085 591.925938 
L 278.540085 591.925938 
L 269.028722 591.925938 
L 269.028722 591.925938 
L 259.517358 591.925938 
L 259.517358 591.925938 
L 250.005994 591.925938 
L 250.005994 591.925938 
L 240.494631 591.925938 
L 240.494631 591.925938 
L 230.983267 591.925938 
L 230.983267 591.925938 
L 221.471903 591.925938 
L 221.471903 591.925938 
L 211.96054 591.925938 
L 211.96054 591.925938 
L 202.449176 591.925938 
L 202.449176 591.925938 
L 192.937813 591.925938 
L 192.937813 591.925938 
L 183.426449 591.925938 
L 183.426449 591.925938 
L 173.915085 591.925938 
L 173.915085 591.925938 
L 164.403722 591.925938 
L 164.403722 591.925938 
L 154.892358 591.925938 
L 154.892358 591.925938 
L 145.380994 591.925938 
L 145.380994 591.925938 
L 135.869631 591.925938 
L 135.869631 591.925938 
z
" style="fill:#f8ed73;"/>
   </g>
   <g id="patch_6">
    <path clip-path="url(#pcbfa221f50)" d="M 126.358267 591.925938 
L 126.358267 591.925938 
L 135.869631 591.925938 
L 135.869631 591.925938 
L 145.380994 591.925938 
L 145.380994 591.925938 
L 154.892358 591.925938 
L 154.892358 591.925938 
L 164.403722 591.925938 
L 164.403722 591.925938 
L 173.915085 591.925938 
L 173.915085 591.925938 
L 183.426449 591.925938 
L 183.426449 591.925938 
L 192.937813 591.925938 
L 192.937813 591.925938 
L 202.449176 591.925938 
L 202.449176 591.925938 
L 211.96054 591.925938 
L 211.96054 586.631132 
L 221.471903 586.631132 
L 221.471903 591.925938 
L 230.983267 591.925938 
L 230.983267 591.925938 
L 240.494631 591.925938 
L 240.494631 591.925938 
L 250.005994 591.925938 
L 250.005994 591.925938 
L 259.517358 591.925938 
L 259.517358 591.925938 
L 269.028722 591.925938 
L 269.028722 591.925938 
L 278.540085 591.925938 
L 278.540085 591.925938 
L 288.051449 591.925938 
L 288.051449 591.925938 
L 297.562813 591.925938 
L 297.562813 591.925938 
L 307.074176 591.925938 
L 307.074176 591.925938 
L 316.58554 591.925938 
L 316.58554 591.925938 
L 326.096903 591.925938 
L 326.096903 591.925938 
L 335.608267 591.925938 
L 335.608267 591.925938 
L 345.119631 591.925938 
L 345.119631 591.925938 
L 354.630994 591.925938 
L 354.630994 591.925938 
L 364.142358 591.925938 
L 364.142358 570.746717 
L 373.653722 570.746717 
L 373.653722 591.925938 
L 383.165085 591.925938 
L 383.165085 586.631132 
L 392.676449 586.631132 
L 392.676449 581.336327 
L 402.187812 581.336327 
L 402.187812 591.925938 
L 411.699176 591.925938 
L 411.699176 586.631132 
L 421.21054 586.631132 
L 421.21054 586.631132 
L 430.721903 586.631132 
L 430.721903 591.925938 
L 440.233267 591.925938 
L 440.233267 586.631132 
L 449.744631 586.631132 
L 449.744631 591.925938 
L 459.255994 591.925938 
L 459.255994 581.336327 
L 468.767358 581.336327 
L 468.767358 591.925938 
L 478.278722 591.925938 
L 478.278722 576.041522 
L 487.790085 576.041522 
L 487.790085 570.746717 
L 497.301449 570.746717 
L 497.301449 565.451912 
L 506.812813 565.451912 
L 506.812813 565.451912 
L 516.324176 565.451912 
L 516.324176 576.041522 
L 525.83554 576.041522 
L 525.83554 591.925938 
L 535.346903 591.925938 
L 535.346903 586.631132 
L 544.858267 586.631132 
L 544.858267 586.631132 
L 554.369631 586.631132 
L 554.369631 586.631132 
L 563.880994 586.631132 
L 563.880994 591.925938 
L 573.392358 591.925938 
L 573.392358 591.925938 
L 582.903722 591.925938 
L 582.903722 591.925938 
L 592.415085 591.925938 
L 592.415085 591.925938 
L 601.926449 591.925938 
L 601.926449 586.631132 
L 611.437812 586.631132 
L 611.437812 591.925938 
L 620.949176 591.925938 
L 620.949176 591.925938 
L 630.46054 591.925938 
L 630.46054 591.925938 
L 639.971903 591.925938 
L 639.971903 586.631132 
L 649.483267 586.631132 
L 649.483267 591.925938 
L 658.994631 591.925938 
L 658.994631 586.631132 
L 668.505994 586.631132 
L 668.505994 591.925938 
L 678.017358 591.925938 
L 678.017358 591.925938 
L 687.528722 591.925938 
L 687.528722 591.925938 
L 697.040085 591.925938 
L 697.040085 591.925938 
L 706.551449 591.925938 
L 706.551449 586.631132 
L 716.062812 586.631132 
L 716.062812 591.925938 
L 725.574176 591.925938 
L 725.574176 591.925938 
L 735.08554 591.925938 
L 735.08554 591.925938 
L 744.596903 591.925938 
L 744.596903 591.925938 
L 754.108267 591.925938 
L 754.108267 591.925938 
L 763.619631 591.925938 
L 763.619631 591.925938 
L 773.130994 591.925938 
L 773.130994 591.925938 
L 782.642358 591.925938 
L 782.642358 591.925938 
L 792.153722 591.925938 
L 792.153722 591.925938 
L 801.665085 591.925938 
L 801.665085 591.925938 
L 811.176449 591.925938 
L 811.176449 591.925938 
L 820.687812 591.925938 
L 820.687812 591.925938 
L 830.199176 591.925938 
L 830.199176 591.925938 
L 839.71054 591.925938 
L 839.71054 591.925938 
L 849.221903 591.925938 
L 849.221903 591.925938 
L 858.733267 591.925938 
L 858.733267 591.925938 
L 868.244631 591.925938 
L 868.244631 591.925938 
L 877.755994 591.925938 
L 877.755994 591.925938 
L 887.267358 591.925938 
L 887.267358 591.925938 
L 877.755994 591.925938 
L 877.755994 591.925938 
L 868.244631 591.925938 
L 868.244631 591.925938 
L 858.733267 591.925938 
L 858.733267 591.925938 
L 849.221903 591.925938 
L 849.221903 591.925938 
L 839.71054 591.925938 
L 839.71054 591.925938 
L 830.199176 591.925938 
L 830.199176 591.925938 
L 820.687812 591.925938 
L 820.687812 591.925938 
L 811.176449 591.925938 
L 811.176449 591.925938 
L 801.665085 591.925938 
L 801.665085 591.925938 
L 792.153722 591.925938 
L 792.153722 591.925938 
L 782.642358 591.925938 
L 782.642358 591.925938 
L 773.130994 591.925938 
L 773.130994 591.925938 
L 763.619631 591.925938 
L 763.619631 591.925938 
L 754.108267 591.925938 
L 754.108267 591.925938 
L 744.596903 591.925938 
L 744.596903 591.925938 
L 735.08554 591.925938 
L 735.08554 591.925938 
L 725.574176 591.925938 
L 725.574176 591.925938 
L 716.062812 591.925938 
L 716.062812 591.925938 
L 706.551449 591.925938 
L 706.551449 591.925938 
L 697.040085 591.925938 
L 697.040085 591.925938 
L 687.528722 591.925938 
L 687.528722 591.925938 
L 678.017358 591.925938 
L 678.017358 591.925938 
L 668.505994 591.925938 
L 668.505994 591.925938 
L 658.994631 591.925938 
L 658.994631 591.925938 
L 649.483267 591.925938 
L 649.483267 591.925938 
L 639.971903 591.925938 
L 639.971903 591.925938 
L 630.46054 591.925938 
L 630.46054 591.925938 
L 620.949176 591.925938 
L 620.949176 591.925938 
L 611.437812 591.925938 
L 611.437812 591.925938 
L 601.926449 591.925938 
L 601.926449 591.925938 
L 592.415085 591.925938 
L 592.415085 591.925938 
L 582.903722 591.925938 
L 582.903722 591.925938 
L 573.392358 591.925938 
L 573.392358 591.925938 
L 563.880994 591.925938 
L 563.880994 591.925938 
L 554.369631 591.925938 
L 554.369631 591.925938 
L 544.858267 591.925938 
L 544.858267 591.925938 
L 535.346903 591.925938 
L 535.346903 591.925938 
L 525.83554 591.925938 
L 525.83554 591.925938 
L 516.324176 591.925938 
L 516.324176 591.925938 
L 506.812813 591.925938 
L 506.812813 591.925938 
L 497.301449 591.925938 
L 497.301449 591.925938 
L 487.790085 591.925938 
L 487.790085 591.925938 
L 478.278722 591.925938 
L 478.278722 591.925938 
L 468.767358 591.925938 
L 468.767358 591.925938 
L 459.255994 591.925938 
L 459.255994 591.925938 
L 449.744631 591.925938 
L 449.744631 591.925938 
L 440.233267 591.925938 
L 440.233267 591.925938 
L 430.721903 591.925938 
L 430.721903 591.925938 
L 421.21054 591.925938 
L 421.21054 591.925938 
L 411.699176 591.925938 
L 411.699176 591.925938 
L 402.187812 591.925938 
L 402.187812 591.925938 
L 392.676449 591.925938 
L 392.676449 591.925938 
L 383.165085 591.925938 
L 383.165085 591.925938 
L 373.653722 591.925938 
L 373.653722 591.925938 
L 364.142358 591.925938 
L 364.142358 591.925938 
L 354.630994 591.925938 
L 354.630994 591.925938 
L 345.119631 591.925938 
L 345.119631 591.925938 
L 335.608267 591.925938 
L 335.608267 591.925938 
L 326.096903 591.925938 
L 326.096903 591.925938 
L 316.58554 591.925938 
L 316.58554 591.925938 
L 307.074176 591.925938 
L 307.074176 591.925938 
L 297.562813 591.925938 
L 297.562813 591.925938 
L 288.051449 591.925938 
L 288.051449 591.925938 
L 278.540085 591.925938 
L 278.540085 591.925938 
L 269.028722 591.925938 
L 269.028722 591.925938 
L 259.517358 591.925938 
L 259.517358 591.925938 
L 250.005994 591.925938 
L 250.005994 591.925938 
L 240.494631 591.925938 
L 240.494631 591.925938 
L 230.983267 591.925938 
L 230.983267 591.925938 
L 221.471903 591.925938 
L 221.471903 591.925938 
L 211.96054 591.925938 
L 211.96054 591.925938 
L 202.449176 591.925938 
L 202.449176 591.925938 
L 192.937813 591.925938 
L 192.937813 591.925938 
L 183.426449 591.925938 
L 183.426449 591.925938 
L 173.915085 591.925938 
L 173.915085 591.925938 
L 164.403722 591.925938 
L 164.403722 591.925938 
L 154.892358 591.925938 
L 154.892358 591.925938 
L 145.380994 591.925938 
L 145.380994 591.925938 
L 135.869631 591.925938 
L 135.869631 591.925938 
z
" style="fill:#f48a1e;"/>
   </g>
   <g id="patch_7">
    <path clip-path="url(#pcbfa221f50)" d="M 126.358267 591.925938 
L 126.358267 591.925938 
L 135.869631 591.925938 
L 135.869631 591.925938 
L 145.380994 591.925938 
L 145.380994 591.925938 
L 154.892358 591.925938 
L 154.892358 591.925938 
L 164.403722 591.925938 
L 164.403722 591.925938 
L 173.915085 591.925938 
L 173.915085 591.925938 
L 183.426449 591.925938 
L 183.426449 591.925938 
L 192.937813 591.925938 
L 192.937813 591.925938 
L 202.449176 591.925938 
L 202.449176 591.925938 
L 211.96054 591.925938 
L 211.96054 591.925938 
L 221.471903 591.925938 
L 221.471903 591.925938 
L 230.983267 591.925938 
L 230.983267 591.925938 
L 240.494631 591.925938 
L 240.494631 591.925938 
L 250.005994 591.925938 
L 250.005994 591.925938 
L 259.517358 591.925938 
L 259.517358 591.925938 
L 269.028722 591.925938 
L 269.028722 591.925938 
L 278.540085 591.925938 
L 278.540085 591.925938 
L 288.051449 591.925938 
L 288.051449 591.925938 
L 297.562813 591.925938 
L 297.562813 591.925938 
L 307.074176 591.925938 
L 307.074176 591.925938 
L 316.58554 591.925938 
L 316.58554 591.925938 
L 326.096903 591.925938 
L 326.096903 591.925938 
L 335.608267 591.925938 
L 335.608267 591.925938 
L 345.119631 591.925938 
L 345.119631 586.631132 
L 354.630994 586.631132 
L 354.630994 591.925938 
L 364.142358 591.925938 
L 364.142358 591.925938 
L 373.653722 591.925938 
L 373.653722 591.925938 
L 383.165085 591.925938 
L 383.165085 591.925938 
L 392.676449 591.925938 
L 392.676449 591.925938 
L 402.187812 591.925938 
L 402.187812 591.925938 
L 411.699176 591.925938 
L 411.699176 591.925938 
L 421.21054 591.925938 
L 421.21054 591.925938 
L 430.721903 591.925938 
L 430.721903 591.925938 
L 440.233267 591.925938 
L 440.233267 591.925938 
L 449.744631 591.925938 
L 449.744631 586.631132 
L 459.255994 586.631132 
L 459.255994 591.925938 
L 468.767358 591.925938 
L 468.767358 591.925938 
L 478.278722 591.925938 
L 478.278722 591.925938 
L 487.790085 591.925938 
L 487.790085 581.336327 
L 497.301449 581.336327 
L 497.301449 565.451912 
L 506.812813 565.451912 
L 506.812813 586.631132 
L 516.324176 586.631132 
L 516.324176 591.925938 
L 525.83554 591.925938 
L 525.83554 591.925938 
L 535.346903 591.925938 
L 535.346903 591.925938 
L 544.858267 591.925938 
L 544.858267 591.925938 
L 554.369631 591.925938 
L 554.369631 591.925938 
L 563.880994 591.925938 
L 563.880994 591.925938 
L 573.392358 591.925938 
L 573.392358 591.925938 
L 582.903722 591.925938 
L 582.903722 591.925938 
L 592.415085 591.925938 
L 592.415085 591.925938 
L 601.926449 591.925938 
L 601.926449 591.925938 
L 611.437812 591.925938 
L 611.437812 591.925938 
L 620.949176 591.925938 
L 620.949176 591.925938 
L 630.46054 591.925938 
L 630.46054 591.925938 
L 639.971903 591.925938 
L 639.971903 591.925938 
L 649.483267 591.925938 
L 649.483267 591.925938 
L 658.994631 591.925938 
L 658.994631 591.925938 
L 668.505994 591.925938 
L 668.505994 591.925938 
L 678.017358 591.925938 
L 678.017358 591.925938 
L 687.528722 591.925938 
L 687.528722 591.925938 
L 697.040085 591.925938 
L 697.040085 591.925938 
L 706.551449 591.925938 
L 706.551449 591.925938 
L 716.062812 591.925938 
L 716.062812 591.925938 
L 725.574176 591.925938 
L 725.574176 591.925938 
L 735.08554 591.925938 
L 735.08554 591.925938 
L 744.596903 591.925938 
L 744.596903 591.925938 
L 754.108267 591.925938 
L 754.108267 591.925938 
L 763.619631 591.925938 
L 763.619631 591.925938 
L 773.130994 591.925938 
L 773.130994 591.925938 
L 782.642358 591.925938 
L 782.642358 591.925938 
L 792.153722 591.925938 
L 792.153722 591.925938 
L 801.665085 591.925938 
L 801.665085 591.925938 
L 811.176449 591.925938 
L 811.176449 591.925938 
L 820.687812 591.925938 
L 820.687812 591.925938 
L 830.199176 591.925938 
L 830.199176 591.925938 
L 839.71054 591.925938 
L 839.71054 591.925938 
L 849.221903 591.925938 
L 849.221903 591.925938 
L 858.733267 591.925938 
L 858.733267 591.925938 
L 868.244631 591.925938 
L 868.244631 591.925938 
L 877.755994 591.925938 
L 877.755994 591.925938 
L 887.267358 591.925938 
L 887.267358 591.925938 
L 877.755994 591.925938 
L 877.755994 591.925938 
L 868.244631 591.925938 
L 868.244631 591.925938 
L 858.733267 591.925938 
L 858.733267 591.925938 
L 849.221903 591.925938 
L 849.221903 591.925938 
L 839.71054 591.925938 
L 839.71054 591.925938 
L 830.199176 591.925938 
L 830.199176 591.925938 
L 820.687812 591.925938 
L 820.687812 591.925938 
L 811.176449 591.925938 
L 811.176449 591.925938 
L 801.665085 591.925938 
L 801.665085 591.925938 
L 792.153722 591.925938 
L 792.153722 591.925938 
L 782.642358 591.925938 
L 782.642358 591.925938 
L 773.130994 591.925938 
L 773.130994 591.925938 
L 763.619631 591.925938 
L 763.619631 591.925938 
L 754.108267 591.925938 
L 754.108267 591.925938 
L 744.596903 591.925938 
L 744.596903 591.925938 
L 735.08554 591.925938 
L 735.08554 591.925938 
L 725.574176 591.925938 
L 725.574176 591.925938 
L 716.062812 591.925938 
L 716.062812 591.925938 
L 706.551449 591.925938 
L 706.551449 591.925938 
L 697.040085 591.925938 
L 697.040085 591.925938 
L 687.528722 591.925938 
L 687.528722 591.925938 
L 678.017358 591.925938 
L 678.017358 591.925938 
L 668.505994 591.925938 
L 668.505994 591.925938 
L 658.994631 591.925938 
L 658.994631 591.925938 
L 649.483267 591.925938 
L 649.483267 591.925938 
L 639.971903 591.925938 
L 639.971903 591.925938 
L 630.46054 591.925938 
L 630.46054 591.925938 
L 620.949176 591.925938 
L 620.949176 591.925938 
L 611.437812 591.925938 
L 611.437812 591.925938 
L 601.926449 591.925938 
L 601.926449 591.925938 
L 592.415085 591.925938 
L 592.415085 591.925938 
L 582.903722 591.925938 
L 582.903722 591.925938 
L 573.392358 591.925938 
L 573.392358 591.925938 
L 563.880994 591.925938 
L 563.880994 591.925938 
L 554.369631 591.925938 
L 554.369631 591.925938 
L 544.858267 591.925938 
L 544.858267 591.925938 
L 535.346903 591.925938 
L 535.346903 591.925938 
L 525.83554 591.925938 
L 525.83554 591.925938 
L 516.324176 591.925938 
L 516.324176 591.925938 
L 506.812813 591.925938 
L 506.812813 591.925938 
L 497.301449 591.925938 
L 497.301449 591.925938 
L 487.790085 591.925938 
L 487.790085 591.925938 
L 478.278722 591.925938 
L 478.278722 591.925938 
L 468.767358 591.925938 
L 468.767358 591.925938 
L 459.255994 591.925938 
L 459.255994 591.925938 
L 449.744631 591.925938 
L 449.744631 591.925938 
L 440.233267 591.925938 
L 440.233267 591.925938 
L 430.721903 591.925938 
L 430.721903 591.925938 
L 421.21054 591.925938 
L 421.21054 591.925938 
L 411.699176 591.925938 
L 411.699176 591.925938 
L 402.187812 591.925938 
L 402.187812 591.925938 
L 392.676449 591.925938 
L 392.676449 591.925938 
L 383.165085 591.925938 
L 383.165085 591.925938 
L 373.653722 591.925938 
L 373.653722 591.925938 
L 364.142358 591.925938 
L 364.142358 591.925938 
L 354.630994 591.925938 
L 354.630994 591.925938 
L 345.119631 591.925938 
L 345.119631 591.925938 
L 335.608267 591.925938 
L 335.608267 591.925938 
L 326.096903 591.925938 
L 326.096903 591.925938 
L 316.58554 591.925938 
L 316.58554 591.925938 
L 307.074176 591.925938 
L 307.074176 591.925938 
L 297.562813 591.925938 
L 297.562813 591.925938 
L 288.051449 591.925938 
L 288.051449 591.925938 
L 278.540085 591.925938 
L 278.540085 591.925938 
L 269.028722 591.925938 
L 269.028722 591.925938 
L 259.517358 591.925938 
L 259.517358 591.925938 
L 250.005994 591.925938 
L 250.005994 591.925938 
L 240.494631 591.925938 
L 240.494631 591.925938 
L 230.983267 591.925938 
L 230.983267 591.925938 
L 221.471903 591.925938 
L 221.471903 591.925938 
L 211.96054 591.925938 
L 211.96054 591.925938 
L 202.449176 591.925938 
L 202.449176 591.925938 
L 192.937813 591.925938 
L 192.937813 591.925938 
L 183.426449 591.925938 
L 183.426449 591.925938 
L 173.915085 591.925938 
L 173.915085 591.925938 
L 164.403722 591.925938 
L 164.403722 591.925938 
L 154.892358 591.925938 
L 154.892358 591.925938 
L 145.380994 591.925938 
L 145.380994 591.925938 
L 135.869631 591.925938 
L 135.869631 591.925938 
z
" style="fill:#ea3647;"/>
   </g>
   <g id="matplotlib.axis_1">
    <g id="xtick_1">
     <g id="line2d_1">
      <defs>
       <path d="M 0 0 
L 0 3.5 
" id="mdf8a8ed584" style="stroke:#000000;stroke-width:0.8;"/>
      </defs>
      <g>
       <use style="stroke:#000000;stroke-width:0.8;" x="126.358267" xlink:href="#mdf8a8ed584" y="591.925938"/>
      </g>
     </g>
     <g id="text_1">
      <!-- −0.10 -->
      <defs>
       <path d="M 10.59375 35.5 
L 73.1875 35.5 
L 73.1875 27.203125 
L 10.59375 27.203125 
z
" id="DejaVuSans-8722"/>
       <path d="M 31.78125 66.40625 
Q 24.171875 66.40625 20.328125 58.90625 
Q 16.5 51.421875 16.5 36.375 
Q 16.5 21.390625 20.328125 13.890625 
Q 24.171875 6.390625 31.78125 6.390625 
Q 39.453125 6.390625 43.28125 13.890625 
Q 47.125 21.390625 47.125 36.375 
Q 47.125 51.421875 43.28125 58.90625 
Q 39.453125 66.40625 31.78125 66.40625 
z
M 31.78125 74.21875 
Q 44.046875 74.21875 50.515625 64.515625 
Q 56.984375 54.828125 56.984375 36.375 
Q 56.984375 17.96875 50.515625 8.265625 
Q 44.046875 -1.421875 31.78125 -1.421875 
Q 19.53125 -1.421875 13.0625 8.265625 
Q 6.59375 17.96875 6.59375 36.375 
Q 6.59375 54.828125 13.0625 64.515625 
Q 19.53125 74.21875 31.78125 74.21875 
z
" id="DejaVuSans-48"/>
       <path d="M 10.6875 12.40625 
L 21 12.40625 
L 21 0 
L 10.6875 0 
z
" id="DejaVuSans-46"/>
       <path d="M 12.40625 8.296875 
L 28.515625 8.296875 
L 28.515625 63.921875 
L 10.984375 60.40625 
L 10.984375 69.390625 
L 28.421875 72.90625 
L 38.28125 72.90625 
L 38.28125 8.296875 
L 54.390625 8.296875 
L 54.390625 0 
L 12.40625 0 
z
" id="DejaVuSans-49"/>
      </defs>
      <g transform="translate(80.390298 621.72125)scale(0.3 -0.3)">
       <use xlink:href="#DejaVuSans-8722"/>
       <use x="83.789062" xlink:href="#DejaVuSans-48"/>
       <use x="147.412109" xlink:href="#DejaVuSans-46"/>
       <use x="179.199219" xlink:href="#DejaVuSans-49"/>
       <use x="242.822266" xlink:href="#DejaVuSans-48"/>
      </g>
     </g>
    </g>
    <g id="xtick_2">
     <g id="line2d_2">
      <g>
       <use style="stroke:#000000;stroke-width:0.8;" x="316.58554" xlink:href="#mdf8a8ed584" y="591.925938"/>
      </g>
     </g>
     <g id="text_2">
      <!-- −0.05 -->
      <defs>
       <path d="M 10.796875 72.90625 
L 49.515625 72.90625 
L 49.515625 64.59375 
L 19.828125 64.59375 
L 19.828125 46.734375 
Q 21.96875 47.46875 24.109375 47.828125 
Q 26.265625 48.1875 28.421875 48.1875 
Q 40.625 48.1875 47.75 41.5 
Q 54.890625 34.8125 54.890625 23.390625 
Q 54.890625 11.625 47.5625 5.09375 
Q 40.234375 -1.421875 26.90625 -1.421875 
Q 22.3125 -1.421875 17.546875 -0.640625 
Q 12.796875 0.140625 7.71875 1.703125 
L 7.71875 11.625 
Q 12.109375 9.234375 16.796875 8.0625 
Q 21.484375 6.890625 26.703125 6.890625 
Q 35.15625 6.890625 40.078125 11.328125 
Q 45.015625 15.765625 45.015625 23.390625 
Q 45.015625 31 40.078125 35.4375 
Q 35.15625 39.890625 26.703125 39.890625 
Q 22.75 39.890625 18.8125 39.015625 
Q 14.890625 38.140625 10.796875 36.28125 
z
" id="DejaVuSans-53"/>
      </defs>
      <g transform="translate(270.617571 621.72125)scale(0.3 -0.3)">
       <use xlink:href="#DejaVuSans-8722"/>
       <use x="83.789062" xlink:href="#DejaVuSans-48"/>
       <use x="147.412109" xlink:href="#DejaVuSans-46"/>
       <use x="179.199219" xlink:href="#DejaVuSans-48"/>
       <use x="242.822266" xlink:href="#DejaVuSans-53"/>
      </g>
     </g>
    </g>
    <g id="xtick_3">
     <g id="line2d_3">
      <g>
       <use style="stroke:#000000;stroke-width:0.8;" x="506.812813" xlink:href="#mdf8a8ed584" y="591.925938"/>
      </g>
     </g>
     <g id="text_3">
      <!-- 0.00 -->
      <g transform="translate(473.414375 621.72125)scale(0.3 -0.3)">
       <use xlink:href="#DejaVuSans-48"/>
       <use x="63.623047" xlink:href="#DejaVuSans-46"/>
       <use x="95.410156" xlink:href="#DejaVuSans-48"/>
       <use x="159.033203" xlink:href="#DejaVuSans-48"/>
      </g>
     </g>
    </g>
    <g id="xtick_4">
     <g id="line2d_4">
      <g>
       <use style="stroke:#000000;stroke-width:0.8;" x="697.040085" xlink:href="#mdf8a8ed584" y="591.925938"/>
      </g>
     </g>
     <g id="text_4">
      <!-- 0.05 -->
      <g transform="translate(663.641648 621.72125)scale(0.3 -0.3)">
       <use xlink:href="#DejaVuSans-48"/>
       <use x="63.623047" xlink:href="#DejaVuSans-46"/>
       <use x="95.410156" xlink:href="#DejaVuSans-48"/>
       <use x="159.033203" xlink:href="#DejaVuSans-53"/>
      </g>
     </g>
    </g>
    <g id="xtick_5">
     <g id="line2d_5">
      <g>
       <use style="stroke:#000000;stroke-width:0.8;" x="887.267358" xlink:href="#mdf8a8ed584" y="591.925938"/>
      </g>
     </g>
     <g id="text_5">
      <!-- 0.10 -->
      <g transform="translate(853.86892 621.72125)scale(0.3 -0.3)">
       <use xlink:href="#DejaVuSans-48"/>
       <use x="63.623047" xlink:href="#DejaVuSans-46"/>
       <use x="95.410156" xlink:href="#DejaVuSans-49"/>
       <use x="159.033203" xlink:href="#DejaVuSans-48"/>
      </g>
     </g>
    </g>
    <g id="text_6">
     <!-- $\Delta E = E^{SCAN} - E^{GGA}$ (eV/atom) -->
     <defs>
      <path d="M 34.1875 63.1875 
L 14.15625 8.203125 
L 54.25 8.203125 
z
M 0.78125 0 
L 28.609375 72.90625 
L 39.796875 72.90625 
L 67.578125 0 
z
" id="DejaVuSans-916"/>
      <path d="M 16.890625 72.90625 
L 62.984375 72.90625 
L 61.375 64.59375 
L 25.09375 64.59375 
L 20.90625 43.015625 
L 55.71875 43.015625 
L 54.109375 34.71875 
L 19.28125 34.71875 
L 14.203125 8.296875 
L 51.3125 8.296875 
L 49.703125 0 
L 2.6875 0 
z
" id="DejaVuSans-Oblique-69"/>
      <path d="M 10.59375 45.40625 
L 73.1875 45.40625 
L 73.1875 37.203125 
L 10.59375 37.203125 
z
M 10.59375 25.484375 
L 73.1875 25.484375 
L 73.1875 17.1875 
L 10.59375 17.1875 
z
" id="DejaVuSans-61"/>
      <path d="M 60.296875 70.515625 
L 58.40625 60.890625 
Q 53.46875 63.53125 48.609375 64.875 
Q 43.75 66.21875 39.203125 66.21875 
Q 30.375 66.21875 25.140625 62.359375 
Q 19.921875 58.5 19.921875 52.09375 
Q 19.921875 48.578125 21.84375 46.703125 
Q 23.78125 44.828125 31.78125 42.671875 
L 37.703125 41.21875 
Q 47.703125 38.625 51.609375 34.640625 
Q 55.515625 30.671875 55.515625 23.484375 
Q 55.515625 12.453125 46.84375 5.515625 
Q 38.1875 -1.421875 24.03125 -1.421875 
Q 18.21875 -1.421875 12.359375 -0.265625 
Q 6.5 0.875 0.59375 3.21875 
L 2.59375 13.375 
Q 8.015625 10.015625 13.453125 8.296875 
Q 18.890625 6.59375 24.3125 6.59375 
Q 33.546875 6.59375 39.109375 10.6875 
Q 44.671875 14.796875 44.671875 21.390625 
Q 44.671875 25.78125 42.453125 28.046875 
Q 40.234375 30.328125 32.90625 32.171875 
L 27 33.6875 
Q 16.890625 36.328125 13.203125 39.765625 
Q 9.515625 43.21875 9.515625 49.421875 
Q 9.515625 60.296875 17.890625 67.25 
Q 26.265625 74.21875 39.703125 74.21875 
Q 44.921875 74.21875 50.046875 73.28125 
Q 55.171875 72.359375 60.296875 70.515625 
z
" id="DejaVuSans-Oblique-83"/>
      <path d="M 69.484375 67.28125 
L 67.484375 56.890625 
Q 62.796875 61.625 57.546875 63.921875 
Q 52.296875 66.21875 46.1875 66.21875 
Q 37.84375 66.21875 31.515625 62.203125 
Q 25.203125 58.203125 20.609375 50 
Q 17.671875 44.734375 16.125 38.84375 
Q 14.59375 32.953125 14.59375 27 
Q 14.59375 17.046875 19.75 11.8125 
Q 24.90625 6.59375 34.71875 6.59375 
Q 41.5 6.59375 47.75 8.765625 
Q 54 10.9375 59.90625 15.28125 
L 57.625 3.609375 
Q 51.8125 1.125 45.875 -0.140625 
Q 39.9375 -1.421875 33.984375 -1.421875 
Q 19.96875 -1.421875 12.078125 6.1875 
Q 4.203125 13.8125 4.203125 27.390625 
Q 4.203125 36.078125 7.203125 44.46875 
Q 10.203125 52.875 15.828125 59.8125 
Q 21.78125 67.1875 29.421875 70.703125 
Q 37.0625 74.21875 47.21875 74.21875 
Q 53.46875 74.21875 59.0625 72.484375 
Q 64.65625 70.75 69.484375 67.28125 
z
" id="DejaVuSans-Oblique-67"/>
      <path d="M 36.8125 72.90625 
L 48 72.90625 
L 61.53125 0 
L 51.21875 0 
L 48.1875 18.703125 
L 15.375 18.703125 
L 5.078125 0 
L -5.328125 0 
z
M 40.375 63.1875 
L 19.921875 26.90625 
L 46.6875 26.90625 
z
" id="DejaVuSans-Oblique-65"/>
      <path d="M 16.890625 72.90625 
L 30.171875 72.90625 
L 50.296875 10.40625 
L 62.5 72.90625 
L 72.125 72.90625 
L 57.90625 0 
L 44.578125 0 
L 24.515625 62.890625 
L 12.3125 0 
L 2.6875 0 
z
" id="DejaVuSans-Oblique-78"/>
      <path d="M 54.59375 10.890625 
L 58.40625 29.984375 
L 42.1875 29.984375 
L 43.703125 38.09375 
L 69.578125 38.09375 
L 63.28125 6 
Q 56.78125 2.4375 49.109375 0.5 
Q 41.453125 -1.421875 33.6875 -1.421875 
Q 19.96875 -1.421875 12.234375 6.1875 
Q 4.5 13.8125 4.5 27.390625 
Q 4.5 38.671875 9.203125 48.84375 
Q 13.921875 59.03125 22.21875 65.828125 
Q 27.4375 70.0625 33.640625 72.140625 
Q 39.84375 74.21875 47.40625 74.21875 
Q 54.25 74.21875 60.515625 72.484375 
Q 66.796875 70.75 72.515625 67.28125 
L 70.515625 56.78125 
Q 66.109375 61.375 60.203125 63.796875 
Q 54.296875 66.21875 47.609375 66.21875 
Q 39.84375 66.21875 33.9375 63.25 
Q 28.03125 60.296875 23.390625 54.109375 
Q 19.4375 48.828125 17.15625 41.671875 
Q 14.890625 34.515625 14.890625 27.09375 
Q 14.890625 16.890625 20.109375 11.734375 
Q 25.34375 6.59375 35.6875 6.59375 
Q 40.875 6.59375 45.703125 7.6875 
Q 50.53125 8.796875 54.59375 10.890625 
z
" id="DejaVuSans-Oblique-71"/>
      <path id="DejaVuSans-32"/>
      <path d="M 31 75.875 
Q 24.46875 64.65625 21.28125 53.65625 
Q 18.109375 42.671875 18.109375 31.390625 
Q 18.109375 20.125 21.3125 9.0625 
Q 24.515625 -2 31 -13.1875 
L 23.1875 -13.1875 
Q 15.875 -1.703125 12.234375 9.375 
Q 8.59375 20.453125 8.59375 31.390625 
Q 8.59375 42.28125 12.203125 53.3125 
Q 15.828125 64.359375 23.1875 75.875 
z
" id="DejaVuSans-40"/>
      <path d="M 56.203125 29.59375 
L 56.203125 25.203125 
L 14.890625 25.203125 
Q 15.484375 15.921875 20.484375 11.0625 
Q 25.484375 6.203125 34.421875 6.203125 
Q 39.59375 6.203125 44.453125 7.46875 
Q 49.3125 8.734375 54.109375 11.28125 
L 54.109375 2.78125 
Q 49.265625 0.734375 44.1875 -0.34375 
Q 39.109375 -1.421875 33.890625 -1.421875 
Q 20.796875 -1.421875 13.15625 6.1875 
Q 5.515625 13.8125 5.515625 26.8125 
Q 5.515625 40.234375 12.765625 48.109375 
Q 20.015625 56 32.328125 56 
Q 43.359375 56 49.78125 48.890625 
Q 56.203125 41.796875 56.203125 29.59375 
z
M 47.21875 32.234375 
Q 47.125 39.59375 43.09375 43.984375 
Q 39.0625 48.390625 32.421875 48.390625 
Q 24.90625 48.390625 20.390625 44.140625 
Q 15.875 39.890625 15.1875 32.171875 
z
" id="DejaVuSans-101"/>
      <path d="M 28.609375 0 
L 0.78125 72.90625 
L 11.078125 72.90625 
L 34.1875 11.53125 
L 57.328125 72.90625 
L 67.578125 72.90625 
L 39.796875 0 
z
" id="DejaVuSans-86"/>
      <path d="M 25.390625 72.90625 
L 33.6875 72.90625 
L 8.296875 -9.28125 
L 0 -9.28125 
z
" id="DejaVuSans-47"/>
      <path d="M 34.28125 27.484375 
Q 23.390625 27.484375 19.1875 25 
Q 14.984375 22.515625 14.984375 16.5 
Q 14.984375 11.71875 18.140625 8.90625 
Q 21.296875 6.109375 26.703125 6.109375 
Q 34.1875 6.109375 38.703125 11.40625 
Q 43.21875 16.703125 43.21875 25.484375 
L 43.21875 27.484375 
z
M 52.203125 31.203125 
L 52.203125 0 
L 43.21875 0 
L 43.21875 8.296875 
Q 40.140625 3.328125 35.546875 0.953125 
Q 30.953125 -1.421875 24.3125 -1.421875 
Q 15.921875 -1.421875 10.953125 3.296875 
Q 6 8.015625 6 15.921875 
Q 6 25.140625 12.171875 29.828125 
Q 18.359375 34.515625 30.609375 34.515625 
L 43.21875 34.515625 
L 43.21875 35.40625 
Q 43.21875 41.609375 39.140625 45 
Q 35.0625 48.390625 27.6875 48.390625 
Q 23 48.390625 18.546875 47.265625 
Q 14.109375 46.140625 10.015625 43.890625 
L 10.015625 52.203125 
Q 14.9375 54.109375 19.578125 55.046875 
Q 24.21875 56 28.609375 56 
Q 40.484375 56 46.34375 49.84375 
Q 52.203125 43.703125 52.203125 31.203125 
z
" id="DejaVuSans-97"/>
      <path d="M 18.3125 70.21875 
L 18.3125 54.6875 
L 36.8125 54.6875 
L 36.8125 47.703125 
L 18.3125 47.703125 
L 18.3125 18.015625 
Q 18.3125 11.328125 20.140625 9.421875 
Q 21.96875 7.515625 27.59375 7.515625 
L 36.8125 7.515625 
L 36.8125 0 
L 27.59375 0 
Q 17.1875 0 13.234375 3.875 
Q 9.28125 7.765625 9.28125 18.015625 
L 9.28125 47.703125 
L 2.6875 47.703125 
L 2.6875 54.6875 
L 9.28125 54.6875 
L 9.28125 70.21875 
z
" id="DejaVuSans-116"/>
      <path d="M 30.609375 48.390625 
Q 23.390625 48.390625 19.1875 42.75 
Q 14.984375 37.109375 14.984375 27.296875 
Q 14.984375 17.484375 19.15625 11.84375 
Q 23.34375 6.203125 30.609375 6.203125 
Q 37.796875 6.203125 41.984375 11.859375 
Q 46.1875 17.53125 46.1875 27.296875 
Q 46.1875 37.015625 41.984375 42.703125 
Q 37.796875 48.390625 30.609375 48.390625 
z
M 30.609375 56 
Q 42.328125 56 49.015625 48.375 
Q 55.71875 40.765625 55.71875 27.296875 
Q 55.71875 13.875 49.015625 6.21875 
Q 42.328125 -1.421875 30.609375 -1.421875 
Q 18.84375 -1.421875 12.171875 6.21875 
Q 5.515625 13.875 5.515625 27.296875 
Q 5.515625 40.765625 12.171875 48.375 
Q 18.84375 56 30.609375 56 
z
" id="DejaVuSans-111"/>
      <path d="M 52 44.1875 
Q 55.375 50.25 60.0625 53.125 
Q 64.75 56 71.09375 56 
Q 79.640625 56 84.28125 50.015625 
Q 88.921875 44.046875 88.921875 33.015625 
L 88.921875 0 
L 79.890625 0 
L 79.890625 32.71875 
Q 79.890625 40.578125 77.09375 44.375 
Q 74.3125 48.1875 68.609375 48.1875 
Q 61.625 48.1875 57.5625 43.546875 
Q 53.515625 38.921875 53.515625 30.90625 
L 53.515625 0 
L 44.484375 0 
L 44.484375 32.71875 
Q 44.484375 40.625 41.703125 44.40625 
Q 38.921875 48.1875 33.109375 48.1875 
Q 26.21875 48.1875 22.15625 43.53125 
Q 18.109375 38.875 18.109375 30.90625 
L 18.109375 0 
L 9.078125 0 
L 9.078125 54.6875 
L 18.109375 54.6875 
L 18.109375 46.1875 
Q 21.1875 51.21875 25.484375 53.609375 
Q 29.78125 56 35.6875 56 
Q 41.65625 56 45.828125 52.96875 
Q 50 49.953125 52 44.1875 
z
" id="DejaVuSans-109"/>
      <path d="M 8.015625 75.875 
L 15.828125 75.875 
Q 23.140625 64.359375 26.78125 53.3125 
Q 30.421875 42.28125 30.421875 31.390625 
Q 30.421875 20.453125 26.78125 9.375 
Q 23.140625 -1.703125 15.828125 -13.1875 
L 8.015625 -13.1875 
Q 14.5 -2 17.703125 9.0625 
Q 20.90625 20.125 20.90625 31.390625 
Q 20.90625 42.671875 17.703125 53.65625 
Q 14.5 64.65625 8.015625 75.875 
z
" id="DejaVuSans-41"/>
     </defs>
     <g transform="translate(274.822812 659.747344)scale(0.33 -0.33)">
      <use transform="translate(0 0.765625)" xlink:href="#DejaVuSans-916"/>
      <use transform="translate(68.408203 0.765625)" xlink:href="#DejaVuSans-Oblique-69"/>
      <use transform="translate(151.074219 0.765625)" xlink:href="#DejaVuSans-61"/>
      <use transform="translate(254.345703 0.765625)" xlink:href="#DejaVuSans-Oblique-69"/>
      <use transform="translate(324.546068 39.046875)scale(0.7)" xlink:href="#DejaVuSans-Oblique-83"/>
      <use transform="translate(368.979661 39.046875)scale(0.7)" xlink:href="#DejaVuSans-Oblique-67"/>
      <use transform="translate(417.856615 39.046875)scale(0.7)" xlink:href="#DejaVuSans-Oblique-65"/>
      <use transform="translate(465.742357 39.046875)scale(0.7)" xlink:href="#DejaVuSans-Oblique-78"/>
      <use transform="translate(540.322435 0.765625)" xlink:href="#DejaVuSans-8722"/>
      <use transform="translate(643.593919 0.765625)" xlink:href="#DejaVuSans-Oblique-69"/>
      <use transform="translate(713.794284 39.046875)scale(0.7)" xlink:href="#DejaVuSans-Oblique-71"/>
      <use transform="translate(768.037448 39.046875)scale(0.7)" xlink:href="#DejaVuSans-Oblique-71"/>
      <use transform="translate(822.280612 39.046875)scale(0.7)" xlink:href="#DejaVuSans-Oblique-65"/>
      <use transform="translate(872.900729 0.765625)" xlink:href="#DejaVuSans-32"/>
      <use transform="translate(904.687839 0.765625)" xlink:href="#DejaVuSans-40"/>
      <use transform="translate(943.70151 0.765625)" xlink:href="#DejaVuSans-101"/>
      <use transform="translate(1005.224948 0.765625)" xlink:href="#DejaVuSans-86"/>
      <use transform="translate(1073.633151 0.765625)" xlink:href="#DejaVuSans-47"/>
      <use transform="translate(1107.324557 0.765625)" xlink:href="#DejaVuSans-97"/>
      <use transform="translate(1168.603854 0.765625)" xlink:href="#DejaVuSans-116"/>
      <use transform="translate(1207.812839 0.765625)" xlink:href="#DejaVuSans-111"/>
      <use transform="translate(1268.994479 0.765625)" xlink:href="#DejaVuSans-109"/>
      <use transform="translate(1366.406589 0.765625)" xlink:href="#DejaVuSans-41"/>
     </g>
    </g>
   </g>
   <g id="matplotlib.axis_2">
    <g id="ytick_1">
     <g id="line2d_6">
      <defs>
       <path d="M 0 0 
L -3.5 0 
" id="m19bf434712" style="stroke:#000000;stroke-width:0.8;"/>
      </defs>
      <g>
       <use style="stroke:#000000;stroke-width:0.8;" x="88.312813" xlink:href="#m19bf434712" y="591.925938"/>
      </g>
     </g>
     <g id="text_7">
      <!-- 0 -->
      <g transform="translate(62.225313 603.323594)scale(0.3 -0.3)">
       <use xlink:href="#DejaVuSans-48"/>
      </g>
     </g>
    </g>
    <g id="ytick_2">
     <g id="line2d_7">
      <g>
       <use style="stroke:#000000;stroke-width:0.8;" x="88.312813" xlink:href="#m19bf434712" y="486.029834"/>
      </g>
     </g>
     <g id="text_8">
      <!-- 20 -->
      <defs>
       <path d="M 19.1875 8.296875 
L 53.609375 8.296875 
L 53.609375 0 
L 7.328125 0 
L 7.328125 8.296875 
Q 12.9375 14.109375 22.625 23.890625 
Q 32.328125 33.6875 34.8125 36.53125 
Q 39.546875 41.84375 41.421875 45.53125 
Q 43.3125 49.21875 43.3125 52.78125 
Q 43.3125 58.59375 39.234375 62.25 
Q 35.15625 65.921875 28.609375 65.921875 
Q 23.96875 65.921875 18.8125 64.3125 
Q 13.671875 62.703125 7.8125 59.421875 
L 7.8125 69.390625 
Q 13.765625 71.78125 18.9375 73 
Q 24.125 74.21875 28.421875 74.21875 
Q 39.75 74.21875 46.484375 68.546875 
Q 53.21875 62.890625 53.21875 53.421875 
Q 53.21875 48.921875 51.53125 44.890625 
Q 49.859375 40.875 45.40625 35.40625 
Q 44.1875 33.984375 37.640625 27.21875 
Q 31.109375 20.453125 19.1875 8.296875 
z
" id="DejaVuSans-50"/>
      </defs>
      <g transform="translate(43.137813 497.42749)scale(0.3 -0.3)">
       <use xlink:href="#DejaVuSans-50"/>
       <use x="63.623047" xlink:href="#DejaVuSans-48"/>
      </g>
     </g>
    </g>
    <g id="ytick_3">
     <g id="line2d_8">
      <g>
       <use style="stroke:#000000;stroke-width:0.8;" x="88.312813" xlink:href="#m19bf434712" y="380.13373"/>
      </g>
     </g>
     <g id="text_9">
      <!-- 40 -->
      <defs>
       <path d="M 37.796875 64.3125 
L 12.890625 25.390625 
L 37.796875 25.390625 
z
M 35.203125 72.90625 
L 47.609375 72.90625 
L 47.609375 25.390625 
L 58.015625 25.390625 
L 58.015625 17.1875 
L 47.609375 17.1875 
L 47.609375 0 
L 37.796875 0 
L 37.796875 17.1875 
L 4.890625 17.1875 
L 4.890625 26.703125 
z
" id="DejaVuSans-52"/>
      </defs>
      <g transform="translate(43.137813 391.531386)scale(0.3 -0.3)">
       <use xlink:href="#DejaVuSans-52"/>
       <use x="63.623047" xlink:href="#DejaVuSans-48"/>
      </g>
     </g>
    </g>
    <g id="ytick_4">
     <g id="line2d_9">
      <g>
       <use style="stroke:#000000;stroke-width:0.8;" x="88.312813" xlink:href="#m19bf434712" y="274.237626"/>
      </g>
     </g>
     <g id="text_10">
      <!-- 60 -->
      <defs>
       <path d="M 33.015625 40.375 
Q 26.375 40.375 22.484375 35.828125 
Q 18.609375 31.296875 18.609375 23.390625 
Q 18.609375 15.53125 22.484375 10.953125 
Q 26.375 6.390625 33.015625 6.390625 
Q 39.65625 6.390625 43.53125 10.953125 
Q 47.40625 15.53125 47.40625 23.390625 
Q 47.40625 31.296875 43.53125 35.828125 
Q 39.65625 40.375 33.015625 40.375 
z
M 52.59375 71.296875 
L 52.59375 62.3125 
Q 48.875 64.0625 45.09375 64.984375 
Q 41.3125 65.921875 37.59375 65.921875 
Q 27.828125 65.921875 22.671875 59.328125 
Q 17.53125 52.734375 16.796875 39.40625 
Q 19.671875 43.65625 24.015625 45.921875 
Q 28.375 48.1875 33.59375 48.1875 
Q 44.578125 48.1875 50.953125 41.515625 
Q 57.328125 34.859375 57.328125 23.390625 
Q 57.328125 12.15625 50.6875 5.359375 
Q 44.046875 -1.421875 33.015625 -1.421875 
Q 20.359375 -1.421875 13.671875 8.265625 
Q 6.984375 17.96875 6.984375 36.375 
Q 6.984375 53.65625 15.1875 63.9375 
Q 23.390625 74.21875 37.203125 74.21875 
Q 40.921875 74.21875 44.703125 73.484375 
Q 48.484375 72.75 52.59375 71.296875 
z
" id="DejaVuSans-54"/>
      </defs>
      <g transform="translate(43.137813 285.635282)scale(0.3 -0.3)">
       <use xlink:href="#DejaVuSans-54"/>
       <use x="63.623047" xlink:href="#DejaVuSans-48"/>
      </g>
     </g>
    </g>
    <g id="ytick_5">
     <g id="line2d_10">
      <g>
       <use style="stroke:#000000;stroke-width:0.8;" x="88.312813" xlink:href="#m19bf434712" y="168.341522"/>
      </g>
     </g>
     <g id="text_11">
      <!-- 80 -->
      <defs>
       <path d="M 31.78125 34.625 
Q 24.75 34.625 20.71875 30.859375 
Q 16.703125 27.09375 16.703125 20.515625 
Q 16.703125 13.921875 20.71875 10.15625 
Q 24.75 6.390625 31.78125 6.390625 
Q 38.8125 6.390625 42.859375 10.171875 
Q 46.921875 13.96875 46.921875 20.515625 
Q 46.921875 27.09375 42.890625 30.859375 
Q 38.875 34.625 31.78125 34.625 
z
M 21.921875 38.8125 
Q 15.578125 40.375 12.03125 44.71875 
Q 8.5 49.078125 8.5 55.328125 
Q 8.5 64.0625 14.71875 69.140625 
Q 20.953125 74.21875 31.78125 74.21875 
Q 42.671875 74.21875 48.875 69.140625 
Q 55.078125 64.0625 55.078125 55.328125 
Q 55.078125 49.078125 51.53125 44.71875 
Q 48 40.375 41.703125 38.8125 
Q 48.828125 37.15625 52.796875 32.3125 
Q 56.78125 27.484375 56.78125 20.515625 
Q 56.78125 9.90625 50.3125 4.234375 
Q 43.84375 -1.421875 31.78125 -1.421875 
Q 19.734375 -1.421875 13.25 4.234375 
Q 6.78125 9.90625 6.78125 20.515625 
Q 6.78125 27.484375 10.78125 32.3125 
Q 14.796875 37.15625 21.921875 38.8125 
z
M 18.3125 54.390625 
Q 18.3125 48.734375 21.84375 45.5625 
Q 25.390625 42.390625 31.78125 42.390625 
Q 38.140625 42.390625 41.71875 45.5625 
Q 45.3125 48.734375 45.3125 54.390625 
Q 45.3125 60.0625 41.71875 63.234375 
Q 38.140625 66.40625 31.78125 66.40625 
Q 25.390625 66.40625 21.84375 63.234375 
Q 18.3125 60.0625 18.3125 54.390625 
z
" id="DejaVuSans-56"/>
      </defs>
      <g transform="translate(43.137813 179.739178)scale(0.3 -0.3)">
       <use xlink:href="#DejaVuSans-56"/>
       <use x="63.623047" xlink:href="#DejaVuSans-48"/>
      </g>
     </g>
    </g>
    <g id="text_12">
     <!-- Count -->
     <defs>
      <path d="M 64.40625 67.28125 
L 64.40625 56.890625 
Q 59.421875 61.53125 53.78125 63.8125 
Q 48.140625 66.109375 41.796875 66.109375 
Q 29.296875 66.109375 22.65625 58.46875 
Q 16.015625 50.828125 16.015625 36.375 
Q 16.015625 21.96875 22.65625 14.328125 
Q 29.296875 6.6875 41.796875 6.6875 
Q 48.140625 6.6875 53.78125 8.984375 
Q 59.421875 11.28125 64.40625 15.921875 
L 64.40625 5.609375 
Q 59.234375 2.09375 53.4375 0.328125 
Q 47.65625 -1.421875 41.21875 -1.421875 
Q 24.65625 -1.421875 15.125 8.703125 
Q 5.609375 18.84375 5.609375 36.375 
Q 5.609375 53.953125 15.125 64.078125 
Q 24.65625 74.21875 41.21875 74.21875 
Q 47.75 74.21875 53.53125 72.484375 
Q 59.328125 70.75 64.40625 67.28125 
z
" id="DejaVuSans-67"/>
      <path d="M 8.5 21.578125 
L 8.5 54.6875 
L 17.484375 54.6875 
L 17.484375 21.921875 
Q 17.484375 14.15625 20.5 10.265625 
Q 23.53125 6.390625 29.59375 6.390625 
Q 36.859375 6.390625 41.078125 11.03125 
Q 45.3125 15.671875 45.3125 23.6875 
L 45.3125 54.6875 
L 54.296875 54.6875 
L 54.296875 0 
L 45.3125 0 
L 45.3125 8.40625 
Q 42.046875 3.421875 37.71875 1 
Q 33.40625 -1.421875 27.6875 -1.421875 
Q 18.265625 -1.421875 13.375 4.4375 
Q 8.5 10.296875 8.5 21.578125 
z
M 31.109375 56 
z
" id="DejaVuSans-117"/>
      <path d="M 54.890625 33.015625 
L 54.890625 0 
L 45.90625 0 
L 45.90625 32.71875 
Q 45.90625 40.484375 42.875 44.328125 
Q 39.84375 48.1875 33.796875 48.1875 
Q 26.515625 48.1875 22.3125 43.546875 
Q 18.109375 38.921875 18.109375 30.90625 
L 18.109375 0 
L 9.078125 0 
L 9.078125 54.6875 
L 18.109375 54.6875 
L 18.109375 46.1875 
Q 21.34375 51.125 25.703125 53.5625 
Q 30.078125 56 35.796875 56 
Q 45.21875 56 50.046875 50.171875 
Q 54.890625 44.34375 54.890625 33.015625 
z
" id="DejaVuSans-110"/>
     </defs>
     <g transform="translate(32.274844 396.305781)rotate(-90)scale(0.33 -0.33)">
      <use xlink:href="#DejaVuSans-67"/>
      <use x="69.824219" xlink:href="#DejaVuSans-111"/>
      <use x="131.005859" xlink:href="#DejaVuSans-117"/>
      <use x="194.384766" xlink:href="#DejaVuSans-110"/>
      <use x="257.763672" xlink:href="#DejaVuSans-116"/>
     </g>
    </g>
   </g>
   <g id="line2d_11">
    <path clip-path="url(#pcbfa221f50)" d="M 506.812813 591.925938 
L 506.812813 102.685938 
" style="fill:none;stroke:#000000;stroke-dasharray:7.4,3.2;stroke-dashoffset:0;stroke-width:2;"/>
   </g>
   <g id="patch_8">
    <path d="M 88.312813 591.925938 
L 88.312813 102.685938 
" style="fill:none;stroke:#000000;stroke-linecap:square;stroke-linejoin:miter;stroke-width:0.8;"/>
   </g>
   <g id="patch_9">
    <path d="M 925.312813 591.925938 
L 925.312813 102.685938 
" style="fill:none;stroke:#000000;stroke-linecap:square;stroke-linejoin:miter;stroke-width:0.8;"/>
   </g>
   <g id="patch_10">
    <path d="M 88.312813 591.925938 
L 925.312813 591.925938 
" style="fill:none;stroke:#000000;stroke-linecap:square;stroke-linejoin:miter;stroke-width:0.8;"/>
   </g>
   <g id="patch_11">
    <path d="M 88.312813 102.685938 
L 925.312813 102.685938 
" style="fill:none;stroke:#000000;stroke-linecap:square;stroke-linejoin:miter;stroke-width:0.8;"/>
   </g>
   <g id="text_13">
    <!-- Energy Comparisons for SCAN and GGA  -->
    <defs>
     <path d="M 9.8125 72.90625 
L 55.90625 72.90625 
L 55.90625 64.59375 
L 19.671875 64.59375 
L 19.671875 43.015625 
L 54.390625 43.015625 
L 54.390625 34.71875 
L 19.671875 34.71875 
L 19.671875 8.296875 
L 56.78125 8.296875 
L 56.78125 0 
L 9.8125 0 
z
" id="DejaVuSans-69"/>
     <path d="M 41.109375 46.296875 
Q 39.59375 47.171875 37.8125 47.578125 
Q 36.03125 48 33.890625 48 
Q 26.265625 48 22.1875 43.046875 
Q 18.109375 38.09375 18.109375 28.8125 
L 18.109375 0 
L 9.078125 0 
L 9.078125 54.6875 
L 18.109375 54.6875 
L 18.109375 46.1875 
Q 20.953125 51.171875 25.484375 53.578125 
Q 30.03125 56 36.53125 56 
Q 37.453125 56 38.578125 55.875 
Q 39.703125 55.765625 41.0625 55.515625 
z
" id="DejaVuSans-114"/>
     <path d="M 45.40625 27.984375 
Q 45.40625 37.75 41.375 43.109375 
Q 37.359375 48.484375 30.078125 48.484375 
Q 22.859375 48.484375 18.828125 43.109375 
Q 14.796875 37.75 14.796875 27.984375 
Q 14.796875 18.265625 18.828125 12.890625 
Q 22.859375 7.515625 30.078125 7.515625 
Q 37.359375 7.515625 41.375 12.890625 
Q 45.40625 18.265625 45.40625 27.984375 
z
M 54.390625 6.78125 
Q 54.390625 -7.171875 48.1875 -13.984375 
Q 42 -20.796875 29.203125 -20.796875 
Q 24.46875 -20.796875 20.265625 -20.09375 
Q 16.0625 -19.390625 12.109375 -17.921875 
L 12.109375 -9.1875 
Q 16.0625 -11.328125 19.921875 -12.34375 
Q 23.78125 -13.375 27.78125 -13.375 
Q 36.625 -13.375 41.015625 -8.765625 
Q 45.40625 -4.15625 45.40625 5.171875 
L 45.40625 9.625 
Q 42.625 4.78125 38.28125 2.390625 
Q 33.9375 0 27.875 0 
Q 17.828125 0 11.671875 7.65625 
Q 5.515625 15.328125 5.515625 27.984375 
Q 5.515625 40.671875 11.671875 48.328125 
Q 17.828125 56 27.875 56 
Q 33.9375 56 38.28125 53.609375 
Q 42.625 51.21875 45.40625 46.390625 
L 45.40625 54.6875 
L 54.390625 54.6875 
z
" id="DejaVuSans-103"/>
     <path d="M 32.171875 -5.078125 
Q 28.375 -14.84375 24.75 -17.8125 
Q 21.140625 -20.796875 15.09375 -20.796875 
L 7.90625 -20.796875 
L 7.90625 -13.28125 
L 13.1875 -13.28125 
Q 16.890625 -13.28125 18.9375 -11.515625 
Q 21 -9.765625 23.484375 -3.21875 
L 25.09375 0.875 
L 2.984375 54.6875 
L 12.5 54.6875 
L 29.59375 11.921875 
L 46.6875 54.6875 
L 56.203125 54.6875 
z
" id="DejaVuSans-121"/>
     <path d="M 18.109375 8.203125 
L 18.109375 -20.796875 
L 9.078125 -20.796875 
L 9.078125 54.6875 
L 18.109375 54.6875 
L 18.109375 46.390625 
Q 20.953125 51.265625 25.265625 53.625 
Q 29.59375 56 35.59375 56 
Q 45.5625 56 51.78125 48.09375 
Q 58.015625 40.1875 58.015625 27.296875 
Q 58.015625 14.40625 51.78125 6.484375 
Q 45.5625 -1.421875 35.59375 -1.421875 
Q 29.59375 -1.421875 25.265625 0.953125 
Q 20.953125 3.328125 18.109375 8.203125 
z
M 48.6875 27.296875 
Q 48.6875 37.203125 44.609375 42.84375 
Q 40.53125 48.484375 33.40625 48.484375 
Q 26.265625 48.484375 22.1875 42.84375 
Q 18.109375 37.203125 18.109375 27.296875 
Q 18.109375 17.390625 22.1875 11.75 
Q 26.265625 6.109375 33.40625 6.109375 
Q 40.53125 6.109375 44.609375 11.75 
Q 48.6875 17.390625 48.6875 27.296875 
z
" id="DejaVuSans-112"/>
     <path d="M 9.421875 54.6875 
L 18.40625 54.6875 
L 18.40625 0 
L 9.421875 0 
z
M 9.421875 75.984375 
L 18.40625 75.984375 
L 18.40625 64.59375 
L 9.421875 64.59375 
z
" id="DejaVuSans-105"/>
     <path d="M 44.28125 53.078125 
L 44.28125 44.578125 
Q 40.484375 46.53125 36.375 47.5 
Q 32.28125 48.484375 27.875 48.484375 
Q 21.1875 48.484375 17.84375 46.4375 
Q 14.5 44.390625 14.5 40.28125 
Q 14.5 37.15625 16.890625 35.375 
Q 19.28125 33.59375 26.515625 31.984375 
L 29.59375 31.296875 
Q 39.15625 29.25 43.1875 25.515625 
Q 47.21875 21.78125 47.21875 15.09375 
Q 47.21875 7.46875 41.1875 3.015625 
Q 35.15625 -1.421875 24.609375 -1.421875 
Q 20.21875 -1.421875 15.453125 -0.5625 
Q 10.6875 0.296875 5.421875 2 
L 5.421875 11.28125 
Q 10.40625 8.6875 15.234375 7.390625 
Q 20.0625 6.109375 24.8125 6.109375 
Q 31.15625 6.109375 34.5625 8.28125 
Q 37.984375 10.453125 37.984375 14.40625 
Q 37.984375 18.0625 35.515625 20.015625 
Q 33.0625 21.96875 24.703125 23.78125 
L 21.578125 24.515625 
Q 13.234375 26.265625 9.515625 29.90625 
Q 5.8125 33.546875 5.8125 39.890625 
Q 5.8125 47.609375 11.28125 51.796875 
Q 16.75 56 26.8125 56 
Q 31.78125 56 36.171875 55.265625 
Q 40.578125 54.546875 44.28125 53.078125 
z
" id="DejaVuSans-115"/>
     <path d="M 37.109375 75.984375 
L 37.109375 68.5 
L 28.515625 68.5 
Q 23.6875 68.5 21.796875 66.546875 
Q 19.921875 64.59375 19.921875 59.515625 
L 19.921875 54.6875 
L 34.71875 54.6875 
L 34.71875 47.703125 
L 19.921875 47.703125 
L 19.921875 0 
L 10.890625 0 
L 10.890625 47.703125 
L 2.296875 47.703125 
L 2.296875 54.6875 
L 10.890625 54.6875 
L 10.890625 58.5 
Q 10.890625 67.625 15.140625 71.796875 
Q 19.390625 75.984375 28.609375 75.984375 
z
" id="DejaVuSans-102"/>
     <path d="M 53.515625 70.515625 
L 53.515625 60.890625 
Q 47.90625 63.578125 42.921875 64.890625 
Q 37.9375 66.21875 33.296875 66.21875 
Q 25.25 66.21875 20.875 63.09375 
Q 16.5 59.96875 16.5 54.203125 
Q 16.5 49.359375 19.40625 46.890625 
Q 22.3125 44.4375 30.421875 42.921875 
L 36.375 41.703125 
Q 47.40625 39.59375 52.65625 34.296875 
Q 57.90625 29 57.90625 20.125 
Q 57.90625 9.515625 50.796875 4.046875 
Q 43.703125 -1.421875 29.984375 -1.421875 
Q 24.8125 -1.421875 18.96875 -0.25 
Q 13.140625 0.921875 6.890625 3.21875 
L 6.890625 13.375 
Q 12.890625 10.015625 18.65625 8.296875 
Q 24.421875 6.59375 29.984375 6.59375 
Q 38.421875 6.59375 43.015625 9.90625 
Q 47.609375 13.234375 47.609375 19.390625 
Q 47.609375 24.75 44.3125 27.78125 
Q 41.015625 30.8125 33.5 32.328125 
L 27.484375 33.5 
Q 16.453125 35.6875 11.515625 40.375 
Q 6.59375 45.0625 6.59375 53.421875 
Q 6.59375 63.09375 13.40625 68.65625 
Q 20.21875 74.21875 32.171875 74.21875 
Q 37.3125 74.21875 42.625 73.28125 
Q 47.953125 72.359375 53.515625 70.515625 
z
" id="DejaVuSans-83"/>
     <path d="M 34.1875 63.1875 
L 20.796875 26.90625 
L 47.609375 26.90625 
z
M 28.609375 72.90625 
L 39.796875 72.90625 
L 67.578125 0 
L 57.328125 0 
L 50.6875 18.703125 
L 17.828125 18.703125 
L 11.1875 0 
L 0.78125 0 
z
" id="DejaVuSans-65"/>
     <path d="M 9.8125 72.90625 
L 23.09375 72.90625 
L 55.421875 11.921875 
L 55.421875 72.90625 
L 64.984375 72.90625 
L 64.984375 0 
L 51.703125 0 
L 19.390625 60.984375 
L 19.390625 0 
L 9.8125 0 
z
" id="DejaVuSans-78"/>
     <path d="M 45.40625 46.390625 
L 45.40625 75.984375 
L 54.390625 75.984375 
L 54.390625 0 
L 45.40625 0 
L 45.40625 8.203125 
Q 42.578125 3.328125 38.25 0.953125 
Q 33.9375 -1.421875 27.875 -1.421875 
Q 17.96875 -1.421875 11.734375 6.484375 
Q 5.515625 14.40625 5.515625 27.296875 
Q 5.515625 40.1875 11.734375 48.09375 
Q 17.96875 56 27.875 56 
Q 33.9375 56 38.25 53.625 
Q 42.578125 51.265625 45.40625 46.390625 
z
M 14.796875 27.296875 
Q 14.796875 17.390625 18.875 11.75 
Q 22.953125 6.109375 30.078125 6.109375 
Q 37.203125 6.109375 41.296875 11.75 
Q 45.40625 17.390625 45.40625 27.296875 
Q 45.40625 37.203125 41.296875 42.84375 
Q 37.203125 48.484375 30.078125 48.484375 
Q 22.953125 48.484375 18.875 42.84375 
Q 14.796875 37.203125 14.796875 27.296875 
z
" id="DejaVuSans-100"/>
     <path d="M 59.515625 10.40625 
L 59.515625 29.984375 
L 43.40625 29.984375 
L 43.40625 38.09375 
L 69.28125 38.09375 
L 69.28125 6.78125 
Q 63.578125 2.734375 56.6875 0.65625 
Q 49.8125 -1.421875 42 -1.421875 
Q 24.90625 -1.421875 15.25 8.5625 
Q 5.609375 18.5625 5.609375 36.375 
Q 5.609375 54.25 15.25 64.234375 
Q 24.90625 74.21875 42 74.21875 
Q 49.125 74.21875 55.546875 72.453125 
Q 61.96875 70.703125 67.390625 67.28125 
L 67.390625 56.78125 
Q 61.921875 61.421875 55.765625 63.765625 
Q 49.609375 66.109375 42.828125 66.109375 
Q 29.4375 66.109375 22.71875 58.640625 
Q 16.015625 51.171875 16.015625 36.375 
Q 16.015625 21.625 22.71875 14.15625 
Q 29.4375 6.6875 42.828125 6.6875 
Q 48.046875 6.6875 52.140625 7.59375 
Q 56.25 8.5 59.515625 10.40625 
z
" id="DejaVuSans-71"/>
    </defs>
    <g transform="translate(128.590156 35.694141)scale(0.375 -0.375)">
     <use xlink:href="#DejaVuSans-69"/>
     <use x="63.183594" xlink:href="#DejaVuSans-110"/>
     <use x="126.5625" xlink:href="#DejaVuSans-101"/>
     <use x="188.085938" xlink:href="#DejaVuSans-114"/>
     <use x="227.449219" xlink:href="#DejaVuSans-103"/>
     <use x="290.925781" xlink:href="#DejaVuSans-121"/>
     <use x="350.105469" xlink:href="#DejaVuSans-32"/>
     <use x="381.892578" xlink:href="#DejaVuSans-67"/>
     <use x="451.716797" xlink:href="#DejaVuSans-111"/>
     <use x="512.898438" xlink:href="#DejaVuSans-109"/>
     <use x="610.310547" xlink:href="#DejaVuSans-112"/>
     <use x="673.787109" xlink:href="#DejaVuSans-97"/>
     <use x="735.066406" xlink:href="#DejaVuSans-114"/>
     <use x="776.179688" xlink:href="#DejaVuSans-105"/>
     <use x="803.962891" xlink:href="#DejaVuSans-115"/>
     <use x="856.0625" xlink:href="#DejaVuSans-111"/>
     <use x="917.244141" xlink:href="#DejaVuSans-110"/>
     <use x="980.623047" xlink:href="#DejaVuSans-115"/>
     <use x="1032.722656" xlink:href="#DejaVuSans-32"/>
     <use x="1064.509766" xlink:href="#DejaVuSans-102"/>
     <use x="1099.714844" xlink:href="#DejaVuSans-111"/>
     <use x="1160.896484" xlink:href="#DejaVuSans-114"/>
     <use x="1202.009766" xlink:href="#DejaVuSans-32"/>
     <use x="1233.796875" xlink:href="#DejaVuSans-83"/>
     <use x="1297.273438" xlink:href="#DejaVuSans-67"/>
     <use x="1367.097656" xlink:href="#DejaVuSans-65"/>
     <use x="1435.505859" xlink:href="#DejaVuSans-78"/>
     <use x="1510.310547" xlink:href="#DejaVuSans-32"/>
     <use x="1542.097656" xlink:href="#DejaVuSans-97"/>
     <use x="1603.376953" xlink:href="#DejaVuSans-110"/>
     <use x="1666.755859" xlink:href="#DejaVuSans-100"/>
     <use x="1730.232422" xlink:href="#DejaVuSans-32"/>
     <use x="1762.019531" xlink:href="#DejaVuSans-71"/>
     <use x="1839.509766" xlink:href="#DejaVuSans-71"/>
     <use x="1917" xlink:href="#DejaVuSans-65"/>
     <use x="1985.408203" xlink:href="#DejaVuSans-32"/>
    </g>
    <!--  Functionals by Number of Constituent Elements -->
    <defs>
     <path d="M 9.8125 72.90625 
L 51.703125 72.90625 
L 51.703125 64.59375 
L 19.671875 64.59375 
L 19.671875 43.109375 
L 48.578125 43.109375 
L 48.578125 34.8125 
L 19.671875 34.8125 
L 19.671875 0 
L 9.8125 0 
z
" id="DejaVuSans-70"/>
     <path d="M 48.78125 52.59375 
L 48.78125 44.1875 
Q 44.96875 46.296875 41.140625 47.34375 
Q 37.3125 48.390625 33.40625 48.390625 
Q 24.65625 48.390625 19.8125 42.84375 
Q 14.984375 37.3125 14.984375 27.296875 
Q 14.984375 17.28125 19.8125 11.734375 
Q 24.65625 6.203125 33.40625 6.203125 
Q 37.3125 6.203125 41.140625 7.25 
Q 44.96875 8.296875 48.78125 10.40625 
L 48.78125 2.09375 
Q 45.015625 0.34375 40.984375 -0.53125 
Q 36.96875 -1.421875 32.421875 -1.421875 
Q 20.0625 -1.421875 12.78125 6.34375 
Q 5.515625 14.109375 5.515625 27.296875 
Q 5.515625 40.671875 12.859375 48.328125 
Q 20.21875 56 33.015625 56 
Q 37.15625 56 41.109375 55.140625 
Q 45.0625 54.296875 48.78125 52.59375 
z
" id="DejaVuSans-99"/>
     <path d="M 9.421875 75.984375 
L 18.40625 75.984375 
L 18.40625 0 
L 9.421875 0 
z
" id="DejaVuSans-108"/>
     <path d="M 48.6875 27.296875 
Q 48.6875 37.203125 44.609375 42.84375 
Q 40.53125 48.484375 33.40625 48.484375 
Q 26.265625 48.484375 22.1875 42.84375 
Q 18.109375 37.203125 18.109375 27.296875 
Q 18.109375 17.390625 22.1875 11.75 
Q 26.265625 6.109375 33.40625 6.109375 
Q 40.53125 6.109375 44.609375 11.75 
Q 48.6875 17.390625 48.6875 27.296875 
z
M 18.109375 46.390625 
Q 20.953125 51.265625 25.265625 53.625 
Q 29.59375 56 35.59375 56 
Q 45.5625 56 51.78125 48.09375 
Q 58.015625 40.1875 58.015625 27.296875 
Q 58.015625 14.40625 51.78125 6.484375 
Q 45.5625 -1.421875 35.59375 -1.421875 
Q 29.59375 -1.421875 25.265625 0.953125 
Q 20.953125 3.328125 18.109375 8.203125 
L 18.109375 0 
L 9.078125 0 
L 9.078125 75.984375 
L 18.109375 75.984375 
z
" id="DejaVuSans-98"/>
    </defs>
    <g transform="translate(52.277656 77.685938)scale(0.375 -0.375)">
     <use xlink:href="#DejaVuSans-32"/>
     <use x="31.787109" xlink:href="#DejaVuSans-70"/>
     <use x="83.806641" xlink:href="#DejaVuSans-117"/>
     <use x="147.185547" xlink:href="#DejaVuSans-110"/>
     <use x="210.564453" xlink:href="#DejaVuSans-99"/>
     <use x="265.544922" xlink:href="#DejaVuSans-116"/>
     <use x="304.753906" xlink:href="#DejaVuSans-105"/>
     <use x="332.537109" xlink:href="#DejaVuSans-111"/>
     <use x="393.71875" xlink:href="#DejaVuSans-110"/>
     <use x="457.097656" xlink:href="#DejaVuSans-97"/>
     <use x="518.376953" xlink:href="#DejaVuSans-108"/>
     <use x="546.160156" xlink:href="#DejaVuSans-115"/>
     <use x="598.259766" xlink:href="#DejaVuSans-32"/>
     <use x="630.046875" xlink:href="#DejaVuSans-98"/>
     <use x="693.523438" xlink:href="#DejaVuSans-121"/>
     <use x="752.703125" xlink:href="#DejaVuSans-32"/>
     <use x="784.490234" xlink:href="#DejaVuSans-78"/>
     <use x="859.294922" xlink:href="#DejaVuSans-117"/>
     <use x="922.673828" xlink:href="#DejaVuSans-109"/>
     <use x="1020.085938" xlink:href="#DejaVuSans-98"/>
     <use x="1083.5625" xlink:href="#DejaVuSans-101"/>
     <use x="1145.085938" xlink:href="#DejaVuSans-114"/>
     <use x="1186.199219" xlink:href="#DejaVuSans-32"/>
     <use x="1217.986328" xlink:href="#DejaVuSans-111"/>
     <use x="1279.167969" xlink:href="#DejaVuSans-102"/>
     <use x="1314.373047" xlink:href="#DejaVuSans-32"/>
     <use x="1346.160156" xlink:href="#DejaVuSans-67"/>
     <use x="1415.984375" xlink:href="#DejaVuSans-111"/>
     <use x="1477.166016" xlink:href="#DejaVuSans-110"/>
     <use x="1540.544922" xlink:href="#DejaVuSans-115"/>
     <use x="1592.644531" xlink:href="#DejaVuSans-116"/>
     <use x="1631.853516" xlink:href="#DejaVuSans-105"/>
     <use x="1659.636719" xlink:href="#DejaVuSans-116"/>
     <use x="1698.845703" xlink:href="#DejaVuSans-117"/>
     <use x="1762.224609" xlink:href="#DejaVuSans-101"/>
     <use x="1823.748047" xlink:href="#DejaVuSans-110"/>
     <use x="1887.126953" xlink:href="#DejaVuSans-116"/>
     <use x="1926.335938" xlink:href="#DejaVuSans-32"/>
     <use x="1958.123047" xlink:href="#DejaVuSans-69"/>
     <use x="2021.306641" xlink:href="#DejaVuSans-108"/>
     <use x="2049.089844" xlink:href="#DejaVuSans-101"/>
     <use x="2110.613281" xlink:href="#DejaVuSans-109"/>
     <use x="2208.025391" xlink:href="#DejaVuSans-101"/>
     <use x="2269.548828" xlink:href="#DejaVuSans-110"/>
     <use x="2332.927734" xlink:href="#DejaVuSans-116"/>
     <use x="2372.136719" xlink:href="#DejaVuSans-115"/>
    </g>
   </g>
   <g id="legend_1">
    <g id="patch_12">
     <path d="M 682.676328 310.232031 
L 907.462812 310.232031 
Q 912.562812 310.232031 912.562812 305.132031 
L 912.562812 120.535938 
Q 912.562812 115.435938 907.462812 115.435938 
L 682.676328 115.435938 
Q 677.576328 115.435938 677.576328 120.535938 
L 677.576328 305.132031 
Q 677.576328 310.232031 682.676328 310.232031 
z
" style="fill:#ffffff;opacity:0.8;stroke:#000000;stroke-linejoin:miter;"/>
    </g>
    <g id="patch_13">
     <path d="M 687.776328 145.011953 
L 738.776328 145.011953 
L 738.776328 127.161953 
L 687.776328 127.161953 
z
" style="fill:#f48a1e;"/>
    </g>
    <g id="text_14">
     <!-- 1 Element -->
     <g transform="translate(759.176328 145.011953)scale(0.255 -0.255)">
      <use xlink:href="#DejaVuSans-49"/>
      <use x="63.623047" xlink:href="#DejaVuSans-32"/>
      <use x="95.410156" xlink:href="#DejaVuSans-69"/>
      <use x="158.59375" xlink:href="#DejaVuSans-108"/>
      <use x="186.376953" xlink:href="#DejaVuSans-101"/>
      <use x="247.900391" xlink:href="#DejaVuSans-109"/>
      <use x="345.3125" xlink:href="#DejaVuSans-101"/>
      <use x="406.835938" xlink:href="#DejaVuSans-110"/>
      <use x="470.214844" xlink:href="#DejaVuSans-116"/>
     </g>
    </g>
    <g id="patch_14">
     <path d="M 687.776328 182.441172 
L 738.776328 182.441172 
L 738.776328 164.591172 
L 687.776328 164.591172 
z
" style="fill:#39cc6e;"/>
    </g>
    <g id="text_15">
     <!-- 2 Elements -->
     <g transform="translate(759.176328 182.441172)scale(0.255 -0.255)">
      <use xlink:href="#DejaVuSans-50"/>
      <use x="63.623047" xlink:href="#DejaVuSans-32"/>
      <use x="95.410156" xlink:href="#DejaVuSans-69"/>
      <use x="158.59375" xlink:href="#DejaVuSans-108"/>
      <use x="186.376953" xlink:href="#DejaVuSans-101"/>
      <use x="247.900391" xlink:href="#DejaVuSans-109"/>
      <use x="345.3125" xlink:href="#DejaVuSans-101"/>
      <use x="406.835938" xlink:href="#DejaVuSans-110"/>
      <use x="470.214844" xlink:href="#DejaVuSans-116"/>
      <use x="509.423828" xlink:href="#DejaVuSans-115"/>
     </g>
    </g>
    <g id="patch_15">
     <path d="M 687.776328 219.870391 
L 738.776328 219.870391 
L 738.776328 202.020391 
L 687.776328 202.020391 
z
" style="fill:#0870a8;"/>
    </g>
    <g id="text_16">
     <!-- 3 Elements -->
     <defs>
      <path d="M 40.578125 39.3125 
Q 47.65625 37.796875 51.625 33 
Q 55.609375 28.21875 55.609375 21.1875 
Q 55.609375 10.40625 48.1875 4.484375 
Q 40.765625 -1.421875 27.09375 -1.421875 
Q 22.515625 -1.421875 17.65625 -0.515625 
Q 12.796875 0.390625 7.625 2.203125 
L 7.625 11.71875 
Q 11.71875 9.328125 16.59375 8.109375 
Q 21.484375 6.890625 26.8125 6.890625 
Q 36.078125 6.890625 40.9375 10.546875 
Q 45.796875 14.203125 45.796875 21.1875 
Q 45.796875 27.640625 41.28125 31.265625 
Q 36.765625 34.90625 28.71875 34.90625 
L 20.21875 34.90625 
L 20.21875 43.015625 
L 29.109375 43.015625 
Q 36.375 43.015625 40.234375 45.921875 
Q 44.09375 48.828125 44.09375 54.296875 
Q 44.09375 59.90625 40.109375 62.90625 
Q 36.140625 65.921875 28.71875 65.921875 
Q 24.65625 65.921875 20.015625 65.03125 
Q 15.375 64.15625 9.8125 62.3125 
L 9.8125 71.09375 
Q 15.4375 72.65625 20.34375 73.4375 
Q 25.25 74.21875 29.59375 74.21875 
Q 40.828125 74.21875 47.359375 69.109375 
Q 53.90625 64.015625 53.90625 55.328125 
Q 53.90625 49.265625 50.4375 45.09375 
Q 46.96875 40.921875 40.578125 39.3125 
z
" id="DejaVuSans-51"/>
     </defs>
     <g transform="translate(759.176328 219.870391)scale(0.255 -0.255)">
      <use xlink:href="#DejaVuSans-51"/>
      <use x="63.623047" xlink:href="#DejaVuSans-32"/>
      <use x="95.410156" xlink:href="#DejaVuSans-69"/>
      <use x="158.59375" xlink:href="#DejaVuSans-108"/>
      <use x="186.376953" xlink:href="#DejaVuSans-101"/>
      <use x="247.900391" xlink:href="#DejaVuSans-109"/>
      <use x="345.3125" xlink:href="#DejaVuSans-101"/>
      <use x="406.835938" xlink:href="#DejaVuSans-110"/>
      <use x="470.214844" xlink:href="#DejaVuSans-116"/>
      <use x="509.423828" xlink:href="#DejaVuSans-115"/>
     </g>
    </g>
    <g id="patch_16">
     <path d="M 687.776328 257.299609 
L 738.776328 257.299609 
L 738.776328 239.449609 
L 687.776328 239.449609 
z
" style="fill:#f8ed73;"/>
    </g>
    <g id="text_17">
     <!-- 4 Elements -->
     <g transform="translate(759.176328 257.299609)scale(0.255 -0.255)">
      <use xlink:href="#DejaVuSans-52"/>
      <use x="63.623047" xlink:href="#DejaVuSans-32"/>
      <use x="95.410156" xlink:href="#DejaVuSans-69"/>
      <use x="158.59375" xlink:href="#DejaVuSans-108"/>
      <use x="186.376953" xlink:href="#DejaVuSans-101"/>
      <use x="247.900391" xlink:href="#DejaVuSans-109"/>
      <use x="345.3125" xlink:href="#DejaVuSans-101"/>
      <use x="406.835938" xlink:href="#DejaVuSans-110"/>
      <use x="470.214844" xlink:href="#DejaVuSans-116"/>
      <use x="509.423828" xlink:href="#DejaVuSans-115"/>
     </g>
    </g>
    <g id="patch_17">
     <path d="M 687.776328 294.728828 
L 738.776328 294.728828 
L 738.776328 276.878828 
L 687.776328 276.878828 
z
" style="fill:#ea3647;"/>
    </g>
    <g id="text_18">
     <!-- 5 Elements -->
     <g transform="translate(759.176328 294.728828)scale(0.255 -0.255)">
      <use xlink:href="#DejaVuSans-53"/>
      <use x="63.623047" xlink:href="#DejaVuSans-32"/>
      <use x="95.410156" xlink:href="#DejaVuSans-69"/>
      <use x="158.59375" xlink:href="#DejaVuSans-108"/>
      <use x="186.376953" xlink:href="#DejaVuSans-101"/>
      <use x="247.900391" xlink:href="#DejaVuSans-109"/>
      <use x="345.3125" xlink:href="#DejaVuSans-101"/>
      <use x="406.835938" xlink:href="#DejaVuSans-110"/>
      <use x="470.214844" xlink:href="#DejaVuSans-116"/>
      <use x="509.423828" xlink:href="#DejaVuSans-115"/>
     </g>
    </g>
   </g>
  </g>
 </g>
 <defs>
  <clipPath id="pcbfa221f50">
   <rect height="489.24" width="837" x="88.312813" y="102.685938"/>
  </clipPath>
 </defs>
</svg>
