<?xml version="1.0" encoding="utf-8" standalone="no"?>
<!DOCTYPE svg PUBLIC "-//W3C//DTD SVG 1.1//EN"
  "http://www.w3.org/Graphics/SVG/1.1/DTD/svg11.dtd">
<!-- Created with matplotlib (https://matplotlib.org/) -->
<svg height="673.810313pt" version="1.1" viewBox="0 0 951.600312 673.810313" width="951.600312pt" xmlns="http://www.w3.org/2000/svg" xmlns:xlink="http://www.w3.org/1999/xlink">
 <defs>
  <style type="text/css">
*{stroke-linecap:butt;stroke-linejoin:round;}
  </style>
 </defs>
 <g id="figure_1">
  <g id="patch_1">
   <path d="M 0 673.810313 
L 951.600312 673.810313 
L 951.600312 0 
L 0 0 
z
" style="fill:#ffffff;"/>
  </g>
  <g id="axes_1">
   <g id="patch_2">
    <path d="M 107.400312 591.925938 
L 944.400313 591.925938 
L 944.400313 102.685938 
L 107.400312 102.685938 
z
" style="fill:#ffffff;"/>
   </g>
   <g id="patch_3">
    <path clip-path="url(#p09d42fe166)" d="M 145.445767 591.925938 
L 145.445767 591.925938 
L 154.957131 591.925938 
L 154.957131 591.925938 
L 164.468494 591.925938 
L 164.468494 589.584516 
L 173.979858 589.584516 
L 173.979858 591.925938 
L 183.491222 591.925938 
L 183.491222 584.901673 
L 193.002585 584.901673 
L 193.002585 584.901673 
L 202.513949 584.901673 
L 202.513949 589.584516 
L 212.025313 589.584516 
L 212.025313 584.901673 
L 221.536676 584.901673 
L 221.536676 589.584516 
L 231.04804 589.584516 
L 231.04804 584.901673 
L 240.559403 584.901673 
L 240.559403 589.584516 
L 250.070767 589.584516 
L 250.070767 591.925938 
L 259.582131 591.925938 
L 259.582131 589.584516 
L 269.093494 589.584516 
L 269.093494 584.901673 
L 278.604858 584.901673 
L 278.604858 584.901673 
L 288.116222 584.901673 
L 288.116222 587.243095 
L 297.627585 587.243095 
L 297.627585 591.925938 
L 307.138949 591.925938 
L 307.138949 584.901673 
L 316.650313 584.901673 
L 316.650313 591.925938 
L 326.161676 591.925938 
L 326.161676 580.218831 
L 335.67304 580.218831 
L 335.67304 575.535988 
L 345.184403 575.535988 
L 345.184403 587.243095 
L 354.695767 587.243095 
L 354.695767 582.560252 
L 364.207131 582.560252 
L 364.207131 568.511724 
L 373.718494 568.511724 
L 373.718494 566.170302 
L 383.229858 566.170302 
L 383.229858 573.194566 
L 392.741222 573.194566 
L 392.741222 566.170302 
L 402.252585 566.170302 
L 402.252585 559.146038 
L 411.763949 559.146038 
L 411.763949 531.048981 
L 421.275313 531.048981 
L 421.275313 568.511724 
L 430.786676 568.511724 
L 430.786676 561.487459 
L 440.29804 561.487459 
L 440.29804 554.463195 
L 449.809403 554.463195 
L 449.809403 538.073245 
L 459.320767 538.073245 
L 459.320767 493.586239 
L 468.832131 493.586239 
L 468.832131 479.537711 
L 478.343494 479.537711 
L 478.343494 498.269082 
L 487.854858 498.269082 
L 487.854858 453.782075 
L 497.366222 453.782075 
L 497.366222 411.63649 
L 506.877585 411.63649 
L 506.877585 294.565421 
L 516.388949 294.565421 
L 516.388949 125.98308 
L 525.900313 125.98308 
L 525.900313 186.860037 
L 535.411676 186.860037 
L 535.411676 411.63649 
L 544.92304 411.63649 
L 544.92304 444.41639 
L 554.434403 444.41639 
L 554.434403 479.537711 
L 563.945767 479.537711 
L 563.945767 493.586239 
L 573.457131 493.586239 
L 573.457131 505.293346 
L 582.968494 505.293346 
L 582.968494 540.414667 
L 592.479858 540.414667 
L 592.479858 533.390403 
L 601.991222 533.390403 
L 601.991222 575.535988 
L 611.502585 575.535988 
L 611.502585 559.146038 
L 621.013949 559.146038 
L 621.013949 568.511724 
L 630.525313 568.511724 
L 630.525313 554.463195 
L 640.036676 554.463195 
L 640.036676 559.146038 
L 649.54804 559.146038 
L 649.54804 577.877409 
L 659.059403 577.877409 
L 659.059403 568.511724 
L 668.570767 568.511724 
L 668.570767 587.243095 
L 678.082131 587.243095 
L 678.082131 573.194566 
L 687.593494 573.194566 
L 687.593494 587.243095 
L 697.104858 587.243095 
L 697.104858 584.901673 
L 706.616222 584.901673 
L 706.616222 582.560252 
L 716.127585 582.560252 
L 716.127585 580.218831 
L 725.638949 580.218831 
L 725.638949 584.901673 
L 735.150312 584.901673 
L 735.150312 582.560252 
L 744.661676 582.560252 
L 744.661676 591.925938 
L 754.17304 591.925938 
L 754.17304 584.901673 
L 763.684403 584.901673 
L 763.684403 589.584516 
L 773.195767 589.584516 
L 773.195767 589.584516 
L 782.707131 589.584516 
L 782.707131 589.584516 
L 792.218494 589.584516 
L 792.218494 591.925938 
L 801.729858 591.925938 
L 801.729858 591.925938 
L 811.241222 591.925938 
L 811.241222 591.925938 
L 820.752585 591.925938 
L 820.752585 589.584516 
L 830.263949 589.584516 
L 830.263949 591.925938 
L 839.775312 591.925938 
L 839.775312 591.925938 
L 849.286676 591.925938 
L 849.286676 589.584516 
L 858.79804 589.584516 
L 858.79804 591.925938 
L 868.309403 591.925938 
L 868.309403 591.925938 
L 877.820767 591.925938 
L 877.820767 591.925938 
L 887.332131 591.925938 
L 887.332131 587.243095 
L 896.843494 587.243095 
L 896.843494 591.925938 
L 906.354858 591.925938 
L 906.354858 591.925938 
L 896.843494 591.925938 
L 896.843494 591.925938 
L 887.332131 591.925938 
L 887.332131 591.925938 
L 877.820767 591.925938 
L 877.820767 591.925938 
L 868.309403 591.925938 
L 868.309403 591.925938 
L 858.79804 591.925938 
L 858.79804 591.925938 
L 849.286676 591.925938 
L 849.286676 591.925938 
L 839.775312 591.925938 
L 839.775312 591.925938 
L 830.263949 591.925938 
L 830.263949 591.925938 
L 820.752585 591.925938 
L 820.752585 591.925938 
L 811.241222 591.925938 
L 811.241222 591.925938 
L 801.729858 591.925938 
L 801.729858 591.925938 
L 792.218494 591.925938 
L 792.218494 591.925938 
L 782.707131 591.925938 
L 782.707131 591.925938 
L 773.195767 591.925938 
L 773.195767 591.925938 
L 763.684403 591.925938 
L 763.684403 591.925938 
L 754.17304 591.925938 
L 754.17304 591.925938 
L 744.661676 591.925938 
L 744.661676 591.925938 
L 735.150312 591.925938 
L 735.150312 591.925938 
L 725.638949 591.925938 
L 725.638949 591.925938 
L 716.127585 591.925938 
L 716.127585 591.925938 
L 706.616222 591.925938 
L 706.616222 591.925938 
L 697.104858 591.925938 
L 697.104858 591.925938 
L 687.593494 591.925938 
L 687.593494 591.925938 
L 678.082131 591.925938 
L 678.082131 591.925938 
L 668.570767 591.925938 
L 668.570767 591.925938 
L 659.059403 591.925938 
L 659.059403 591.925938 
L 649.54804 591.925938 
L 649.54804 591.925938 
L 640.036676 591.925938 
L 640.036676 591.925938 
L 630.525313 591.925938 
L 630.525313 591.925938 
L 621.013949 591.925938 
L 621.013949 591.925938 
L 611.502585 591.925938 
L 611.502585 591.925938 
L 601.991222 591.925938 
L 601.991222 591.925938 
L 592.479858 591.925938 
L 592.479858 591.925938 
L 582.968494 591.925938 
L 582.968494 591.925938 
L 573.457131 591.925938 
L 573.457131 591.925938 
L 563.945767 591.925938 
L 563.945767 591.925938 
L 554.434403 591.925938 
L 554.434403 591.925938 
L 544.92304 591.925938 
L 544.92304 591.925938 
L 535.411676 591.925938 
L 535.411676 591.925938 
L 525.900313 591.925938 
L 525.900313 591.925938 
L 516.388949 591.925938 
L 516.388949 591.925938 
L 506.877585 591.925938 
L 506.877585 591.925938 
L 497.366222 591.925938 
L 497.366222 591.925938 
L 487.854858 591.925938 
L 487.854858 591.925938 
L 478.343494 591.925938 
L 478.343494 591.925938 
L 468.832131 591.925938 
L 468.832131 591.925938 
L 459.320767 591.925938 
L 459.320767 591.925938 
L 449.809403 591.925938 
L 449.809403 591.925938 
L 440.29804 591.925938 
L 440.29804 591.925938 
L 430.786676 591.925938 
L 430.786676 591.925938 
L 421.275313 591.925938 
L 421.275313 591.925938 
L 411.763949 591.925938 
L 411.763949 591.925938 
L 402.252585 591.925938 
L 402.252585 591.925938 
L 392.741222 591.925938 
L 392.741222 591.925938 
L 383.229858 591.925938 
L 383.229858 591.925938 
L 373.718494 591.925938 
L 373.718494 591.925938 
L 364.207131 591.925938 
L 364.207131 591.925938 
L 354.695767 591.925938 
L 354.695767 591.925938 
L 345.184403 591.925938 
L 345.184403 591.925938 
L 335.67304 591.925938 
L 335.67304 591.925938 
L 326.161676 591.925938 
L 326.161676 591.925938 
L 316.650313 591.925938 
L 316.650313 591.925938 
L 307.138949 591.925938 
L 307.138949 591.925938 
L 297.627585 591.925938 
L 297.627585 591.925938 
L 288.116222 591.925938 
L 288.116222 591.925938 
L 278.604858 591.925938 
L 278.604858 591.925938 
L 269.093494 591.925938 
L 269.093494 591.925938 
L 259.582131 591.925938 
L 259.582131 591.925938 
L 250.070767 591.925938 
L 250.070767 591.925938 
L 240.559403 591.925938 
L 240.559403 591.925938 
L 231.04804 591.925938 
L 231.04804 591.925938 
L 221.536676 591.925938 
L 221.536676 591.925938 
L 212.025313 591.925938 
L 212.025313 591.925938 
L 202.513949 591.925938 
L 202.513949 591.925938 
L 193.002585 591.925938 
L 193.002585 591.925938 
L 183.491222 591.925938 
L 183.491222 591.925938 
L 173.979858 591.925938 
L 173.979858 591.925938 
L 164.468494 591.925938 
L 164.468494 591.925938 
L 154.957131 591.925938 
L 154.957131 591.925938 
z
" style="fill:#0870a8;"/>
   </g>
   <g id="patch_4">
    <path clip-path="url(#p09d42fe166)" d="M 145.445767 591.925938 
L 145.445767 591.925938 
L 154.957131 591.925938 
L 154.957131 591.925938 
L 164.468494 591.925938 
L 164.468494 589.584516 
L 173.979858 589.584516 
L 173.979858 591.925938 
L 183.491222 591.925938 
L 183.491222 591.925938 
L 193.002585 591.925938 
L 193.002585 587.243095 
L 202.513949 587.243095 
L 202.513949 591.925938 
L 212.025313 591.925938 
L 212.025313 584.901673 
L 221.536676 584.901673 
L 221.536676 591.925938 
L 231.04804 591.925938 
L 231.04804 587.243095 
L 240.559403 587.243095 
L 240.559403 589.584516 
L 250.070767 589.584516 
L 250.070767 591.925938 
L 259.582131 591.925938 
L 259.582131 589.584516 
L 269.093494 589.584516 
L 269.093494 584.901673 
L 278.604858 584.901673 
L 278.604858 587.243095 
L 288.116222 587.243095 
L 288.116222 589.584516 
L 297.627585 589.584516 
L 297.627585 591.925938 
L 307.138949 591.925938 
L 307.138949 589.584516 
L 316.650313 589.584516 
L 316.650313 591.925938 
L 326.161676 591.925938 
L 326.161676 587.243095 
L 335.67304 587.243095 
L 335.67304 580.218831 
L 345.184403 580.218831 
L 345.184403 589.584516 
L 354.695767 589.584516 
L 354.695767 587.243095 
L 364.207131 587.243095 
L 364.207131 580.218831 
L 373.718494 580.218831 
L 373.718494 573.194566 
L 383.229858 573.194566 
L 383.229858 584.901673 
L 392.741222 584.901673 
L 392.741222 573.194566 
L 402.252585 573.194566 
L 402.252585 575.535988 
L 411.763949 575.535988 
L 411.763949 563.828881 
L 421.275313 563.828881 
L 421.275313 577.877409 
L 430.786676 577.877409 
L 430.786676 577.877409 
L 440.29804 577.877409 
L 440.29804 568.511724 
L 449.809403 568.511724 
L 449.809403 559.146038 
L 459.320767 559.146038 
L 459.320767 535.731824 
L 468.832131 535.731824 
L 468.832131 538.073245 
L 478.343494 538.073245 
L 478.343494 540.414667 
L 487.854858 540.414667 
L 487.854858 526.366139 
L 497.366222 526.366139 
L 497.366222 509.976189 
L 506.877585 509.976189 
L 506.877585 449.099233 
L 516.388949 449.099233 
L 516.388949 339.052427 
L 525.900313 339.052427 
L 525.900313 390.563698 
L 535.411676 390.563698 
L 535.411676 514.659032 
L 544.92304 514.659032 
L 544.92304 500.610503 
L 554.434403 500.610503 
L 554.434403 524.024717 
L 563.945767 524.024717 
L 563.945767 533.390403 
L 573.457131 533.390403 
L 573.457131 547.438931 
L 582.968494 547.438931 
L 582.968494 556.804617 
L 592.479858 556.804617 
L 592.479858 556.804617 
L 601.991222 556.804617 
L 601.991222 580.218831 
L 611.502585 580.218831 
L 611.502585 577.877409 
L 621.013949 577.877409 
L 621.013949 573.194566 
L 630.525313 573.194566 
L 630.525313 554.463195 
L 640.036676 554.463195 
L 640.036676 575.535988 
L 649.54804 575.535988 
L 649.54804 577.877409 
L 659.059403 577.877409 
L 659.059403 575.535988 
L 668.570767 575.535988 
L 668.570767 589.584516 
L 678.082131 589.584516 
L 678.082131 575.535988 
L 687.593494 575.535988 
L 687.593494 587.243095 
L 697.104858 587.243095 
L 697.104858 587.243095 
L 706.616222 587.243095 
L 706.616222 587.243095 
L 716.127585 587.243095 
L 716.127585 584.901673 
L 725.638949 584.901673 
L 725.638949 587.243095 
L 735.150312 587.243095 
L 735.150312 584.901673 
L 744.661676 584.901673 
L 744.661676 591.925938 
L 754.17304 591.925938 
L 754.17304 589.584516 
L 763.684403 589.584516 
L 763.684403 589.584516 
L 773.195767 589.584516 
L 773.195767 589.584516 
L 782.707131 589.584516 
L 782.707131 591.925938 
L 792.218494 591.925938 
L 792.218494 591.925938 
L 801.729858 591.925938 
L 801.729858 591.925938 
L 811.241222 591.925938 
L 811.241222 591.925938 
L 820.752585 591.925938 
L 820.752585 589.584516 
L 830.263949 589.584516 
L 830.263949 591.925938 
L 839.775312 591.925938 
L 839.775312 591.925938 
L 849.286676 591.925938 
L 849.286676 589.584516 
L 858.79804 589.584516 
L 858.79804 591.925938 
L 868.309403 591.925938 
L 868.309403 591.925938 
L 877.820767 591.925938 
L 877.820767 591.925938 
L 887.332131 591.925938 
L 887.332131 587.243095 
L 896.843494 587.243095 
L 896.843494 591.925938 
L 906.354858 591.925938 
L 906.354858 591.925938 
L 896.843494 591.925938 
L 896.843494 591.925938 
L 887.332131 591.925938 
L 887.332131 591.925938 
L 877.820767 591.925938 
L 877.820767 591.925938 
L 868.309403 591.925938 
L 868.309403 591.925938 
L 858.79804 591.925938 
L 858.79804 591.925938 
L 849.286676 591.925938 
L 849.286676 591.925938 
L 839.775312 591.925938 
L 839.775312 591.925938 
L 830.263949 591.925938 
L 830.263949 591.925938 
L 820.752585 591.925938 
L 820.752585 591.925938 
L 811.241222 591.925938 
L 811.241222 591.925938 
L 801.729858 591.925938 
L 801.729858 591.925938 
L 792.218494 591.925938 
L 792.218494 591.925938 
L 782.707131 591.925938 
L 782.707131 591.925938 
L 773.195767 591.925938 
L 773.195767 591.925938 
L 763.684403 591.925938 
L 763.684403 591.925938 
L 754.17304 591.925938 
L 754.17304 591.925938 
L 744.661676 591.925938 
L 744.661676 591.925938 
L 735.150312 591.925938 
L 735.150312 591.925938 
L 725.638949 591.925938 
L 725.638949 591.925938 
L 716.127585 591.925938 
L 716.127585 591.925938 
L 706.616222 591.925938 
L 706.616222 591.925938 
L 697.104858 591.925938 
L 697.104858 591.925938 
L 687.593494 591.925938 
L 687.593494 591.925938 
L 678.082131 591.925938 
L 678.082131 591.925938 
L 668.570767 591.925938 
L 668.570767 591.925938 
L 659.059403 591.925938 
L 659.059403 591.925938 
L 649.54804 591.925938 
L 649.54804 591.925938 
L 640.036676 591.925938 
L 640.036676 591.925938 
L 630.525313 591.925938 
L 630.525313 591.925938 
L 621.013949 591.925938 
L 621.013949 591.925938 
L 611.502585 591.925938 
L 611.502585 591.925938 
L 601.991222 591.925938 
L 601.991222 591.925938 
L 592.479858 591.925938 
L 592.479858 591.925938 
L 582.968494 591.925938 
L 582.968494 591.925938 
L 573.457131 591.925938 
L 573.457131 591.925938 
L 563.945767 591.925938 
L 563.945767 591.925938 
L 554.434403 591.925938 
L 554.434403 591.925938 
L 544.92304 591.925938 
L 544.92304 591.925938 
L 535.411676 591.925938 
L 535.411676 591.925938 
L 525.900313 591.925938 
L 525.900313 591.925938 
L 516.388949 591.925938 
L 516.388949 591.925938 
L 506.877585 591.925938 
L 506.877585 591.925938 
L 497.366222 591.925938 
L 497.366222 591.925938 
L 487.854858 591.925938 
L 487.854858 591.925938 
L 478.343494 591.925938 
L 478.343494 591.925938 
L 468.832131 591.925938 
L 468.832131 591.925938 
L 459.320767 591.925938 
L 459.320767 591.925938 
L 449.809403 591.925938 
L 449.809403 591.925938 
L 440.29804 591.925938 
L 440.29804 591.925938 
L 430.786676 591.925938 
L 430.786676 591.925938 
L 421.275313 591.925938 
L 421.275313 591.925938 
L 411.763949 591.925938 
L 411.763949 591.925938 
L 402.252585 591.925938 
L 402.252585 591.925938 
L 392.741222 591.925938 
L 392.741222 591.925938 
L 383.229858 591.925938 
L 383.229858 591.925938 
L 373.718494 591.925938 
L 373.718494 591.925938 
L 364.207131 591.925938 
L 364.207131 591.925938 
L 354.695767 591.925938 
L 354.695767 591.925938 
L 345.184403 591.925938 
L 345.184403 591.925938 
L 335.67304 591.925938 
L 335.67304 591.925938 
L 326.161676 591.925938 
L 326.161676 591.925938 
L 316.650313 591.925938 
L 316.650313 591.925938 
L 307.138949 591.925938 
L 307.138949 591.925938 
L 297.627585 591.925938 
L 297.627585 591.925938 
L 288.116222 591.925938 
L 288.116222 591.925938 
L 278.604858 591.925938 
L 278.604858 591.925938 
L 269.093494 591.925938 
L 269.093494 591.925938 
L 259.582131 591.925938 
L 259.582131 591.925938 
L 250.070767 591.925938 
L 250.070767 591.925938 
L 240.559403 591.925938 
L 240.559403 591.925938 
L 231.04804 591.925938 
L 231.04804 591.925938 
L 221.536676 591.925938 
L 221.536676 591.925938 
L 212.025313 591.925938 
L 212.025313 591.925938 
L 202.513949 591.925938 
L 202.513949 591.925938 
L 193.002585 591.925938 
L 193.002585 591.925938 
L 183.491222 591.925938 
L 183.491222 591.925938 
L 173.979858 591.925938 
L 173.979858 591.925938 
L 164.468494 591.925938 
L 164.468494 591.925938 
L 154.957131 591.925938 
L 154.957131 591.925938 
z
" style="fill:#39cc6e;"/>
   </g>
   <g id="patch_5">
    <path clip-path="url(#p09d42fe166)" d="M 145.445767 591.925938 
L 145.445767 591.925938 
L 154.957131 591.925938 
L 154.957131 591.925938 
L 164.468494 591.925938 
L 164.468494 591.925938 
L 173.979858 591.925938 
L 173.979858 591.925938 
L 183.491222 591.925938 
L 183.491222 589.584516 
L 193.002585 589.584516 
L 193.002585 589.584516 
L 202.513949 589.584516 
L 202.513949 589.584516 
L 212.025313 589.584516 
L 212.025313 591.925938 
L 221.536676 591.925938 
L 221.536676 589.584516 
L 231.04804 589.584516 
L 231.04804 589.584516 
L 240.559403 589.584516 
L 240.559403 591.925938 
L 250.070767 591.925938 
L 250.070767 591.925938 
L 259.582131 591.925938 
L 259.582131 591.925938 
L 269.093494 591.925938 
L 269.093494 589.584516 
L 278.604858 589.584516 
L 278.604858 591.925938 
L 288.116222 591.925938 
L 288.116222 591.925938 
L 297.627585 591.925938 
L 297.627585 591.925938 
L 307.138949 591.925938 
L 307.138949 589.584516 
L 316.650313 589.584516 
L 316.650313 591.925938 
L 326.161676 591.925938 
L 326.161676 589.584516 
L 335.67304 589.584516 
L 335.67304 589.584516 
L 345.184403 589.584516 
L 345.184403 589.584516 
L 354.695767 589.584516 
L 354.695767 589.584516 
L 364.207131 589.584516 
L 364.207131 587.243095 
L 373.718494 587.243095 
L 373.718494 580.218831 
L 383.229858 580.218831 
L 383.229858 587.243095 
L 392.741222 587.243095 
L 392.741222 589.584516 
L 402.252585 589.584516 
L 402.252585 570.853145 
L 411.763949 570.853145 
L 411.763949 573.194566 
L 421.275313 573.194566 
L 421.275313 587.243095 
L 430.786676 587.243095 
L 430.786676 575.535988 
L 440.29804 575.535988 
L 440.29804 575.535988 
L 449.809403 575.535988 
L 449.809403 568.511724 
L 459.320767 568.511724 
L 459.320767 542.756088 
L 468.832131 542.756088 
L 468.832131 540.414667 
L 478.343494 540.414667 
L 478.343494 554.463195 
L 487.854858 554.463195 
L 487.854858 542.756088 
L 497.366222 542.756088 
L 497.366222 517.000453 
L 506.877585 517.000453 
L 506.877585 472.513446 
L 516.388949 472.513446 
L 516.388949 423.343597 
L 525.900313 423.343597 
L 525.900313 425.685019 
L 535.411676 425.685019 
L 535.411676 535.731824 
L 544.92304 535.731824 
L 544.92304 556.804617 
L 554.434403 556.804617 
L 554.434403 566.170302 
L 563.945767 566.170302 
L 563.945767 573.194566 
L 573.457131 573.194566 
L 573.457131 563.828881 
L 582.968494 563.828881 
L 582.968494 570.853145 
L 592.479858 570.853145 
L 592.479858 568.511724 
L 601.991222 568.511724 
L 601.991222 587.243095 
L 611.502585 587.243095 
L 611.502585 580.218831 
L 621.013949 580.218831 
L 621.013949 589.584516 
L 630.525313 589.584516 
L 630.525313 589.584516 
L 640.036676 589.584516 
L 640.036676 589.584516 
L 649.54804 589.584516 
L 649.54804 591.925938 
L 659.059403 591.925938 
L 659.059403 580.218831 
L 668.570767 580.218831 
L 668.570767 591.925938 
L 678.082131 591.925938 
L 678.082131 589.584516 
L 687.593494 589.584516 
L 687.593494 591.925938 
L 697.104858 591.925938 
L 697.104858 589.584516 
L 706.616222 589.584516 
L 706.616222 589.584516 
L 716.127585 589.584516 
L 716.127585 587.243095 
L 725.638949 587.243095 
L 725.638949 591.925938 
L 735.150312 591.925938 
L 735.150312 587.243095 
L 744.661676 587.243095 
L 744.661676 591.925938 
L 754.17304 591.925938 
L 754.17304 591.925938 
L 763.684403 591.925938 
L 763.684403 591.925938 
L 773.195767 591.925938 
L 773.195767 591.925938 
L 782.707131 591.925938 
L 782.707131 589.584516 
L 792.218494 589.584516 
L 792.218494 591.925938 
L 801.729858 591.925938 
L 801.729858 591.925938 
L 811.241222 591.925938 
L 811.241222 591.925938 
L 820.752585 591.925938 
L 820.752585 591.925938 
L 830.263949 591.925938 
L 830.263949 591.925938 
L 839.775312 591.925938 
L 839.775312 591.925938 
L 849.286676 591.925938 
L 849.286676 591.925938 
L 858.79804 591.925938 
L 858.79804 591.925938 
L 868.309403 591.925938 
L 868.309403 591.925938 
L 877.820767 591.925938 
L 877.820767 591.925938 
L 887.332131 591.925938 
L 887.332131 591.925938 
L 896.843494 591.925938 
L 896.843494 591.925938 
L 906.354858 591.925938 
L 906.354858 591.925938 
L 896.843494 591.925938 
L 896.843494 591.925938 
L 887.332131 591.925938 
L 887.332131 591.925938 
L 877.820767 591.925938 
L 877.820767 591.925938 
L 868.309403 591.925938 
L 868.309403 591.925938 
L 858.79804 591.925938 
L 858.79804 591.925938 
L 849.286676 591.925938 
L 849.286676 591.925938 
L 839.775312 591.925938 
L 839.775312 591.925938 
L 830.263949 591.925938 
L 830.263949 591.925938 
L 820.752585 591.925938 
L 820.752585 591.925938 
L 811.241222 591.925938 
L 811.241222 591.925938 
L 801.729858 591.925938 
L 801.729858 591.925938 
L 792.218494 591.925938 
L 792.218494 591.925938 
L 782.707131 591.925938 
L 782.707131 591.925938 
L 773.195767 591.925938 
L 773.195767 591.925938 
L 763.684403 591.925938 
L 763.684403 591.925938 
L 754.17304 591.925938 
L 754.17304 591.925938 
L 744.661676 591.925938 
L 744.661676 591.925938 
L 735.150312 591.925938 
L 735.150312 591.925938 
L 725.638949 591.925938 
L 725.638949 591.925938 
L 716.127585 591.925938 
L 716.127585 591.925938 
L 706.616222 591.925938 
L 706.616222 591.925938 
L 697.104858 591.925938 
L 697.104858 591.925938 
L 687.593494 591.925938 
L 687.593494 591.925938 
L 678.082131 591.925938 
L 678.082131 591.925938 
L 668.570767 591.925938 
L 668.570767 591.925938 
L 659.059403 591.925938 
L 659.059403 591.925938 
L 649.54804 591.925938 
L 649.54804 591.925938 
L 640.036676 591.925938 
L 640.036676 591.925938 
L 630.525313 591.925938 
L 630.525313 591.925938 
L 621.013949 591.925938 
L 621.013949 591.925938 
L 611.502585 591.925938 
L 611.502585 591.925938 
L 601.991222 591.925938 
L 601.991222 591.925938 
L 592.479858 591.925938 
L 592.479858 591.925938 
L 582.968494 591.925938 
L 582.968494 591.925938 
L 573.457131 591.925938 
L 573.457131 591.925938 
L 563.945767 591.925938 
L 563.945767 591.925938 
L 554.434403 591.925938 
L 554.434403 591.925938 
L 544.92304 591.925938 
L 544.92304 591.925938 
L 535.411676 591.925938 
L 535.411676 591.925938 
L 525.900313 591.925938 
L 525.900313 591.925938 
L 516.388949 591.925938 
L 516.388949 591.925938 
L 506.877585 591.925938 
L 506.877585 591.925938 
L 497.366222 591.925938 
L 497.366222 591.925938 
L 487.854858 591.925938 
L 487.854858 591.925938 
L 478.343494 591.925938 
L 478.343494 591.925938 
L 468.832131 591.925938 
L 468.832131 591.925938 
L 459.320767 591.925938 
L 459.320767 591.925938 
L 449.809403 591.925938 
L 449.809403 591.925938 
L 440.29804 591.925938 
L 440.29804 591.925938 
L 430.786676 591.925938 
L 430.786676 591.925938 
L 421.275313 591.925938 
L 421.275313 591.925938 
L 411.763949 591.925938 
L 411.763949 591.925938 
L 402.252585 591.925938 
L 402.252585 591.925938 
L 392.741222 591.925938 
L 392.741222 591.925938 
L 383.229858 591.925938 
L 383.229858 591.925938 
L 373.718494 591.925938 
L 373.718494 591.925938 
L 364.207131 591.925938 
L 364.207131 591.925938 
L 354.695767 591.925938 
L 354.695767 591.925938 
L 345.184403 591.925938 
L 345.184403 591.925938 
L 335.67304 591.925938 
L 335.67304 591.925938 
L 326.161676 591.925938 
L 326.161676 591.925938 
L 316.650313 591.925938 
L 316.650313 591.925938 
L 307.138949 591.925938 
L 307.138949 591.925938 
L 297.627585 591.925938 
L 297.627585 591.925938 
L 288.116222 591.925938 
L 288.116222 591.925938 
L 278.604858 591.925938 
L 278.604858 591.925938 
L 269.093494 591.925938 
L 269.093494 591.925938 
L 259.582131 591.925938 
L 259.582131 591.925938 
L 250.070767 591.925938 
L 250.070767 591.925938 
L 240.559403 591.925938 
L 240.559403 591.925938 
L 231.04804 591.925938 
L 231.04804 591.925938 
L 221.536676 591.925938 
L 221.536676 591.925938 
L 212.025313 591.925938 
L 212.025313 591.925938 
L 202.513949 591.925938 
L 202.513949 591.925938 
L 193.002585 591.925938 
L 193.002585 591.925938 
L 183.491222 591.925938 
L 183.491222 591.925938 
L 173.979858 591.925938 
L 173.979858 591.925938 
L 164.468494 591.925938 
L 164.468494 591.925938 
L 154.957131 591.925938 
L 154.957131 591.925938 
z
" style="fill:#f8ed73;"/>
   </g>
   <g id="patch_6">
    <path clip-path="url(#p09d42fe166)" d="M 145.445767 591.925938 
L 145.445767 591.925938 
L 154.957131 591.925938 
L 154.957131 591.925938 
L 164.468494 591.925938 
L 164.468494 589.584516 
L 173.979858 589.584516 
L 173.979858 591.925938 
L 183.491222 591.925938 
L 183.491222 591.925938 
L 193.002585 591.925938 
L 193.002585 591.925938 
L 202.513949 591.925938 
L 202.513949 589.584516 
L 212.025313 589.584516 
L 212.025313 591.925938 
L 221.536676 591.925938 
L 221.536676 591.925938 
L 231.04804 591.925938 
L 231.04804 591.925938 
L 240.559403 591.925938 
L 240.559403 591.925938 
L 250.070767 591.925938 
L 250.070767 591.925938 
L 259.582131 591.925938 
L 259.582131 591.925938 
L 269.093494 591.925938 
L 269.093494 591.925938 
L 278.604858 591.925938 
L 278.604858 589.584516 
L 288.116222 589.584516 
L 288.116222 591.925938 
L 297.627585 591.925938 
L 297.627585 591.925938 
L 307.138949 591.925938 
L 307.138949 589.584516 
L 316.650313 589.584516 
L 316.650313 591.925938 
L 326.161676 591.925938 
L 326.161676 587.243095 
L 335.67304 587.243095 
L 335.67304 587.243095 
L 345.184403 587.243095 
L 345.184403 591.925938 
L 354.695767 591.925938 
L 354.695767 591.925938 
L 364.207131 591.925938 
L 364.207131 587.243095 
L 373.718494 587.243095 
L 373.718494 584.901673 
L 383.229858 584.901673 
L 383.229858 591.925938 
L 392.741222 591.925938 
L 392.741222 589.584516 
L 402.252585 589.584516 
L 402.252585 584.901673 
L 411.763949 584.901673 
L 411.763949 582.560252 
L 421.275313 582.560252 
L 421.275313 589.584516 
L 430.786676 589.584516 
L 430.786676 584.901673 
L 440.29804 584.901673 
L 440.29804 587.243095 
L 449.809403 587.243095 
L 449.809403 587.243095 
L 459.320767 587.243095 
L 459.320767 577.877409 
L 468.832131 577.877409 
L 468.832131 580.218831 
L 478.343494 580.218831 
L 478.343494 573.194566 
L 487.854858 573.194566 
L 487.854858 547.438931 
L 497.366222 547.438931 
L 497.366222 559.146038 
L 506.877585 559.146038 
L 506.877585 533.390403 
L 516.388949 533.390403 
L 516.388949 495.92766 
L 525.900313 495.92766 
L 525.900313 531.048981 
L 535.411676 531.048981 
L 535.411676 570.853145 
L 544.92304 570.853145 
L 544.92304 568.511724 
L 554.434403 568.511724 
L 554.434403 573.194566 
L 563.945767 573.194566 
L 563.945767 584.901673 
L 573.457131 584.901673 
L 573.457131 580.218831 
L 582.968494 580.218831 
L 582.968494 584.901673 
L 592.479858 584.901673 
L 592.479858 589.584516 
L 601.991222 589.584516 
L 601.991222 591.925938 
L 611.502585 591.925938 
L 611.502585 587.243095 
L 621.013949 587.243095 
L 621.013949 589.584516 
L 630.525313 589.584516 
L 630.525313 589.584516 
L 640.036676 589.584516 
L 640.036676 584.901673 
L 649.54804 584.901673 
L 649.54804 584.901673 
L 659.059403 584.901673 
L 659.059403 587.243095 
L 668.570767 587.243095 
L 668.570767 591.925938 
L 678.082131 591.925938 
L 678.082131 589.584516 
L 687.593494 589.584516 
L 687.593494 591.925938 
L 697.104858 591.925938 
L 697.104858 591.925938 
L 706.616222 591.925938 
L 706.616222 589.584516 
L 716.127585 589.584516 
L 716.127585 589.584516 
L 725.638949 589.584516 
L 725.638949 591.925938 
L 735.150312 591.925938 
L 735.150312 591.925938 
L 744.661676 591.925938 
L 744.661676 591.925938 
L 754.17304 591.925938 
L 754.17304 591.925938 
L 763.684403 591.925938 
L 763.684403 589.584516 
L 773.195767 589.584516 
L 773.195767 589.584516 
L 782.707131 589.584516 
L 782.707131 591.925938 
L 792.218494 591.925938 
L 792.218494 591.925938 
L 801.729858 591.925938 
L 801.729858 591.925938 
L 811.241222 591.925938 
L 811.241222 591.925938 
L 820.752585 591.925938 
L 820.752585 591.925938 
L 830.263949 591.925938 
L 830.263949 591.925938 
L 839.775312 591.925938 
L 839.775312 591.925938 
L 849.286676 591.925938 
L 849.286676 591.925938 
L 858.79804 591.925938 
L 858.79804 591.925938 
L 868.309403 591.925938 
L 868.309403 591.925938 
L 877.820767 591.925938 
L 877.820767 591.925938 
L 887.332131 591.925938 
L 887.332131 591.925938 
L 896.843494 591.925938 
L 896.843494 591.925938 
L 906.354858 591.925938 
L 906.354858 591.925938 
L 896.843494 591.925938 
L 896.843494 591.925938 
L 887.332131 591.925938 
L 887.332131 591.925938 
L 877.820767 591.925938 
L 877.820767 591.925938 
L 868.309403 591.925938 
L 868.309403 591.925938 
L 858.79804 591.925938 
L 858.79804 591.925938 
L 849.286676 591.925938 
L 849.286676 591.925938 
L 839.775312 591.925938 
L 839.775312 591.925938 
L 830.263949 591.925938 
L 830.263949 591.925938 
L 820.752585 591.925938 
L 820.752585 591.925938 
L 811.241222 591.925938 
L 811.241222 591.925938 
L 801.729858 591.925938 
L 801.729858 591.925938 
L 792.218494 591.925938 
L 792.218494 591.925938 
L 782.707131 591.925938 
L 782.707131 591.925938 
L 773.195767 591.925938 
L 773.195767 591.925938 
L 763.684403 591.925938 
L 763.684403 591.925938 
L 754.17304 591.925938 
L 754.17304 591.925938 
L 744.661676 591.925938 
L 744.661676 591.925938 
L 735.150312 591.925938 
L 735.150312 591.925938 
L 725.638949 591.925938 
L 725.638949 591.925938 
L 716.127585 591.925938 
L 716.127585 591.925938 
L 706.616222 591.925938 
L 706.616222 591.925938 
L 697.104858 591.925938 
L 697.104858 591.925938 
L 687.593494 591.925938 
L 687.593494 591.925938 
L 678.082131 591.925938 
L 678.082131 591.925938 
L 668.570767 591.925938 
L 668.570767 591.925938 
L 659.059403 591.925938 
L 659.059403 591.925938 
L 649.54804 591.925938 
L 649.54804 591.925938 
L 640.036676 591.925938 
L 640.036676 591.925938 
L 630.525313 591.925938 
L 630.525313 591.925938 
L 621.013949 591.925938 
L 621.013949 591.925938 
L 611.502585 591.925938 
L 611.502585 591.925938 
L 601.991222 591.925938 
L 601.991222 591.925938 
L 592.479858 591.925938 
L 592.479858 591.925938 
L 582.968494 591.925938 
L 582.968494 591.925938 
L 573.457131 591.925938 
L 573.457131 591.925938 
L 563.945767 591.925938 
L 563.945767 591.925938 
L 554.434403 591.925938 
L 554.434403 591.925938 
L 544.92304 591.925938 
L 544.92304 591.925938 
L 535.411676 591.925938 
L 535.411676 591.925938 
L 525.900313 591.925938 
L 525.900313 591.925938 
L 516.388949 591.925938 
L 516.388949 591.925938 
L 506.877585 591.925938 
L 506.877585 591.925938 
L 497.366222 591.925938 
L 497.366222 591.925938 
L 487.854858 591.925938 
L 487.854858 591.925938 
L 478.343494 591.925938 
L 478.343494 591.925938 
L 468.832131 591.925938 
L 468.832131 591.925938 
L 459.320767 591.925938 
L 459.320767 591.925938 
L 449.809403 591.925938 
L 449.809403 591.925938 
L 440.29804 591.925938 
L 440.29804 591.925938 
L 430.786676 591.925938 
L 430.786676 591.925938 
L 421.275313 591.925938 
L 421.275313 591.925938 
L 411.763949 591.925938 
L 411.763949 591.925938 
L 402.252585 591.925938 
L 402.252585 591.925938 
L 392.741222 591.925938 
L 392.741222 591.925938 
L 383.229858 591.925938 
L 383.229858 591.925938 
L 373.718494 591.925938 
L 373.718494 591.925938 
L 364.207131 591.925938 
L 364.207131 591.925938 
L 354.695767 591.925938 
L 354.695767 591.925938 
L 345.184403 591.925938 
L 345.184403 591.925938 
L 335.67304 591.925938 
L 335.67304 591.925938 
L 326.161676 591.925938 
L 326.161676 591.925938 
L 316.650313 591.925938 
L 316.650313 591.925938 
L 307.138949 591.925938 
L 307.138949 591.925938 
L 297.627585 591.925938 
L 297.627585 591.925938 
L 288.116222 591.925938 
L 288.116222 591.925938 
L 278.604858 591.925938 
L 278.604858 591.925938 
L 269.093494 591.925938 
L 269.093494 591.925938 
L 259.582131 591.925938 
L 259.582131 591.925938 
L 250.070767 591.925938 
L 250.070767 591.925938 
L 240.559403 591.925938 
L 240.559403 591.925938 
L 231.04804 591.925938 
L 231.04804 591.925938 
L 221.536676 591.925938 
L 221.536676 591.925938 
L 212.025313 591.925938 
L 212.025313 591.925938 
L 202.513949 591.925938 
L 202.513949 591.925938 
L 193.002585 591.925938 
L 193.002585 591.925938 
L 183.491222 591.925938 
L 183.491222 591.925938 
L 173.979858 591.925938 
L 173.979858 591.925938 
L 164.468494 591.925938 
L 164.468494 591.925938 
L 154.957131 591.925938 
L 154.957131 591.925938 
z
" style="fill:#f48a1e;"/>
   </g>
   <g id="matplotlib.axis_1">
    <g id="xtick_1">
     <g id="line2d_1">
      <defs>
       <path d="M 0 0 
L 0 3.5 
" id="me6dc4ed01e" style="stroke:#000000;stroke-width:0.8;"/>
      </defs>
      <g>
       <use style="stroke:#000000;stroke-width:0.8;" x="145.445767" xlink:href="#me6dc4ed01e" y="591.925938"/>
      </g>
     </g>
     <g id="text_1">
      <!-- −0.10 -->
      <defs>
       <path d="M 10.59375 35.5 
L 73.1875 35.5 
L 73.1875 27.203125 
L 10.59375 27.203125 
z
" id="DejaVuSans-8722"/>
       <path d="M 31.78125 66.40625 
Q 24.171875 66.40625 20.328125 58.90625 
Q 16.5 51.421875 16.5 36.375 
Q 16.5 21.390625 20.328125 13.890625 
Q 24.171875 6.390625 31.78125 6.390625 
Q 39.453125 6.390625 43.28125 13.890625 
Q 47.125 21.390625 47.125 36.375 
Q 47.125 51.421875 43.28125 58.90625 
Q 39.453125 66.40625 31.78125 66.40625 
z
M 31.78125 74.21875 
Q 44.046875 74.21875 50.515625 64.515625 
Q 56.984375 54.828125 56.984375 36.375 
Q 56.984375 17.96875 50.515625 8.265625 
Q 44.046875 -1.421875 31.78125 -1.421875 
Q 19.53125 -1.421875 13.0625 8.265625 
Q 6.59375 17.96875 6.59375 36.375 
Q 6.59375 54.828125 13.0625 64.515625 
Q 19.53125 74.21875 31.78125 74.21875 
z
" id="DejaVuSans-48"/>
       <path d="M 10.6875 12.40625 
L 21 12.40625 
L 21 0 
L 10.6875 0 
z
" id="DejaVuSans-46"/>
       <path d="M 12.40625 8.296875 
L 28.515625 8.296875 
L 28.515625 63.921875 
L 10.984375 60.40625 
L 10.984375 69.390625 
L 28.421875 72.90625 
L 38.28125 72.90625 
L 38.28125 8.296875 
L 54.390625 8.296875 
L 54.390625 0 
L 12.40625 0 
z
" id="DejaVuSans-49"/>
      </defs>
      <g transform="translate(99.477798 621.72125)scale(0.3 -0.3)">
       <use xlink:href="#DejaVuSans-8722"/>
       <use x="83.789062" xlink:href="#DejaVuSans-48"/>
       <use x="147.412109" xlink:href="#DejaVuSans-46"/>
       <use x="179.199219" xlink:href="#DejaVuSans-49"/>
       <use x="242.822266" xlink:href="#DejaVuSans-48"/>
      </g>
     </g>
    </g>
    <g id="xtick_2">
     <g id="line2d_2">
      <g>
       <use style="stroke:#000000;stroke-width:0.8;" x="335.67304" xlink:href="#me6dc4ed01e" y="591.925938"/>
      </g>
     </g>
     <g id="text_2">
      <!-- −0.05 -->
      <defs>
       <path d="M 10.796875 72.90625 
L 49.515625 72.90625 
L 49.515625 64.59375 
L 19.828125 64.59375 
L 19.828125 46.734375 
Q 21.96875 47.46875 24.109375 47.828125 
Q 26.265625 48.1875 28.421875 48.1875 
Q 40.625 48.1875 47.75 41.5 
Q 54.890625 34.8125 54.890625 23.390625 
Q 54.890625 11.625 47.5625 5.09375 
Q 40.234375 -1.421875 26.90625 -1.421875 
Q 22.3125 -1.421875 17.546875 -0.640625 
Q 12.796875 0.140625 7.71875 1.703125 
L 7.71875 11.625 
Q 12.109375 9.234375 16.796875 8.0625 
Q 21.484375 6.890625 26.703125 6.890625 
Q 35.15625 6.890625 40.078125 11.328125 
Q 45.015625 15.765625 45.015625 23.390625 
Q 45.015625 31 40.078125 35.4375 
Q 35.15625 39.890625 26.703125 39.890625 
Q 22.75 39.890625 18.8125 39.015625 
Q 14.890625 38.140625 10.796875 36.28125 
z
" id="DejaVuSans-53"/>
      </defs>
      <g transform="translate(289.705071 621.72125)scale(0.3 -0.3)">
       <use xlink:href="#DejaVuSans-8722"/>
       <use x="83.789062" xlink:href="#DejaVuSans-48"/>
       <use x="147.412109" xlink:href="#DejaVuSans-46"/>
       <use x="179.199219" xlink:href="#DejaVuSans-48"/>
       <use x="242.822266" xlink:href="#DejaVuSans-53"/>
      </g>
     </g>
    </g>
    <g id="xtick_3">
     <g id="line2d_3">
      <g>
       <use style="stroke:#000000;stroke-width:0.8;" x="525.900313" xlink:href="#me6dc4ed01e" y="591.925938"/>
      </g>
     </g>
     <g id="text_3">
      <!-- 0.00 -->
      <g transform="translate(492.501875 621.72125)scale(0.3 -0.3)">
       <use xlink:href="#DejaVuSans-48"/>
       <use x="63.623047" xlink:href="#DejaVuSans-46"/>
       <use x="95.410156" xlink:href="#DejaVuSans-48"/>
       <use x="159.033203" xlink:href="#DejaVuSans-48"/>
      </g>
     </g>
    </g>
    <g id="xtick_4">
     <g id="line2d_4">
      <g>
       <use style="stroke:#000000;stroke-width:0.8;" x="716.127585" xlink:href="#me6dc4ed01e" y="591.925938"/>
      </g>
     </g>
     <g id="text_4">
      <!-- 0.05 -->
      <g transform="translate(682.729148 621.72125)scale(0.3 -0.3)">
       <use xlink:href="#DejaVuSans-48"/>
       <use x="63.623047" xlink:href="#DejaVuSans-46"/>
       <use x="95.410156" xlink:href="#DejaVuSans-48"/>
       <use x="159.033203" xlink:href="#DejaVuSans-53"/>
      </g>
     </g>
    </g>
    <g id="xtick_5">
     <g id="line2d_5">
      <g>
       <use style="stroke:#000000;stroke-width:0.8;" x="906.354858" xlink:href="#me6dc4ed01e" y="591.925938"/>
      </g>
     </g>
     <g id="text_5">
      <!-- 0.10 -->
      <g transform="translate(872.95642 621.72125)scale(0.3 -0.3)">
       <use xlink:href="#DejaVuSans-48"/>
       <use x="63.623047" xlink:href="#DejaVuSans-46"/>
       <use x="95.410156" xlink:href="#DejaVuSans-49"/>
       <use x="159.033203" xlink:href="#DejaVuSans-48"/>
      </g>
     </g>
    </g>
    <g id="text_6">
     <!-- $\Delta E = E^{SCAN} - E^{GGA}$ (eV/atom) -->
     <defs>
      <path d="M 34.1875 63.1875 
L 14.15625 8.203125 
L 54.25 8.203125 
z
M 0.78125 0 
L 28.609375 72.90625 
L 39.796875 72.90625 
L 67.578125 0 
z
" id="DejaVuSans-916"/>
      <path d="M 16.890625 72.90625 
L 62.984375 72.90625 
L 61.375 64.59375 
L 25.09375 64.59375 
L 20.90625 43.015625 
L 55.71875 43.015625 
L 54.109375 34.71875 
L 19.28125 34.71875 
L 14.203125 8.296875 
L 51.3125 8.296875 
L 49.703125 0 
L 2.6875 0 
z
" id="DejaVuSans-Oblique-69"/>
      <path d="M 10.59375 45.40625 
L 73.1875 45.40625 
L 73.1875 37.203125 
L 10.59375 37.203125 
z
M 10.59375 25.484375 
L 73.1875 25.484375 
L 73.1875 17.1875 
L 10.59375 17.1875 
z
" id="DejaVuSans-61"/>
      <path d="M 60.296875 70.515625 
L 58.40625 60.890625 
Q 53.46875 63.53125 48.609375 64.875 
Q 43.75 66.21875 39.203125 66.21875 
Q 30.375 66.21875 25.140625 62.359375 
Q 19.921875 58.5 19.921875 52.09375 
Q 19.921875 48.578125 21.84375 46.703125 
Q 23.78125 44.828125 31.78125 42.671875 
L 37.703125 41.21875 
Q 47.703125 38.625 51.609375 34.640625 
Q 55.515625 30.671875 55.515625 23.484375 
Q 55.515625 12.453125 46.84375 5.515625 
Q 38.1875 -1.421875 24.03125 -1.421875 
Q 18.21875 -1.421875 12.359375 -0.265625 
Q 6.5 0.875 0.59375 3.21875 
L 2.59375 13.375 
Q 8.015625 10.015625 13.453125 8.296875 
Q 18.890625 6.59375 24.3125 6.59375 
Q 33.546875 6.59375 39.109375 10.6875 
Q 44.671875 14.796875 44.671875 21.390625 
Q 44.671875 25.78125 42.453125 28.046875 
Q 40.234375 30.328125 32.90625 32.171875 
L 27 33.6875 
Q 16.890625 36.328125 13.203125 39.765625 
Q 9.515625 43.21875 9.515625 49.421875 
Q 9.515625 60.296875 17.890625 67.25 
Q 26.265625 74.21875 39.703125 74.21875 
Q 44.921875 74.21875 50.046875 73.28125 
Q 55.171875 72.359375 60.296875 70.515625 
z
" id="DejaVuSans-Oblique-83"/>
      <path d="M 69.484375 67.28125 
L 67.484375 56.890625 
Q 62.796875 61.625 57.546875 63.921875 
Q 52.296875 66.21875 46.1875 66.21875 
Q 37.84375 66.21875 31.515625 62.203125 
Q 25.203125 58.203125 20.609375 50 
Q 17.671875 44.734375 16.125 38.84375 
Q 14.59375 32.953125 14.59375 27 
Q 14.59375 17.046875 19.75 11.8125 
Q 24.90625 6.59375 34.71875 6.59375 
Q 41.5 6.59375 47.75 8.765625 
Q 54 10.9375 59.90625 15.28125 
L 57.625 3.609375 
Q 51.8125 1.125 45.875 -0.140625 
Q 39.9375 -1.421875 33.984375 -1.421875 
Q 19.96875 -1.421875 12.078125 6.1875 
Q 4.203125 13.8125 4.203125 27.390625 
Q 4.203125 36.078125 7.203125 44.46875 
Q 10.203125 52.875 15.828125 59.8125 
Q 21.78125 67.1875 29.421875 70.703125 
Q 37.0625 74.21875 47.21875 74.21875 
Q 53.46875 74.21875 59.0625 72.484375 
Q 64.65625 70.75 69.484375 67.28125 
z
" id="DejaVuSans-Oblique-67"/>
      <path d="M 36.8125 72.90625 
L 48 72.90625 
L 61.53125 0 
L 51.21875 0 
L 48.1875 18.703125 
L 15.375 18.703125 
L 5.078125 0 
L -5.328125 0 
z
M 40.375 63.1875 
L 19.921875 26.90625 
L 46.6875 26.90625 
z
" id="DejaVuSans-Oblique-65"/>
      <path d="M 16.890625 72.90625 
L 30.171875 72.90625 
L 50.296875 10.40625 
L 62.5 72.90625 
L 72.125 72.90625 
L 57.90625 0 
L 44.578125 0 
L 24.515625 62.890625 
L 12.3125 0 
L 2.6875 0 
z
" id="DejaVuSans-Oblique-78"/>
      <path d="M 54.59375 10.890625 
L 58.40625 29.984375 
L 42.1875 29.984375 
L 43.703125 38.09375 
L 69.578125 38.09375 
L 63.28125 6 
Q 56.78125 2.4375 49.109375 0.5 
Q 41.453125 -1.421875 33.6875 -1.421875 
Q 19.96875 -1.421875 12.234375 6.1875 
Q 4.5 13.8125 4.5 27.390625 
Q 4.5 38.671875 9.203125 48.84375 
Q 13.921875 59.03125 22.21875 65.828125 
Q 27.4375 70.0625 33.640625 72.140625 
Q 39.84375 74.21875 47.40625 74.21875 
Q 54.25 74.21875 60.515625 72.484375 
Q 66.796875 70.75 72.515625 67.28125 
L 70.515625 56.78125 
Q 66.109375 61.375 60.203125 63.796875 
Q 54.296875 66.21875 47.609375 66.21875 
Q 39.84375 66.21875 33.9375 63.25 
Q 28.03125 60.296875 23.390625 54.109375 
Q 19.4375 48.828125 17.15625 41.671875 
Q 14.890625 34.515625 14.890625 27.09375 
Q 14.890625 16.890625 20.109375 11.734375 
Q 25.34375 6.59375 35.6875 6.59375 
Q 40.875 6.59375 45.703125 7.6875 
Q 50.53125 8.796875 54.59375 10.890625 
z
" id="DejaVuSans-Oblique-71"/>
      <path id="DejaVuSans-32"/>
      <path d="M 31 75.875 
Q 24.46875 64.65625 21.28125 53.65625 
Q 18.109375 42.671875 18.109375 31.390625 
Q 18.109375 20.125 21.3125 9.0625 
Q 24.515625 -2 31 -13.1875 
L 23.1875 -13.1875 
Q 15.875 -1.703125 12.234375 9.375 
Q 8.59375 20.453125 8.59375 31.390625 
Q 8.59375 42.28125 12.203125 53.3125 
Q 15.828125 64.359375 23.1875 75.875 
z
" id="DejaVuSans-40"/>
      <path d="M 56.203125 29.59375 
L 56.203125 25.203125 
L 14.890625 25.203125 
Q 15.484375 15.921875 20.484375 11.0625 
Q 25.484375 6.203125 34.421875 6.203125 
Q 39.59375 6.203125 44.453125 7.46875 
Q 49.3125 8.734375 54.109375 11.28125 
L 54.109375 2.78125 
Q 49.265625 0.734375 44.1875 -0.34375 
Q 39.109375 -1.421875 33.890625 -1.421875 
Q 20.796875 -1.421875 13.15625 6.1875 
Q 5.515625 13.8125 5.515625 26.8125 
Q 5.515625 40.234375 12.765625 48.109375 
Q 20.015625 56 32.328125 56 
Q 43.359375 56 49.78125 48.890625 
Q 56.203125 41.796875 56.203125 29.59375 
z
M 47.21875 32.234375 
Q 47.125 39.59375 43.09375 43.984375 
Q 39.0625 48.390625 32.421875 48.390625 
Q 24.90625 48.390625 20.390625 44.140625 
Q 15.875 39.890625 15.1875 32.171875 
z
" id="DejaVuSans-101"/>
      <path d="M 28.609375 0 
L 0.78125 72.90625 
L 11.078125 72.90625 
L 34.1875 11.53125 
L 57.328125 72.90625 
L 67.578125 72.90625 
L 39.796875 0 
z
" id="DejaVuSans-86"/>
      <path d="M 25.390625 72.90625 
L 33.6875 72.90625 
L 8.296875 -9.28125 
L 0 -9.28125 
z
" id="DejaVuSans-47"/>
      <path d="M 34.28125 27.484375 
Q 23.390625 27.484375 19.1875 25 
Q 14.984375 22.515625 14.984375 16.5 
Q 14.984375 11.71875 18.140625 8.90625 
Q 21.296875 6.109375 26.703125 6.109375 
Q 34.1875 6.109375 38.703125 11.40625 
Q 43.21875 16.703125 43.21875 25.484375 
L 43.21875 27.484375 
z
M 52.203125 31.203125 
L 52.203125 0 
L 43.21875 0 
L 43.21875 8.296875 
Q 40.140625 3.328125 35.546875 0.953125 
Q 30.953125 -1.421875 24.3125 -1.421875 
Q 15.921875 -1.421875 10.953125 3.296875 
Q 6 8.015625 6 15.921875 
Q 6 25.140625 12.171875 29.828125 
Q 18.359375 34.515625 30.609375 34.515625 
L 43.21875 34.515625 
L 43.21875 35.40625 
Q 43.21875 41.609375 39.140625 45 
Q 35.0625 48.390625 27.6875 48.390625 
Q 23 48.390625 18.546875 47.265625 
Q 14.109375 46.140625 10.015625 43.890625 
L 10.015625 52.203125 
Q 14.9375 54.109375 19.578125 55.046875 
Q 24.21875 56 28.609375 56 
Q 40.484375 56 46.34375 49.84375 
Q 52.203125 43.703125 52.203125 31.203125 
z
" id="DejaVuSans-97"/>
      <path d="M 18.3125 70.21875 
L 18.3125 54.6875 
L 36.8125 54.6875 
L 36.8125 47.703125 
L 18.3125 47.703125 
L 18.3125 18.015625 
Q 18.3125 11.328125 20.140625 9.421875 
Q 21.96875 7.515625 27.59375 7.515625 
L 36.8125 7.515625 
L 36.8125 0 
L 27.59375 0 
Q 17.1875 0 13.234375 3.875 
Q 9.28125 7.765625 9.28125 18.015625 
L 9.28125 47.703125 
L 2.6875 47.703125 
L 2.6875 54.6875 
L 9.28125 54.6875 
L 9.28125 70.21875 
z
" id="DejaVuSans-116"/>
      <path d="M 30.609375 48.390625 
Q 23.390625 48.390625 19.1875 42.75 
Q 14.984375 37.109375 14.984375 27.296875 
Q 14.984375 17.484375 19.15625 11.84375 
Q 23.34375 6.203125 30.609375 6.203125 
Q 37.796875 6.203125 41.984375 11.859375 
Q 46.1875 17.53125 46.1875 27.296875 
Q 46.1875 37.015625 41.984375 42.703125 
Q 37.796875 48.390625 30.609375 48.390625 
z
M 30.609375 56 
Q 42.328125 56 49.015625 48.375 
Q 55.71875 40.765625 55.71875 27.296875 
Q 55.71875 13.875 49.015625 6.21875 
Q 42.328125 -1.421875 30.609375 -1.421875 
Q 18.84375 -1.421875 12.171875 6.21875 
Q 5.515625 13.875 5.515625 27.296875 
Q 5.515625 40.765625 12.171875 48.375 
Q 18.84375 56 30.609375 56 
z
" id="DejaVuSans-111"/>
      <path d="M 52 44.1875 
Q 55.375 50.25 60.0625 53.125 
Q 64.75 56 71.09375 56 
Q 79.640625 56 84.28125 50.015625 
Q 88.921875 44.046875 88.921875 33.015625 
L 88.921875 0 
L 79.890625 0 
L 79.890625 32.71875 
Q 79.890625 40.578125 77.09375 44.375 
Q 74.3125 48.1875 68.609375 48.1875 
Q 61.625 48.1875 57.5625 43.546875 
Q 53.515625 38.921875 53.515625 30.90625 
L 53.515625 0 
L 44.484375 0 
L 44.484375 32.71875 
Q 44.484375 40.625 41.703125 44.40625 
Q 38.921875 48.1875 33.109375 48.1875 
Q 26.21875 48.1875 22.15625 43.53125 
Q 18.109375 38.875 18.109375 30.90625 
L 18.109375 0 
L 9.078125 0 
L 9.078125 54.6875 
L 18.109375 54.6875 
L 18.109375 46.1875 
Q 21.1875 51.21875 25.484375 53.609375 
Q 29.78125 56 35.6875 56 
Q 41.65625 56 45.828125 52.96875 
Q 50 49.953125 52 44.1875 
z
" id="DejaVuSans-109"/>
      <path d="M 8.015625 75.875 
L 15.828125 75.875 
Q 23.140625 64.359375 26.78125 53.3125 
Q 30.421875 42.28125 30.421875 31.390625 
Q 30.421875 20.453125 26.78125 9.375 
Q 23.140625 -1.703125 15.828125 -13.1875 
L 8.015625 -13.1875 
Q 14.5 -2 17.703125 9.0625 
Q 20.90625 20.125 20.90625 31.390625 
Q 20.90625 42.671875 17.703125 53.65625 
Q 14.5 64.65625 8.015625 75.875 
z
" id="DejaVuSans-41"/>
     </defs>
     <g transform="translate(293.910313 659.747344)scale(0.33 -0.33)">
      <use transform="translate(0 0.765625)" xlink:href="#DejaVuSans-916"/>
      <use transform="translate(68.408203 0.765625)" xlink:href="#DejaVuSans-Oblique-69"/>
      <use transform="translate(151.074219 0.765625)" xlink:href="#DejaVuSans-61"/>
      <use transform="translate(254.345703 0.765625)" xlink:href="#DejaVuSans-Oblique-69"/>
      <use transform="translate(324.546068 39.046875)scale(0.7)" xlink:href="#DejaVuSans-Oblique-83"/>
      <use transform="translate(368.979661 39.046875)scale(0.7)" xlink:href="#DejaVuSans-Oblique-67"/>
      <use transform="translate(417.856615 39.046875)scale(0.7)" xlink:href="#DejaVuSans-Oblique-65"/>
      <use transform="translate(465.742357 39.046875)scale(0.7)" xlink:href="#DejaVuSans-Oblique-78"/>
      <use transform="translate(540.322435 0.765625)" xlink:href="#DejaVuSans-8722"/>
      <use transform="translate(643.593919 0.765625)" xlink:href="#DejaVuSans-Oblique-69"/>
      <use transform="translate(713.794284 39.046875)scale(0.7)" xlink:href="#DejaVuSans-Oblique-71"/>
      <use transform="translate(768.037448 39.046875)scale(0.7)" xlink:href="#DejaVuSans-Oblique-71"/>
      <use transform="translate(822.280612 39.046875)scale(0.7)" xlink:href="#DejaVuSans-Oblique-65"/>
      <use transform="translate(872.900729 0.765625)" xlink:href="#DejaVuSans-32"/>
      <use transform="translate(904.687839 0.765625)" xlink:href="#DejaVuSans-40"/>
      <use transform="translate(943.70151 0.765625)" xlink:href="#DejaVuSans-101"/>
      <use transform="translate(1005.224948 0.765625)" xlink:href="#DejaVuSans-86"/>
      <use transform="translate(1073.633151 0.765625)" xlink:href="#DejaVuSans-47"/>
      <use transform="translate(1107.324557 0.765625)" xlink:href="#DejaVuSans-97"/>
      <use transform="translate(1168.603854 0.765625)" xlink:href="#DejaVuSans-116"/>
      <use transform="translate(1207.812839 0.765625)" xlink:href="#DejaVuSans-111"/>
      <use transform="translate(1268.994479 0.765625)" xlink:href="#DejaVuSans-109"/>
      <use transform="translate(1366.406589 0.765625)" xlink:href="#DejaVuSans-41"/>
     </g>
    </g>
   </g>
   <g id="matplotlib.axis_2">
    <g id="ytick_1">
     <g id="line2d_6">
      <defs>
       <path d="M 0 0 
L -3.5 0 
" id="m1eb0ed17ae" style="stroke:#000000;stroke-width:0.8;"/>
      </defs>
      <g>
       <use style="stroke:#000000;stroke-width:0.8;" x="107.400312" xlink:href="#m1eb0ed17ae" y="591.925938"/>
      </g>
     </g>
     <g id="text_7">
      <!-- 0 -->
      <g transform="translate(81.312813 603.323594)scale(0.3 -0.3)">
       <use xlink:href="#DejaVuSans-48"/>
      </g>
     </g>
    </g>
    <g id="ytick_2">
     <g id="line2d_7">
      <g>
       <use style="stroke:#000000;stroke-width:0.8;" x="107.400312" xlink:href="#m1eb0ed17ae" y="533.390403"/>
      </g>
     </g>
     <g id="text_8">
      <!-- 25 -->
      <defs>
       <path d="M 19.1875 8.296875 
L 53.609375 8.296875 
L 53.609375 0 
L 7.328125 0 
L 7.328125 8.296875 
Q 12.9375 14.109375 22.625 23.890625 
Q 32.328125 33.6875 34.8125 36.53125 
Q 39.546875 41.84375 41.421875 45.53125 
Q 43.3125 49.21875 43.3125 52.78125 
Q 43.3125 58.59375 39.234375 62.25 
Q 35.15625 65.921875 28.609375 65.921875 
Q 23.96875 65.921875 18.8125 64.3125 
Q 13.671875 62.703125 7.8125 59.421875 
L 7.8125 69.390625 
Q 13.765625 71.78125 18.9375 73 
Q 24.125 74.21875 28.421875 74.21875 
Q 39.75 74.21875 46.484375 68.546875 
Q 53.21875 62.890625 53.21875 53.421875 
Q 53.21875 48.921875 51.53125 44.890625 
Q 49.859375 40.875 45.40625 35.40625 
Q 44.1875 33.984375 37.640625 27.21875 
Q 31.109375 20.453125 19.1875 8.296875 
z
" id="DejaVuSans-50"/>
      </defs>
      <g transform="translate(62.225313 544.788059)scale(0.3 -0.3)">
       <use xlink:href="#DejaVuSans-50"/>
       <use x="63.623047" xlink:href="#DejaVuSans-53"/>
      </g>
     </g>
    </g>
    <g id="ytick_3">
     <g id="line2d_8">
      <g>
       <use style="stroke:#000000;stroke-width:0.8;" x="107.400312" xlink:href="#m1eb0ed17ae" y="474.854868"/>
      </g>
     </g>
     <g id="text_9">
      <!-- 50 -->
      <g transform="translate(62.225313 486.252524)scale(0.3 -0.3)">
       <use xlink:href="#DejaVuSans-53"/>
       <use x="63.623047" xlink:href="#DejaVuSans-48"/>
      </g>
     </g>
    </g>
    <g id="ytick_4">
     <g id="line2d_9">
      <g>
       <use style="stroke:#000000;stroke-width:0.8;" x="107.400312" xlink:href="#m1eb0ed17ae" y="416.319333"/>
      </g>
     </g>
     <g id="text_10">
      <!-- 75 -->
      <defs>
       <path d="M 8.203125 72.90625 
L 55.078125 72.90625 
L 55.078125 68.703125 
L 28.609375 0 
L 18.3125 0 
L 43.21875 64.59375 
L 8.203125 64.59375 
z
" id="DejaVuSans-55"/>
      </defs>
      <g transform="translate(62.225313 427.716989)scale(0.3 -0.3)">
       <use xlink:href="#DejaVuSans-55"/>
       <use x="63.623047" xlink:href="#DejaVuSans-53"/>
      </g>
     </g>
    </g>
    <g id="ytick_5">
     <g id="line2d_10">
      <g>
       <use style="stroke:#000000;stroke-width:0.8;" x="107.400312" xlink:href="#m1eb0ed17ae" y="357.783798"/>
      </g>
     </g>
     <g id="text_11">
      <!-- 100 -->
      <g transform="translate(43.137813 369.181454)scale(0.3 -0.3)">
       <use xlink:href="#DejaVuSans-49"/>
       <use x="63.623047" xlink:href="#DejaVuSans-48"/>
       <use x="127.246094" xlink:href="#DejaVuSans-48"/>
      </g>
     </g>
    </g>
    <g id="ytick_6">
     <g id="line2d_11">
      <g>
       <use style="stroke:#000000;stroke-width:0.8;" x="107.400312" xlink:href="#m1eb0ed17ae" y="299.248263"/>
      </g>
     </g>
     <g id="text_12">
      <!-- 125 -->
      <g transform="translate(43.137813 310.64592)scale(0.3 -0.3)">
       <use xlink:href="#DejaVuSans-49"/>
       <use x="63.623047" xlink:href="#DejaVuSans-50"/>
       <use x="127.246094" xlink:href="#DejaVuSans-53"/>
      </g>
     </g>
    </g>
    <g id="ytick_7">
     <g id="line2d_12">
      <g>
       <use style="stroke:#000000;stroke-width:0.8;" x="107.400312" xlink:href="#m1eb0ed17ae" y="240.712729"/>
      </g>
     </g>
     <g id="text_13">
      <!-- 150 -->
      <g transform="translate(43.137813 252.110385)scale(0.3 -0.3)">
       <use xlink:href="#DejaVuSans-49"/>
       <use x="63.623047" xlink:href="#DejaVuSans-53"/>
       <use x="127.246094" xlink:href="#DejaVuSans-48"/>
      </g>
     </g>
    </g>
    <g id="ytick_8">
     <g id="line2d_13">
      <g>
       <use style="stroke:#000000;stroke-width:0.8;" x="107.400312" xlink:href="#m1eb0ed17ae" y="182.177194"/>
      </g>
     </g>
     <g id="text_14">
      <!-- 175 -->
      <g transform="translate(43.137813 193.57485)scale(0.3 -0.3)">
       <use xlink:href="#DejaVuSans-49"/>
       <use x="63.623047" xlink:href="#DejaVuSans-55"/>
       <use x="127.246094" xlink:href="#DejaVuSans-53"/>
      </g>
     </g>
    </g>
    <g id="ytick_9">
     <g id="line2d_14">
      <g>
       <use style="stroke:#000000;stroke-width:0.8;" x="107.400312" xlink:href="#m1eb0ed17ae" y="123.641659"/>
      </g>
     </g>
     <g id="text_15">
      <!-- 200 -->
      <g transform="translate(43.137813 135.039315)scale(0.3 -0.3)">
       <use xlink:href="#DejaVuSans-50"/>
       <use x="63.623047" xlink:href="#DejaVuSans-48"/>
       <use x="127.246094" xlink:href="#DejaVuSans-48"/>
      </g>
     </g>
    </g>
    <g id="text_16">
     <!-- Count -->
     <defs>
      <path d="M 64.40625 67.28125 
L 64.40625 56.890625 
Q 59.421875 61.53125 53.78125 63.8125 
Q 48.140625 66.109375 41.796875 66.109375 
Q 29.296875 66.109375 22.65625 58.46875 
Q 16.015625 50.828125 16.015625 36.375 
Q 16.015625 21.96875 22.65625 14.328125 
Q 29.296875 6.6875 41.796875 6.6875 
Q 48.140625 6.6875 53.78125 8.984375 
Q 59.421875 11.28125 64.40625 15.921875 
L 64.40625 5.609375 
Q 59.234375 2.09375 53.4375 0.328125 
Q 47.65625 -1.421875 41.21875 -1.421875 
Q 24.65625 -1.421875 15.125 8.703125 
Q 5.609375 18.84375 5.609375 36.375 
Q 5.609375 53.953125 15.125 64.078125 
Q 24.65625 74.21875 41.21875 74.21875 
Q 47.75 74.21875 53.53125 72.484375 
Q 59.328125 70.75 64.40625 67.28125 
z
" id="DejaVuSans-67"/>
      <path d="M 8.5 21.578125 
L 8.5 54.6875 
L 17.484375 54.6875 
L 17.484375 21.921875 
Q 17.484375 14.15625 20.5 10.265625 
Q 23.53125 6.390625 29.59375 6.390625 
Q 36.859375 6.390625 41.078125 11.03125 
Q 45.3125 15.671875 45.3125 23.6875 
L 45.3125 54.6875 
L 54.296875 54.6875 
L 54.296875 0 
L 45.3125 0 
L 45.3125 8.40625 
Q 42.046875 3.421875 37.71875 1 
Q 33.40625 -1.421875 27.6875 -1.421875 
Q 18.265625 -1.421875 13.375 4.4375 
Q 8.5 10.296875 8.5 21.578125 
z
M 31.109375 56 
z
" id="DejaVuSans-117"/>
      <path d="M 54.890625 33.015625 
L 54.890625 0 
L 45.90625 0 
L 45.90625 32.71875 
Q 45.90625 40.484375 42.875 44.328125 
Q 39.84375 48.1875 33.796875 48.1875 
Q 26.515625 48.1875 22.3125 43.546875 
Q 18.109375 38.921875 18.109375 30.90625 
L 18.109375 0 
L 9.078125 0 
L 9.078125 54.6875 
L 18.109375 54.6875 
L 18.109375 46.1875 
Q 21.34375 51.125 25.703125 53.5625 
Q 30.078125 56 35.796875 56 
Q 45.21875 56 50.046875 50.171875 
Q 54.890625 44.34375 54.890625 33.015625 
z
" id="DejaVuSans-110"/>
     </defs>
     <g transform="translate(32.274844 396.305781)rotate(-90)scale(0.33 -0.33)">
      <use xlink:href="#DejaVuSans-67"/>
      <use x="69.824219" xlink:href="#DejaVuSans-111"/>
      <use x="131.005859" xlink:href="#DejaVuSans-117"/>
      <use x="194.384766" xlink:href="#DejaVuSans-110"/>
      <use x="257.763672" xlink:href="#DejaVuSans-116"/>
     </g>
    </g>
   </g>
   <g id="line2d_15">
    <path clip-path="url(#p09d42fe166)" d="M 525.900313 591.925938 
L 525.900313 102.685938 
" style="fill:none;stroke:#000000;stroke-dasharray:7.4,3.2;stroke-dashoffset:0;stroke-width:2;"/>
   </g>
   <g id="patch_7">
    <path d="M 107.400312 591.925938 
L 107.400312 102.685938 
" style="fill:none;stroke:#000000;stroke-linecap:square;stroke-linejoin:miter;stroke-width:0.8;"/>
   </g>
   <g id="patch_8">
    <path d="M 944.400313 591.925938 
L 944.400313 102.685938 
" style="fill:none;stroke:#000000;stroke-linecap:square;stroke-linejoin:miter;stroke-width:0.8;"/>
   </g>
   <g id="patch_9">
    <path d="M 107.400313 591.925938 
L 944.400313 591.925938 
" style="fill:none;stroke:#000000;stroke-linecap:square;stroke-linejoin:miter;stroke-width:0.8;"/>
   </g>
   <g id="patch_10">
    <path d="M 107.400313 102.685938 
L 944.400313 102.685938 
" style="fill:none;stroke:#000000;stroke-linecap:square;stroke-linejoin:miter;stroke-width:0.8;"/>
   </g>
   <g id="text_17">
    <!-- Energy Comparisons for SCAN and GGA  -->
    <defs>
     <path d="M 9.8125 72.90625 
L 55.90625 72.90625 
L 55.90625 64.59375 
L 19.671875 64.59375 
L 19.671875 43.015625 
L 54.390625 43.015625 
L 54.390625 34.71875 
L 19.671875 34.71875 
L 19.671875 8.296875 
L 56.78125 8.296875 
L 56.78125 0 
L 9.8125 0 
z
" id="DejaVuSans-69"/>
     <path d="M 41.109375 46.296875 
Q 39.59375 47.171875 37.8125 47.578125 
Q 36.03125 48 33.890625 48 
Q 26.265625 48 22.1875 43.046875 
Q 18.109375 38.09375 18.109375 28.8125 
L 18.109375 0 
L 9.078125 0 
L 9.078125 54.6875 
L 18.109375 54.6875 
L 18.109375 46.1875 
Q 20.953125 51.171875 25.484375 53.578125 
Q 30.03125 56 36.53125 56 
Q 37.453125 56 38.578125 55.875 
Q 39.703125 55.765625 41.0625 55.515625 
z
" id="DejaVuSans-114"/>
     <path d="M 45.40625 27.984375 
Q 45.40625 37.75 41.375 43.109375 
Q 37.359375 48.484375 30.078125 48.484375 
Q 22.859375 48.484375 18.828125 43.109375 
Q 14.796875 37.75 14.796875 27.984375 
Q 14.796875 18.265625 18.828125 12.890625 
Q 22.859375 7.515625 30.078125 7.515625 
Q 37.359375 7.515625 41.375 12.890625 
Q 45.40625 18.265625 45.40625 27.984375 
z
M 54.390625 6.78125 
Q 54.390625 -7.171875 48.1875 -13.984375 
Q 42 -20.796875 29.203125 -20.796875 
Q 24.46875 -20.796875 20.265625 -20.09375 
Q 16.0625 -19.390625 12.109375 -17.921875 
L 12.109375 -9.1875 
Q 16.0625 -11.328125 19.921875 -12.34375 
Q 23.78125 -13.375 27.78125 -13.375 
Q 36.625 -13.375 41.015625 -8.765625 
Q 45.40625 -4.15625 45.40625 5.171875 
L 45.40625 9.625 
Q 42.625 4.78125 38.28125 2.390625 
Q 33.9375 0 27.875 0 
Q 17.828125 0 11.671875 7.65625 
Q 5.515625 15.328125 5.515625 27.984375 
Q 5.515625 40.671875 11.671875 48.328125 
Q 17.828125 56 27.875 56 
Q 33.9375 56 38.28125 53.609375 
Q 42.625 51.21875 45.40625 46.390625 
L 45.40625 54.6875 
L 54.390625 54.6875 
z
" id="DejaVuSans-103"/>
     <path d="M 32.171875 -5.078125 
Q 28.375 -14.84375 24.75 -17.8125 
Q 21.140625 -20.796875 15.09375 -20.796875 
L 7.90625 -20.796875 
L 7.90625 -13.28125 
L 13.1875 -13.28125 
Q 16.890625 -13.28125 18.9375 -11.515625 
Q 21 -9.765625 23.484375 -3.21875 
L 25.09375 0.875 
L 2.984375 54.6875 
L 12.5 54.6875 
L 29.59375 11.921875 
L 46.6875 54.6875 
L 56.203125 54.6875 
z
" id="DejaVuSans-121"/>
     <path d="M 18.109375 8.203125 
L 18.109375 -20.796875 
L 9.078125 -20.796875 
L 9.078125 54.6875 
L 18.109375 54.6875 
L 18.109375 46.390625 
Q 20.953125 51.265625 25.265625 53.625 
Q 29.59375 56 35.59375 56 
Q 45.5625 56 51.78125 48.09375 
Q 58.015625 40.1875 58.015625 27.296875 
Q 58.015625 14.40625 51.78125 6.484375 
Q 45.5625 -1.421875 35.59375 -1.421875 
Q 29.59375 -1.421875 25.265625 0.953125 
Q 20.953125 3.328125 18.109375 8.203125 
z
M 48.6875 27.296875 
Q 48.6875 37.203125 44.609375 42.84375 
Q 40.53125 48.484375 33.40625 48.484375 
Q 26.265625 48.484375 22.1875 42.84375 
Q 18.109375 37.203125 18.109375 27.296875 
Q 18.109375 17.390625 22.1875 11.75 
Q 26.265625 6.109375 33.40625 6.109375 
Q 40.53125 6.109375 44.609375 11.75 
Q 48.6875 17.390625 48.6875 27.296875 
z
" id="DejaVuSans-112"/>
     <path d="M 9.421875 54.6875 
L 18.40625 54.6875 
L 18.40625 0 
L 9.421875 0 
z
M 9.421875 75.984375 
L 18.40625 75.984375 
L 18.40625 64.59375 
L 9.421875 64.59375 
z
" id="DejaVuSans-105"/>
     <path d="M 44.28125 53.078125 
L 44.28125 44.578125 
Q 40.484375 46.53125 36.375 47.5 
Q 32.28125 48.484375 27.875 48.484375 
Q 21.1875 48.484375 17.84375 46.4375 
Q 14.5 44.390625 14.5 40.28125 
Q 14.5 37.15625 16.890625 35.375 
Q 19.28125 33.59375 26.515625 31.984375 
L 29.59375 31.296875 
Q 39.15625 29.25 43.1875 25.515625 
Q 47.21875 21.78125 47.21875 15.09375 
Q 47.21875 7.46875 41.1875 3.015625 
Q 35.15625 -1.421875 24.609375 -1.421875 
Q 20.21875 -1.421875 15.453125 -0.5625 
Q 10.6875 0.296875 5.421875 2 
L 5.421875 11.28125 
Q 10.40625 8.6875 15.234375 7.390625 
Q 20.0625 6.109375 24.8125 6.109375 
Q 31.15625 6.109375 34.5625 8.28125 
Q 37.984375 10.453125 37.984375 14.40625 
Q 37.984375 18.0625 35.515625 20.015625 
Q 33.0625 21.96875 24.703125 23.78125 
L 21.578125 24.515625 
Q 13.234375 26.265625 9.515625 29.90625 
Q 5.8125 33.546875 5.8125 39.890625 
Q 5.8125 47.609375 11.28125 51.796875 
Q 16.75 56 26.8125 56 
Q 31.78125 56 36.171875 55.265625 
Q 40.578125 54.546875 44.28125 53.078125 
z
" id="DejaVuSans-115"/>
     <path d="M 37.109375 75.984375 
L 37.109375 68.5 
L 28.515625 68.5 
Q 23.6875 68.5 21.796875 66.546875 
Q 19.921875 64.59375 19.921875 59.515625 
L 19.921875 54.6875 
L 34.71875 54.6875 
L 34.71875 47.703125 
L 19.921875 47.703125 
L 19.921875 0 
L 10.890625 0 
L 10.890625 47.703125 
L 2.296875 47.703125 
L 2.296875 54.6875 
L 10.890625 54.6875 
L 10.890625 58.5 
Q 10.890625 67.625 15.140625 71.796875 
Q 19.390625 75.984375 28.609375 75.984375 
z
" id="DejaVuSans-102"/>
     <path d="M 53.515625 70.515625 
L 53.515625 60.890625 
Q 47.90625 63.578125 42.921875 64.890625 
Q 37.9375 66.21875 33.296875 66.21875 
Q 25.25 66.21875 20.875 63.09375 
Q 16.5 59.96875 16.5 54.203125 
Q 16.5 49.359375 19.40625 46.890625 
Q 22.3125 44.4375 30.421875 42.921875 
L 36.375 41.703125 
Q 47.40625 39.59375 52.65625 34.296875 
Q 57.90625 29 57.90625 20.125 
Q 57.90625 9.515625 50.796875 4.046875 
Q 43.703125 -1.421875 29.984375 -1.421875 
Q 24.8125 -1.421875 18.96875 -0.25 
Q 13.140625 0.921875 6.890625 3.21875 
L 6.890625 13.375 
Q 12.890625 10.015625 18.65625 8.296875 
Q 24.421875 6.59375 29.984375 6.59375 
Q 38.421875 6.59375 43.015625 9.90625 
Q 47.609375 13.234375 47.609375 19.390625 
Q 47.609375 24.75 44.3125 27.78125 
Q 41.015625 30.8125 33.5 32.328125 
L 27.484375 33.5 
Q 16.453125 35.6875 11.515625 40.375 
Q 6.59375 45.0625 6.59375 53.421875 
Q 6.59375 63.09375 13.40625 68.65625 
Q 20.21875 74.21875 32.171875 74.21875 
Q 37.3125 74.21875 42.625 73.28125 
Q 47.953125 72.359375 53.515625 70.515625 
z
" id="DejaVuSans-83"/>
     <path d="M 34.1875 63.1875 
L 20.796875 26.90625 
L 47.609375 26.90625 
z
M 28.609375 72.90625 
L 39.796875 72.90625 
L 67.578125 0 
L 57.328125 0 
L 50.6875 18.703125 
L 17.828125 18.703125 
L 11.1875 0 
L 0.78125 0 
z
" id="DejaVuSans-65"/>
     <path d="M 9.8125 72.90625 
L 23.09375 72.90625 
L 55.421875 11.921875 
L 55.421875 72.90625 
L 64.984375 72.90625 
L 64.984375 0 
L 51.703125 0 
L 19.390625 60.984375 
L 19.390625 0 
L 9.8125 0 
z
" id="DejaVuSans-78"/>
     <path d="M 45.40625 46.390625 
L 45.40625 75.984375 
L 54.390625 75.984375 
L 54.390625 0 
L 45.40625 0 
L 45.40625 8.203125 
Q 42.578125 3.328125 38.25 0.953125 
Q 33.9375 -1.421875 27.875 -1.421875 
Q 17.96875 -1.421875 11.734375 6.484375 
Q 5.515625 14.40625 5.515625 27.296875 
Q 5.515625 40.1875 11.734375 48.09375 
Q 17.96875 56 27.875 56 
Q 33.9375 56 38.25 53.625 
Q 42.578125 51.265625 45.40625 46.390625 
z
M 14.796875 27.296875 
Q 14.796875 17.390625 18.875 11.75 
Q 22.953125 6.109375 30.078125 6.109375 
Q 37.203125 6.109375 41.296875 11.75 
Q 45.40625 17.390625 45.40625 27.296875 
Q 45.40625 37.203125 41.296875 42.84375 
Q 37.203125 48.484375 30.078125 48.484375 
Q 22.953125 48.484375 18.875 42.84375 
Q 14.796875 37.203125 14.796875 27.296875 
z
" id="DejaVuSans-100"/>
     <path d="M 59.515625 10.40625 
L 59.515625 29.984375 
L 43.40625 29.984375 
L 43.40625 38.09375 
L 69.28125 38.09375 
L 69.28125 6.78125 
Q 63.578125 2.734375 56.6875 0.65625 
Q 49.8125 -1.421875 42 -1.421875 
Q 24.90625 -1.421875 15.25 8.5625 
Q 5.609375 18.5625 5.609375 36.375 
Q 5.609375 54.25 15.25 64.234375 
Q 24.90625 74.21875 42 74.21875 
Q 49.125 74.21875 55.546875 72.453125 
Q 61.96875 70.703125 67.390625 67.28125 
L 67.390625 56.78125 
Q 61.921875 61.421875 55.765625 63.765625 
Q 49.609375 66.109375 42.828125 66.109375 
Q 29.4375 66.109375 22.71875 58.640625 
Q 16.015625 51.171875 16.015625 36.375 
Q 16.015625 21.625 22.71875 14.15625 
Q 29.4375 6.6875 42.828125 6.6875 
Q 48.046875 6.6875 52.140625 7.59375 
Q 56.25 8.5 59.515625 10.40625 
z
" id="DejaVuSans-71"/>
    </defs>
    <g transform="translate(147.677656 35.694141)scale(0.375 -0.375)">
     <use xlink:href="#DejaVuSans-69"/>
     <use x="63.183594" xlink:href="#DejaVuSans-110"/>
     <use x="126.5625" xlink:href="#DejaVuSans-101"/>
     <use x="188.085938" xlink:href="#DejaVuSans-114"/>
     <use x="227.449219" xlink:href="#DejaVuSans-103"/>
     <use x="290.925781" xlink:href="#DejaVuSans-121"/>
     <use x="350.105469" xlink:href="#DejaVuSans-32"/>
     <use x="381.892578" xlink:href="#DejaVuSans-67"/>
     <use x="451.716797" xlink:href="#DejaVuSans-111"/>
     <use x="512.898438" xlink:href="#DejaVuSans-109"/>
     <use x="610.310547" xlink:href="#DejaVuSans-112"/>
     <use x="673.787109" xlink:href="#DejaVuSans-97"/>
     <use x="735.066406" xlink:href="#DejaVuSans-114"/>
     <use x="776.179688" xlink:href="#DejaVuSans-105"/>
     <use x="803.962891" xlink:href="#DejaVuSans-115"/>
     <use x="856.0625" xlink:href="#DejaVuSans-111"/>
     <use x="917.244141" xlink:href="#DejaVuSans-110"/>
     <use x="980.623047" xlink:href="#DejaVuSans-115"/>
     <use x="1032.722656" xlink:href="#DejaVuSans-32"/>
     <use x="1064.509766" xlink:href="#DejaVuSans-102"/>
     <use x="1099.714844" xlink:href="#DejaVuSans-111"/>
     <use x="1160.896484" xlink:href="#DejaVuSans-114"/>
     <use x="1202.009766" xlink:href="#DejaVuSans-32"/>
     <use x="1233.796875" xlink:href="#DejaVuSans-83"/>
     <use x="1297.273438" xlink:href="#DejaVuSans-67"/>
     <use x="1367.097656" xlink:href="#DejaVuSans-65"/>
     <use x="1435.505859" xlink:href="#DejaVuSans-78"/>
     <use x="1510.310547" xlink:href="#DejaVuSans-32"/>
     <use x="1542.097656" xlink:href="#DejaVuSans-97"/>
     <use x="1603.376953" xlink:href="#DejaVuSans-110"/>
     <use x="1666.755859" xlink:href="#DejaVuSans-100"/>
     <use x="1730.232422" xlink:href="#DejaVuSans-32"/>
     <use x="1762.019531" xlink:href="#DejaVuSans-71"/>
     <use x="1839.509766" xlink:href="#DejaVuSans-71"/>
     <use x="1917" xlink:href="#DejaVuSans-65"/>
     <use x="1985.408203" xlink:href="#DejaVuSans-32"/>
    </g>
    <!--  Functionals by Constituent Element Type -->
    <defs>
     <path d="M 9.8125 72.90625 
L 51.703125 72.90625 
L 51.703125 64.59375 
L 19.671875 64.59375 
L 19.671875 43.109375 
L 48.578125 43.109375 
L 48.578125 34.8125 
L 19.671875 34.8125 
L 19.671875 0 
L 9.8125 0 
z
" id="DejaVuSans-70"/>
     <path d="M 48.78125 52.59375 
L 48.78125 44.1875 
Q 44.96875 46.296875 41.140625 47.34375 
Q 37.3125 48.390625 33.40625 48.390625 
Q 24.65625 48.390625 19.8125 42.84375 
Q 14.984375 37.3125 14.984375 27.296875 
Q 14.984375 17.28125 19.8125 11.734375 
Q 24.65625 6.203125 33.40625 6.203125 
Q 37.3125 6.203125 41.140625 7.25 
Q 44.96875 8.296875 48.78125 10.40625 
L 48.78125 2.09375 
Q 45.015625 0.34375 40.984375 -0.53125 
Q 36.96875 -1.421875 32.421875 -1.421875 
Q 20.0625 -1.421875 12.78125 6.34375 
Q 5.515625 14.109375 5.515625 27.296875 
Q 5.515625 40.671875 12.859375 48.328125 
Q 20.21875 56 33.015625 56 
Q 37.15625 56 41.109375 55.140625 
Q 45.0625 54.296875 48.78125 52.59375 
z
" id="DejaVuSans-99"/>
     <path d="M 9.421875 75.984375 
L 18.40625 75.984375 
L 18.40625 0 
L 9.421875 0 
z
" id="DejaVuSans-108"/>
     <path d="M 48.6875 27.296875 
Q 48.6875 37.203125 44.609375 42.84375 
Q 40.53125 48.484375 33.40625 48.484375 
Q 26.265625 48.484375 22.1875 42.84375 
Q 18.109375 37.203125 18.109375 27.296875 
Q 18.109375 17.390625 22.1875 11.75 
Q 26.265625 6.109375 33.40625 6.109375 
Q 40.53125 6.109375 44.609375 11.75 
Q 48.6875 17.390625 48.6875 27.296875 
z
M 18.109375 46.390625 
Q 20.953125 51.265625 25.265625 53.625 
Q 29.59375 56 35.59375 56 
Q 45.5625 56 51.78125 48.09375 
Q 58.015625 40.1875 58.015625 27.296875 
Q 58.015625 14.40625 51.78125 6.484375 
Q 45.5625 -1.421875 35.59375 -1.421875 
Q 29.59375 -1.421875 25.265625 0.953125 
Q 20.953125 3.328125 18.109375 8.203125 
L 18.109375 0 
L 9.078125 0 
L 9.078125 75.984375 
L 18.109375 75.984375 
z
" id="DejaVuSans-98"/>
     <path d="M -0.296875 72.90625 
L 61.375 72.90625 
L 61.375 64.59375 
L 35.5 64.59375 
L 35.5 0 
L 25.59375 0 
L 25.59375 64.59375 
L -0.296875 64.59375 
z
" id="DejaVuSans-84"/>
    </defs>
    <g transform="translate(137.42668 77.685938)scale(0.375 -0.375)">
     <use xlink:href="#DejaVuSans-32"/>
     <use x="31.787109" xlink:href="#DejaVuSans-70"/>
     <use x="83.806641" xlink:href="#DejaVuSans-117"/>
     <use x="147.185547" xlink:href="#DejaVuSans-110"/>
     <use x="210.564453" xlink:href="#DejaVuSans-99"/>
     <use x="265.544922" xlink:href="#DejaVuSans-116"/>
     <use x="304.753906" xlink:href="#DejaVuSans-105"/>
     <use x="332.537109" xlink:href="#DejaVuSans-111"/>
     <use x="393.71875" xlink:href="#DejaVuSans-110"/>
     <use x="457.097656" xlink:href="#DejaVuSans-97"/>
     <use x="518.376953" xlink:href="#DejaVuSans-108"/>
     <use x="546.160156" xlink:href="#DejaVuSans-115"/>
     <use x="598.259766" xlink:href="#DejaVuSans-32"/>
     <use x="630.046875" xlink:href="#DejaVuSans-98"/>
     <use x="693.523438" xlink:href="#DejaVuSans-121"/>
     <use x="752.703125" xlink:href="#DejaVuSans-32"/>
     <use x="784.490234" xlink:href="#DejaVuSans-67"/>
     <use x="854.314453" xlink:href="#DejaVuSans-111"/>
     <use x="915.496094" xlink:href="#DejaVuSans-110"/>
     <use x="978.875" xlink:href="#DejaVuSans-115"/>
     <use x="1030.974609" xlink:href="#DejaVuSans-116"/>
     <use x="1070.183594" xlink:href="#DejaVuSans-105"/>
     <use x="1097.966797" xlink:href="#DejaVuSans-116"/>
     <use x="1137.175781" xlink:href="#DejaVuSans-117"/>
     <use x="1200.554688" xlink:href="#DejaVuSans-101"/>
     <use x="1262.078125" xlink:href="#DejaVuSans-110"/>
     <use x="1325.457031" xlink:href="#DejaVuSans-116"/>
     <use x="1364.666016" xlink:href="#DejaVuSans-32"/>
     <use x="1396.453125" xlink:href="#DejaVuSans-69"/>
     <use x="1459.636719" xlink:href="#DejaVuSans-108"/>
     <use x="1487.419922" xlink:href="#DejaVuSans-101"/>
     <use x="1548.943359" xlink:href="#DejaVuSans-109"/>
     <use x="1646.355469" xlink:href="#DejaVuSans-101"/>
     <use x="1707.878906" xlink:href="#DejaVuSans-110"/>
     <use x="1771.257812" xlink:href="#DejaVuSans-116"/>
     <use x="1810.466797" xlink:href="#DejaVuSans-32"/>
     <use x="1842.253906" xlink:href="#DejaVuSans-84"/>
     <use x="1887.712891" xlink:href="#DejaVuSans-121"/>
     <use x="1946.892578" xlink:href="#DejaVuSans-112"/>
     <use x="2010.369141" xlink:href="#DejaVuSans-101"/>
    </g>
   </g>
   <g id="legend_1">
    <g id="patch_11">
     <path d="M 629.865781 272.802813 
L 926.550313 272.802813 
Q 931.650313 272.802813 931.650313 267.702813 
L 931.650313 120.535938 
Q 931.650313 115.435938 926.550313 115.435938 
L 629.865781 115.435938 
Q 624.765781 115.435938 624.765781 120.535938 
L 624.765781 267.702813 
Q 624.765781 272.802813 629.865781 272.802813 
z
" style="fill:#ffffff;opacity:0.8;stroke:#000000;stroke-linejoin:miter;"/>
    </g>
    <g id="patch_12">
     <path d="M 634.965781 145.011953 
L 685.965781 145.011953 
L 685.965781 127.161953 
L 634.965781 127.161953 
z
" style="fill:#0870a8;"/>
    </g>
    <g id="text_18">
     <!-- All Compounds -->
     <g transform="translate(706.365781 145.011953)scale(0.255 -0.255)">
      <use xlink:href="#DejaVuSans-65"/>
      <use x="68.408203" xlink:href="#DejaVuSans-108"/>
      <use x="96.191406" xlink:href="#DejaVuSans-108"/>
      <use x="123.974609" xlink:href="#DejaVuSans-32"/>
      <use x="155.761719" xlink:href="#DejaVuSans-67"/>
      <use x="225.585938" xlink:href="#DejaVuSans-111"/>
      <use x="286.767578" xlink:href="#DejaVuSans-109"/>
      <use x="384.179688" xlink:href="#DejaVuSans-112"/>
      <use x="447.65625" xlink:href="#DejaVuSans-111"/>
      <use x="508.837891" xlink:href="#DejaVuSans-117"/>
      <use x="572.216797" xlink:href="#DejaVuSans-110"/>
      <use x="635.595703" xlink:href="#DejaVuSans-100"/>
      <use x="699.072266" xlink:href="#DejaVuSans-115"/>
     </g>
    </g>
    <g id="patch_13">
     <path d="M 634.965781 182.441172 
L 685.965781 182.441172 
L 685.965781 164.591172 
L 634.965781 164.591172 
z
" style="fill:#f48a1e;"/>
    </g>
    <g id="text_19">
     <!-- Halogens -->
     <defs>
      <path d="M 9.8125 72.90625 
L 19.671875 72.90625 
L 19.671875 43.015625 
L 55.515625 43.015625 
L 55.515625 72.90625 
L 65.375 72.90625 
L 65.375 0 
L 55.515625 0 
L 55.515625 34.71875 
L 19.671875 34.71875 
L 19.671875 0 
L 9.8125 0 
z
" id="DejaVuSans-72"/>
     </defs>
     <g transform="translate(706.365781 182.441172)scale(0.255 -0.255)">
      <use xlink:href="#DejaVuSans-72"/>
      <use x="75.195312" xlink:href="#DejaVuSans-97"/>
      <use x="136.474609" xlink:href="#DejaVuSans-108"/>
      <use x="164.257812" xlink:href="#DejaVuSans-111"/>
      <use x="225.439453" xlink:href="#DejaVuSans-103"/>
      <use x="288.916016" xlink:href="#DejaVuSans-101"/>
      <use x="350.439453" xlink:href="#DejaVuSans-110"/>
      <use x="413.818359" xlink:href="#DejaVuSans-115"/>
     </g>
    </g>
    <g id="patch_14">
     <path d="M 634.965781 219.870391 
L 685.965781 219.870391 
L 685.965781 202.020391 
L 634.965781 202.020391 
z
" style="fill:#f8ed73;"/>
    </g>
    <g id="text_20">
     <!-- Oxides -->
     <defs>
      <path d="M 39.40625 66.21875 
Q 28.65625 66.21875 22.328125 58.203125 
Q 16.015625 50.203125 16.015625 36.375 
Q 16.015625 22.609375 22.328125 14.59375 
Q 28.65625 6.59375 39.40625 6.59375 
Q 50.140625 6.59375 56.421875 14.59375 
Q 62.703125 22.609375 62.703125 36.375 
Q 62.703125 50.203125 56.421875 58.203125 
Q 50.140625 66.21875 39.40625 66.21875 
z
M 39.40625 74.21875 
Q 54.734375 74.21875 63.90625 63.9375 
Q 73.09375 53.65625 73.09375 36.375 
Q 73.09375 19.140625 63.90625 8.859375 
Q 54.734375 -1.421875 39.40625 -1.421875 
Q 24.03125 -1.421875 14.8125 8.828125 
Q 5.609375 19.09375 5.609375 36.375 
Q 5.609375 53.65625 14.8125 63.9375 
Q 24.03125 74.21875 39.40625 74.21875 
z
" id="DejaVuSans-79"/>
      <path d="M 54.890625 54.6875 
L 35.109375 28.078125 
L 55.90625 0 
L 45.3125 0 
L 29.390625 21.484375 
L 13.484375 0 
L 2.875 0 
L 24.125 28.609375 
L 4.6875 54.6875 
L 15.28125 54.6875 
L 29.78125 35.203125 
L 44.28125 54.6875 
z
" id="DejaVuSans-120"/>
     </defs>
     <g transform="translate(706.365781 219.870391)scale(0.255 -0.255)">
      <use xlink:href="#DejaVuSans-79"/>
      <use x="78.710938" xlink:href="#DejaVuSans-120"/>
      <use x="137.890625" xlink:href="#DejaVuSans-105"/>
      <use x="165.673828" xlink:href="#DejaVuSans-100"/>
      <use x="229.150391" xlink:href="#DejaVuSans-101"/>
      <use x="290.673828" xlink:href="#DejaVuSans-115"/>
     </g>
    </g>
    <g id="patch_15">
     <path d="M 634.965781 257.299609 
L 685.965781 257.299609 
L 685.965781 239.449609 
L 634.965781 239.449609 
z
" style="fill:#39cc6e;"/>
    </g>
    <g id="text_21">
     <!-- Transition Metals -->
     <defs>
      <path d="M 9.8125 72.90625 
L 24.515625 72.90625 
L 43.109375 23.296875 
L 61.8125 72.90625 
L 76.515625 72.90625 
L 76.515625 0 
L 66.890625 0 
L 66.890625 64.015625 
L 48.09375 14.015625 
L 38.1875 14.015625 
L 19.390625 64.015625 
L 19.390625 0 
L 9.8125 0 
z
" id="DejaVuSans-77"/>
     </defs>
     <g transform="translate(706.365781 257.299609)scale(0.255 -0.255)">
      <use xlink:href="#DejaVuSans-84"/>
      <use x="46.333984" xlink:href="#DejaVuSans-114"/>
      <use x="87.447266" xlink:href="#DejaVuSans-97"/>
      <use x="148.726562" xlink:href="#DejaVuSans-110"/>
      <use x="212.105469" xlink:href="#DejaVuSans-115"/>
      <use x="264.205078" xlink:href="#DejaVuSans-105"/>
      <use x="291.988281" xlink:href="#DejaVuSans-116"/>
      <use x="331.197266" xlink:href="#DejaVuSans-105"/>
      <use x="358.980469" xlink:href="#DejaVuSans-111"/>
      <use x="420.162109" xlink:href="#DejaVuSans-110"/>
      <use x="483.541016" xlink:href="#DejaVuSans-32"/>
      <use x="515.328125" xlink:href="#DejaVuSans-77"/>
      <use x="601.607422" xlink:href="#DejaVuSans-101"/>
      <use x="663.130859" xlink:href="#DejaVuSans-116"/>
      <use x="702.339844" xlink:href="#DejaVuSans-97"/>
      <use x="763.619141" xlink:href="#DejaVuSans-108"/>
      <use x="791.402344" xlink:href="#DejaVuSans-115"/>
     </g>
    </g>
   </g>
  </g>
 </g>
 <defs>
  <clipPath id="p09d42fe166">
   <rect height="489.24" width="837" x="107.400312" y="102.685938"/>
  </clipPath>
 </defs>
</svg>
